<svg width="335" height="120" viewBox="0 0 335 120" fill="none" xmlns="http://www.w3.org/2000/svg">
<rect width="335" height="120" fill="#EEEEEE"/>
<path fill-rule="evenodd" clip-rule="evenodd" d="M181.466 72.9989H152.907C152.179 72.9989 151.482 72.71 150.967 72.1956C150.453 71.6813 150.164 70.9837 150.164 70.2563V47.8715C150.164 47.1441 150.453 46.4465 150.967 45.9322C151.482 45.4179 152.179 45.1289 152.907 45.1289H181.466C182.194 45.1289 182.891 45.4179 183.406 45.9322C183.92 46.4465 184.209 47.1441 184.209 47.8715V70.2563C184.209 70.9837 183.92 71.6813 183.406 72.1956C182.891 72.71 182.194 72.9989 181.466 72.9989ZM152.907 47.2674C152.746 47.2674 152.593 47.3311 152.48 47.4444C152.366 47.5576 152.303 47.7113 152.303 47.8715V70.2563C152.303 70.3356 152.318 70.4142 152.349 70.4875C152.379 70.5608 152.423 70.6274 152.48 70.6835C152.536 70.7396 152.602 70.7841 152.675 70.8144C152.749 70.8448 152.827 70.8604 152.907 70.8604H181.466C181.626 70.859 181.778 70.7947 181.89 70.6816C182.002 70.5684 182.065 70.4156 182.065 70.2563V47.8715C182.065 47.7122 182.002 47.5594 181.89 47.4462C181.778 47.3331 181.626 47.2688 181.466 47.2674H152.907ZM156.593 65.85H177.716C177.885 65.8549 178.052 65.8121 178.198 65.7266C178.344 65.641 178.463 65.5162 178.542 65.3663C178.62 65.2165 178.655 65.0475 178.643 64.8788C178.63 64.71 178.57 64.5483 178.47 64.4119L175.556 60.4557C175.48 60.3504 175.382 60.2628 175.269 60.1987C175.156 60.1347 175.031 60.0958 174.901 60.0846C174.772 60.0735 174.642 60.0903 174.519 60.1341C174.397 60.1778 174.286 60.2474 174.193 60.3381L171.199 63.1876L164.249 53.7515C164.162 53.6336 164.048 53.5385 163.917 53.4743C163.786 53.4101 163.64 53.3788 163.494 53.383C163.348 53.3872 163.205 53.4268 163.078 53.4984C162.95 53.5701 162.842 53.6716 162.762 53.7942L155.812 64.4547C155.723 64.5927 155.672 64.7525 155.667 64.917C155.662 65.0815 155.701 65.2443 155.781 65.3879C155.862 65.5315 155.98 65.6505 156.123 65.7319C156.266 65.8133 156.428 65.8542 156.593 65.85ZM178.515 53.8017C178.515 55.5526 177.095 56.972 175.344 56.972C173.593 56.972 172.174 55.5526 172.174 53.8017C172.174 52.0507 173.593 50.6313 175.344 50.6313C177.095 50.6313 178.515 52.0507 178.515 53.8017Z" fill="#929497" fill-opacity="0.4"/>
</svg>
