<svg width="311" height="232" viewBox="0 0 311 232" fill="none" xmlns="http://www.w3.org/2000/svg">
<rect width="311" height="232" rx="16" fill="#F7F7F7"/>
<ellipse cx="155.5" cy="116" rx="155.5" ry="116" fill="#929497" fill-opacity="0.4"/>
<path d="M257.583 152.619C289.57 91.2091 239.783 31.5168 181.755 14.6691C154.085 6.65906 121.137 9.15106 93.9386 21.2996C80.4729 22.51 67.4255 27.4673 56.6298 37.195C31.5852 59.7387 26.708 94.7157 37.1833 122.128C47.3916 148.828 70.5583 169.182 93.9564 185.691C117.15 202.067 146.725 210.264 177.163 204.381C207.876 198.392 243.103 180.414 257.583 152.619Z" fill="#F7F7F7"/>
<path d="M278.898 217.126C278.898 221.638 182.511 225.394 132.644 225.305C81.8339 225.225 47.0527 220.748 47.0527 216.236C47.0527 211.724 67.6918 207.336 122.284 207.336C176.877 207.336 278.898 212.631 278.898 217.126Z" fill="#E0E0E0"/>
<path d="M130.661 76.2934C132.717 75.2076 135.769 84.2411 132.539 85.7986C129.308 87.3561 126.852 80.7345 126.852 80.7345C126.852 80.7345 128.516 77.4237 130.661 76.2845V76.2934Z" fill="#C96F32"/>
<path d="M134.479 76.0938C135.564 74.9279 135.28 72.8898 135.244 72.6406C135.291 72.7981 135.372 72.9434 135.481 73.0664C135.59 73.1894 135.725 73.287 135.876 73.3526C135.946 73.8971 135.851 74.4503 135.601 74.9394C135.352 75.4286 134.961 75.831 134.479 76.0938Z" fill="#884638"/>
<path d="M99.5633 47.4219C104.627 49.8516 113.34 80.7257 113.34 80.7257C113.34 80.7257 114.684 79.3907 115.227 80.3519C115.77 81.3131 130.633 76.2935 130.633 76.2935C130.633 76.2935 127.616 81.7403 132.511 85.7987C132.511 85.7987 116.642 93.6129 111.293 94.6987C105.945 95.7845 97.543 68.6484 97.543 68.6484L99.5633 47.4219Z" fill="#E28A40"/>
<path d="M127.305 215.835C127.308 216.267 127.281 216.698 127.225 217.126H105.242C105.242 216.69 105.242 216.236 105.242 215.835C105.441 212.177 106.135 208.564 107.307 205.093L112.807 202.734C113.078 205.019 114.231 207.108 116.02 208.555C116.417 208.859 116.84 209.127 117.284 209.356C117.481 209.471 117.687 209.572 117.898 209.659C118.35 209.867 118.817 210.043 119.295 210.184C121.029 210.614 122.794 210.911 124.573 211.074C126.923 211.439 127.243 214.144 127.243 215.8L127.305 215.835Z" fill="#0E3944"/>
<path d="M127.305 215.836C127.308 216.267 127.281 216.699 127.225 217.126H105.242C105.242 216.69 105.242 216.236 105.242 215.836H127.305Z" fill="#ADBEC4"/>
<path d="M117.311 209.356L114.258 210.335L113.617 209.222L116.047 208.555C116.443 208.859 116.866 209.127 117.311 209.356Z" fill="#ADBEC4"/>
<path d="M119.322 210.185L117.266 211.547L116.002 211.057L117.924 209.66C118.377 209.869 118.844 210.045 119.322 210.185Z" fill="#ADBEC4"/>
<path d="M88.2785 215.834C88.2479 216.273 88.1642 216.706 88.0293 217.124H73.3888C73.207 216.71 73.0697 216.277 72.9794 215.834C71.5287 208.821 81.2653 200.25 81.2653 200.25L84.3536 204.371C84.3536 204.371 83.9976 210.966 86.6142 212.336C87.2191 212.676 87.704 213.194 88.0021 213.821C88.3001 214.447 88.3967 215.15 88.2785 215.834Z" fill="#0E3944"/>
<path d="M72.9785 215.836H88.2776C88.247 216.275 88.1634 216.708 88.0284 217.126H73.3879C73.2061 216.712 73.0688 216.279 72.9785 215.836Z" fill="#ADBEC4"/>
<path d="M85.9371 211.811C85.9371 211.811 79.7694 210.405 76.957 212.229V211.206C76.957 211.206 82.1457 208.687 85.9371 211.811Z" fill="#ADBEC4"/>
<path d="M84.7178 210.246C83.4884 209.733 82.1695 209.47 80.8374 209.47C79.5054 209.47 78.1865 209.733 76.957 210.246L77.3931 209.223C77.3931 209.223 81.9588 207.496 84.7178 210.246Z" fill="#ADBEC4"/>
<path d="M63.8205 105.831C63.8205 119.76 65.1911 133.946 65.5471 137.542C65.9031 141.138 69.6233 178.09 70.1484 193.612C70.4154 201.622 72.9786 211.225 72.9786 211.225C72.9786 211.225 80.5614 205.084 84.8601 209.641L85.937 203.411L83.9256 198.516C83.9256 198.516 86.0794 194.466 84.3172 191.325C82.555 188.183 82.0121 124.201 82.0121 124.201L85.403 123.978L101.672 198.516V202.966C101.672 202.966 105.232 208.609 105.232 212.213L116.037 208.537L114.257 203.429L115.432 196.14L111.507 186.635C111.507 186.635 100.275 115.523 101.183 107.184L63.8027 105.805L63.8205 105.831Z" fill="#0A527D"/>
<path d="M102.465 66.3427V69.164C102.465 70.944 102.465 72.724 102.412 74.5663C102.412 75.4563 102.412 76.4353 102.412 77.3698C102.368 79.6126 102.314 81.8198 102.243 84.0626C102.243 85.0149 102.181 85.9583 102.154 86.8839C102.074 89.4471 101.976 91.9302 101.887 94.2353C101.842 95.241 101.798 96.2022 101.762 97.1278C101.673 99.2193 101.584 101.124 101.504 102.735C101.451 103.883 101.397 104.897 101.353 105.734C101.264 107.514 101.202 108.529 101.202 108.529C101.202 108.529 96.7517 113.299 87.0151 114.839C69.7936 117.562 63.9641 109.303 63.9641 109.303C63.9641 109.303 63.8929 108.653 63.7772 107.523C63.6971 106.766 63.5992 105.743 63.4746 104.613C63.3321 103.224 63.172 101.569 62.9851 99.7266C62.8961 98.8307 62.8071 97.8873 62.7181 96.8964C62.5223 94.8316 62.3087 92.6066 62.0951 90.2659C62.015 89.3759 61.9349 88.4325 61.8548 87.498C61.6857 85.629 61.5254 83.7066 61.3741 81.7842C61.294 80.8497 61.2228 79.9063 61.1516 78.9629C60.9825 76.8981 60.8313 74.8333 60.6978 72.813C60.6355 71.8429 60.5732 70.8995 60.5109 69.965C60.3774 67.7578 60.2617 65.6218 60.1727 63.6371C60.1727 62.6403 60.0926 61.6791 60.0748 60.7713C60.0125 58.7065 59.9858 56.8642 60.0748 55.2978C60.0748 54.123 60.1637 53.1084 60.2616 52.2985C60.2818 51.621 60.4488 50.956 60.7512 50.3494C62.4155 47.893 66.0912 46.7894 73.318 44.7424C75.2337 44.2054 77.2044 43.8889 79.192 43.799C81.8128 43.666 84.4387 43.666 87.0595 43.799C93.2895 44.1283 98.1578 45.4633 100.73 48.5338L100.935 48.7919C101.408 49.645 101.696 50.5881 101.78 51.5598C102.05 53.3621 102.225 55.1772 102.305 56.9977C102.359 57.8877 102.403 58.8311 102.43 59.819C102.501 61.8482 102.546 64.0732 102.554 66.405L102.465 66.3427Z" fill="#FBB778"/>
<path d="M101.69 51.5415C86.6666 48.6935 69.4807 52.5383 59.9844 55.3062C59.9844 54.1314 60.0734 53.1168 60.1713 52.3069C69.7121 49.5746 85.8389 46.1303 100.64 48.5155L100.844 48.7736C101.317 49.6267 101.605 50.5698 101.69 51.5415Z" fill="#E28A40"/>
<path d="M102.34 59.7547C89.5684 57.9747 71.7328 61.0185 60.1272 63.5995C60.1272 62.6027 60.0471 61.6415 60.0293 60.7337C71.5993 58.1527 89.0967 55.189 102.215 56.9334C102.269 57.8234 102.313 58.7668 102.34 59.7547Z" fill="#E28A40"/>
<path d="M102.464 66.3406V69.1619C89.2566 68.0049 72.2042 70.5415 60.6342 72.7754C60.5719 71.8053 60.5096 70.8619 60.4473 69.9274C72.0707 67.6934 88.9273 65.2014 102.446 66.3673L102.464 66.3406Z" fill="#E28A40"/>
<path d="M102.411 74.5664C102.411 75.4564 102.411 76.4354 102.411 77.3699C90.5827 77.4322 73.5481 79.7907 61.3729 81.7487C61.2928 80.8142 61.2216 79.8708 61.1504 78.9274C73.379 76.9605 90.378 74.6287 102.455 74.5664H102.411Z" fill="#E28A40"/>
<path d="M102.233 84.0625C102.233 85.0148 102.171 85.9582 102.144 86.8838C89.5236 88.1921 73.5303 89.4203 62.0938 90.2302C62.0137 89.3402 61.9336 88.3968 61.8535 87.4623C73.4235 86.6257 89.5859 85.3797 102.242 84.0625H102.233Z" fill="#E28A40"/>
<path d="M101.841 94.2617C101.796 95.2674 101.752 96.2286 101.716 97.1542C91.8639 99.2279 79.7955 99.8242 69.5694 99.8242C67.2465 99.8242 65.0215 99.8242 62.9389 99.753C62.8499 98.8571 62.7609 97.9137 62.6719 96.9228C74.055 97.1809 89.897 96.9228 101.832 94.2973L101.841 94.2617Z" fill="#E28A40"/>
<path d="M101.459 102.734C101.406 103.882 101.353 104.897 101.308 105.734C94.3276 108.018 87.0259 109.169 79.6811 109.142C74.3224 109.133 68.9786 108.579 63.7323 107.487C63.6522 106.73 63.5543 105.707 63.4297 104.577C72.9883 106.65 86.899 107.834 101.459 102.734Z" fill="#E28A40"/>
<path d="M77.314 43.6476C76.5308 43.7633 74.8665 44.8313 74.8309 45.6234C74.6974 48.1065 79.4678 50.1624 83.8466 49.8153C88.2254 49.4682 88.2254 47.0919 87.4066 45.9171C86.5878 44.7423 84.6031 42.6419 77.314 43.6476Z" fill="#C96F32"/>
<path d="M86.5428 38.6457L84.9942 47.8038C84.9942 47.8038 82.52 49.2189 76.7528 46.0238C76.7528 46.0238 79.1024 38.9661 76.1387 34.3203C76.1387 34.3203 76.7973 34.3203 77.8297 34.3203C77.8297 34.3203 79.2982 39.5713 86.5428 38.6546V38.6457Z" fill="#884638"/>
<path d="M89.774 22.3836C89.774 22.3836 92.444 20.2209 90.0231 19.5178C90.0231 19.5178 91.0378 16.8478 89.8808 16.4384C88.7238 16.029 87.54 17.0703 86.8992 15.94C86.2584 14.8097 84.8611 12.9941 82.3869 14.7741C79.9127 16.5541 78.5332 13.626 77.4741 14.5694C76.415 15.5128 77.0558 17.0436 75.3292 17.2394C73.6026 17.4352 71.965 17.8713 72.3655 19.6157C72.766 21.3601 70.8436 21.4669 70.7546 22.526C70.6656 23.5851 71.4844 23.8877 71.5556 24.7955C71.6268 25.7033 70.3452 26.0771 70.808 27.4655C71.2708 28.8539 72.588 28.6225 72.4723 29.5926C72.3566 30.5627 71.5111 32.7165 72.7571 33.028C74.0031 33.3395 74.4659 35.5201 75.9166 35.2085C77.3673 34.897 89.774 22.3836 89.774 22.3836Z" fill="#0E3944"/>
<path d="M74.3046 29.912C73.9931 38.5895 86.3819 42.3186 88.7137 38.189C89.4524 36.8629 90.1911 33.1783 90.4937 30.6418C90.553 30.0485 90.5975 29.4552 90.6272 28.8618C90.8052 24.9013 90.1021 20.9675 87.8326 20.0953C79.9205 17.0604 74.7229 19.2053 74.3313 29.8853L74.3046 29.912Z" fill="#A96050"/>
<path d="M76.7874 30.0455C76.7874 30.0455 76.6005 26.9038 78.5051 25.0793C80.4097 23.2548 78.7543 20.6293 78.7543 20.6293C78.7543 20.6293 86.3816 19.3388 89.7814 22.4093C89.7814 22.4093 92.3179 17.9593 85.0644 16.117C77.8109 14.2747 66.0184 19.9262 75.9241 35.2342L74.3043 29.8942L76.7874 30.0277V30.0455Z" fill="#0E3944"/>
<path d="M76.5484 29.6566C76.5484 29.6566 74.8396 27.6096 73.2198 28.8378C71.6 30.066 74.2611 33.8129 75.9877 33.6972C77.7143 33.5815 76.5484 29.6566 76.5484 29.6566Z" fill="#A96050"/>
<path d="M97.6318 73.6663C97.6182 73.4288 97.545 73.1985 97.4189 72.9968C97.2928 72.795 97.1178 72.6284 96.9102 72.5121C96.7027 72.3959 96.4691 72.3339 96.2312 72.3319C95.9933 72.3298 95.7587 72.3878 95.5492 72.5004C93.9739 73.1234 92.5855 73.6841 91.0992 72.6072C90.1894 71.9686 89.5704 70.9948 89.3785 69.8999C89.1866 68.805 89.4373 67.6788 90.0757 66.7688C91.7667 64.5438 94.2943 65.1401 96.2167 66.6709C96.4017 66.8179 96.6189 66.9193 96.8504 66.9667C97.082 67.0142 97.3215 67.0064 97.5495 66.9439C97.7775 66.8815 97.9876 66.7663 98.1627 66.6075C98.3378 66.4487 98.473 66.2509 98.5574 66.0301L99.2071 60.521L99.6432 56.8542V56.7296L96.6795 56.3825L74.6965 53.8015L73.5751 53.668V53.8015L73.1835 57.1835L72.4893 63.0753L72.4359 63.1643L71.5459 70.3555V70.4534L70.4512 79.745H70.5847V79.8162L73.9667 80.2078L79.8585 80.902C80.6862 81.3025 80.4993 82.2548 79.8585 83.038C78.3277 84.9604 78.2298 87.6393 80.4637 89.3303C81.3622 89.9866 82.4837 90.2613 83.5839 90.0946C84.6841 89.9279 85.6739 89.3333 86.3377 88.4403C86.8105 87.8058 87.0898 87.0482 87.1419 86.2587C87.194 85.4691 87.0167 84.6814 86.6314 83.9903C86.2487 83.1003 86.3644 81.9522 87.2277 81.7475L96.5193 82.8422L96.9732 79.0241L97.6318 73.6663Z" fill="#A42A29"/>
<path d="M73.4248 85.1406C75.276 85.1406 76.3173 93.6312 72.7039 94.5301C72.7039 94.5301 68.3607 85.2207 73.4248 85.1406Z" fill="#C96F32"/>
<path d="M73.344 92.8193C74.1361 93.1397 79.6897 95.1155 80.7933 94.9642H80.909C81.9859 94.7506 83.1874 93.7093 83.935 93.4334C84.6826 93.1575 84.9852 92.4099 85.6616 91.9026C86.1961 91.3263 86.5785 90.6258 86.7741 89.8645C86.7741 89.8645 89.0881 87.7908 88.118 87.5149C86.9076 87.1678 85.5459 88.4049 85.5459 88.4049L82.5466 88.9122C82.5466 88.9122 78.9866 87.4882 79.1023 86.7673C79.218 86.0464 80.7399 86.6427 82.0482 86.5359C82.9382 86.4647 82.9382 85.5302 82.9382 85.5302L80.7132 84.9695C80.7132 84.9695 77.4825 84.4444 76.7883 84.7292C76.0941 85.014 73.5309 86.6338 73.5309 86.6338L68.7338 86.527L67.8438 92.757C67.8438 92.757 72.5519 92.5078 73.344 92.8282V92.8193Z" fill="#A96050"/>
<path d="M80.8744 94.9474C81.9513 94.7338 83.1528 93.6925 83.9004 93.4166C84.648 93.1407 84.9505 92.3931 85.6269 91.8858C86.1615 91.3095 86.5439 90.609 86.7394 89.8477C86.152 90.3372 83.3219 90.8534 83.0994 91.0848C82.8769 91.3162 83.224 91.5565 83.0994 92.0371C82.9748 92.5177 81.9958 92.5266 82.0492 93.0339C82.0883 93.1612 82.1013 93.2952 82.0873 93.4277C82.0734 93.5602 82.0327 93.6885 81.9679 93.8049C81.903 93.9213 81.8153 94.0234 81.7099 94.105C81.6046 94.1867 81.4839 94.2461 81.355 94.2799C81.2186 94.3359 81.0997 94.4273 81.0105 94.5446C80.9214 94.662 80.8651 94.801 80.8477 94.9474H80.8744Z" fill="#884638"/>
<path d="M60.6612 50.304C65.5918 52.9028 67.3451 63.7074 66.82 68.104L61.391 82.5309C61.391 82.5309 62.4501 84.4711 61.5779 84.8182L73.4238 85.1564C73.4238 85.1564 70.3889 88.3159 72.7029 94.5459C72.7029 94.5459 57.2169 99.1828 50.5864 94.5459C48.6729 93.202 47.6405 89.375 48.1211 86.5359C50.4744 73.8933 54.7009 61.6725 60.6612 50.2773V50.304Z" fill="#E28A40"/>
<path d="M223.585 214.411H152.759C150.733 214.41 148.728 214.01 146.857 213.234C144.986 212.458 143.286 211.321 141.855 209.887C140.424 208.454 139.288 206.753 138.514 204.882C137.74 203.01 137.343 201.004 137.344 198.979V21.4326C137.344 17.3396 138.97 13.4143 141.864 10.5201C144.758 7.62593 148.683 6 152.776 6L223.603 6.0445C225.628 6.04566 227.633 6.44577 229.504 7.22196C231.375 7.99816 233.075 9.13524 234.506 10.5683C235.938 12.0013 237.073 13.7023 237.847 15.574C238.621 17.4458 239.019 19.4516 239.017 21.4771V199.032C239.006 203.117 237.374 207.03 234.481 209.913C231.588 212.796 227.669 214.414 223.585 214.411Z" fill="#263238"/>
<path d="M223.568 12.3175H209.835C209.387 12.3268 208.946 12.4241 208.536 12.604C208.126 12.7839 207.755 13.0429 207.445 13.366C207.135 13.6892 206.892 14.0702 206.729 14.4874C206.567 14.9046 206.488 15.3497 206.497 15.7974V18.2894C206.517 19.1944 206.176 20.0699 205.55 20.724C204.924 21.378 204.065 21.7572 203.16 21.7782H176.398C175.493 21.7572 174.633 21.378 174.007 20.724C173.382 20.0699 173.041 19.1944 173.06 18.2894V15.7974C173.071 15.3497 172.993 14.9044 172.832 14.4867C172.67 14.0691 172.428 13.6873 172.119 13.3634C171.81 13.0394 171.44 12.7795 171.03 12.5985C170.62 12.4175 170.179 12.319 169.732 12.3086H152.884C150.026 12.3062 147.284 13.4362 145.257 15.4512C143.23 17.4661 142.084 20.202 142.07 23.0598V196.361C142.07 199.227 143.208 201.976 145.234 204.004C147.26 206.031 150.009 207.172 152.875 207.174H223.55C224.969 207.175 226.375 206.897 227.687 206.354C228.999 205.812 230.191 205.016 231.196 204.013C232.2 203.009 232.996 201.818 233.54 200.506C234.084 199.195 234.363 197.789 234.363 196.37V23.0687C234.349 20.2139 233.206 17.4808 231.183 15.4663C229.16 13.4519 226.422 12.3198 223.568 12.3175Z" fill="white"/>
<path d="M217.712 98.9795V91.7171C217.692 91.6871 217.677 91.654 217.667 91.6192V82.1229H208.064C207.878 82.0354 207.715 81.9056 207.588 81.7438C207.461 81.5821 207.374 81.3928 207.333 81.1913C207.293 80.9897 207.3 80.7814 207.354 80.5831C207.408 80.3848 207.508 80.2019 207.646 80.0492C209.185 77.8687 208.999 75.2521 206.578 73.8192C205.606 73.2701 204.456 73.1285 203.38 73.4255C202.304 73.7224 201.39 74.4336 200.837 75.4034C200.463 76.1616 200.298 77.0058 200.359 77.8491C200.42 78.6923 200.705 79.504 201.184 80.2005C201.647 81.0104 201.594 81.758 200.819 82.1051H191.332V91.4946C191.393 91.7239 191.507 91.9356 191.665 92.1126C191.823 92.2896 192.021 92.427 192.242 92.5136C192.463 92.6003 192.701 92.6337 192.937 92.6113C193.173 92.5889 193.401 92.5112 193.602 92.3846C195.693 91.0763 198.283 90.7826 199.698 93.2034C200.226 94.1845 200.344 95.335 200.025 96.4027C199.707 97.4704 198.978 98.3682 197.998 98.8994C196.352 99.7894 195.034 99.0685 193.548 98.2675C193.354 98.131 193.129 98.0452 192.893 98.0179C192.658 97.9906 192.419 98.0226 192.199 98.111C191.978 98.1995 191.784 98.3415 191.632 98.5243C191.481 98.707 191.378 98.9247 191.332 99.1575V108.502H197.998H212.3H217.64V99.0774L217.712 98.9795Z" fill="#E6E7E8" stroke="#D1D3D4" stroke-width="0.5" stroke-miterlimit="10" stroke-dasharray="2 2"/>
<path d="M199.707 93.238C198.283 90.8172 195.693 91.1109 193.602 92.4192C193.373 92.562 193.11 92.6411 192.84 92.6481C192.57 92.6551 192.304 92.5899 192.068 92.4592C191.832 92.3284 191.635 92.137 191.498 91.9046C191.36 91.6722 191.288 91.4074 191.288 91.1376V82.38H181.952C181.744 82.4549 181.556 82.5742 181.399 82.7295C181.243 82.8849 181.122 83.0726 181.046 83.2795C180.97 83.4863 180.939 83.7074 180.957 83.9271C180.976 84.1469 181.041 84.36 181.151 84.5516C182.041 86.0201 182.726 87.4708 181.836 89.1173C181.282 90.0829 180.369 90.7909 179.296 91.0875C178.223 91.3841 177.076 91.2454 176.104 90.7015C173.683 89.2775 173.977 86.6876 175.285 84.5961C175.405 84.4038 175.479 84.1871 175.504 83.9621C175.528 83.7371 175.502 83.5094 175.427 83.2959C175.352 83.0824 175.23 82.8885 175.07 82.7284C174.91 82.5684 174.716 82.4462 174.502 82.3711H164.766L164.961 91.7517V108.501H191.288V99.6015C191.289 99.3374 191.359 99.0782 191.492 98.8497C191.624 98.6212 191.814 98.4314 192.043 98.2991C192.271 98.1668 192.531 98.0966 192.795 98.0956C193.059 98.0945 193.319 98.1627 193.548 98.2932C195.026 99.1298 196.476 99.8596 198.123 98.9696C199.09 98.417 199.8 97.5042 200.097 96.4304C200.393 95.3566 200.253 94.2089 199.707 93.238Z" fill="#221F1F"/>
<path d="M217.701 81.8022L217.381 55.9922H217.256L191.055 56.3126L191.161 65.3016C191.164 65.571 191.094 65.8361 190.96 66.0697C190.826 66.3032 190.632 66.4966 190.398 66.63C190.163 66.7634 189.898 66.8318 189.629 66.8283C189.359 66.8247 189.096 66.7493 188.865 66.6099C186.756 65.3372 184.166 65.0702 182.769 67.4999C182.232 68.5189 182.105 69.7043 182.412 70.8141C182.72 71.9239 183.44 72.8744 184.424 73.4718C186.08 74.3618 187.521 73.5964 188.99 72.742C189.194 72.5936 189.435 72.5026 189.687 72.4787C189.938 72.4548 190.192 72.4987 190.421 72.6059C190.65 72.7131 190.846 72.8797 190.989 73.0883C191.131 73.2969 191.216 73.54 191.233 73.7922L191.339 82.6922L200.569 82.5765C200.79 82.513 200.994 82.3997 201.165 82.2454C201.336 82.0911 201.47 81.8997 201.556 81.686C201.641 81.4722 201.677 81.2417 201.66 81.012C201.644 80.7823 201.575 80.5594 201.459 80.3604C200.569 78.8919 199.848 77.459 200.72 75.8036C201.261 74.8266 202.166 74.1033 203.238 73.7915C204.31 73.4797 205.462 73.6047 206.443 74.1393C208.881 75.5277 208.614 78.1265 207.333 80.2358C207.21 80.4395 207.137 80.6693 207.12 80.9064C207.103 81.1436 207.142 81.3815 207.233 81.6008C207.325 81.8202 207.468 82.0148 207.649 82.1688C207.83 82.3229 208.045 82.432 208.276 82.4875L213.839 82.4163H217.541H217.675V81.8022H217.701Z" fill="#D3504F"/>
<path d="M191.296 73.5509C191.251 73.3182 191.149 73.1005 190.999 72.9175C190.849 72.7346 190.655 72.5923 190.435 72.5037C190.215 72.4152 189.977 72.3832 189.742 72.4106C189.507 72.4381 189.282 72.5241 189.089 72.6609C187.611 73.4708 186.294 74.2006 184.639 73.3106C183.661 72.7842 182.932 71.8925 182.61 70.8302C182.289 69.768 182.4 68.6215 182.921 67.6413C184.336 65.2205 186.917 65.5053 189.009 66.8047C189.208 66.9296 189.434 67.0059 189.669 67.0274C189.904 67.0489 190.14 67.015 190.359 66.9284C190.578 66.8418 190.774 66.7049 190.93 66.5288C191.087 66.3528 191.2 66.1424 191.26 65.9147V60.3611V56.6765V56.543H188.27L166.136 56.632H164.979V56.7655V60.1653V66.0927C164.979 66.0927 164.979 66.1639 164.979 66.1906V73.4352C164.979 73.4352 164.979 73.4975 164.979 73.5331V82.887H165.112V82.9582H168.521H174.448C175.338 83.2519 175.249 84.222 174.715 85.0764C173.425 87.1679 173.656 89.8379 176.077 91.253C177.049 91.7938 178.195 91.928 179.266 91.6262C180.337 91.3243 181.244 90.611 181.791 89.6421C182.184 88.9565 182.371 88.1722 182.33 87.383C182.289 86.5938 182.021 85.8331 181.559 85.1921C181.07 84.3466 181.043 83.2074 181.88 82.9048H191.234V79.06L191.296 73.5509Z" fill="#E6E7E8"/>
<path d="M191.234 57.39V56.6335V56.5L190.344 56.5089" stroke="#D1D3D4" stroke-width="0.5" stroke-miterlimit="10"/>
<path d="M188.546 56.5078L188.244 56.5167L167.898 56.5879" stroke="#D1D3D4" stroke-width="0.5" stroke-miterlimit="10" stroke-dasharray="2.02 2.02"/>
<path d="M167.008 56.5938H166.118H164.979V56.7273L164.987 57.4837" stroke="#D1D3D4" stroke-width="0.5" stroke-miterlimit="10"/>
<path d="M164.996 59.375V60.1315V66.0589C164.996 66.0589 164.996 66.1301 164.996 66.1568V73.4014C164.996 73.4014 164.996 73.4637 164.996 73.4993V81.0198" stroke="#D1D3D4" stroke-width="0.5" stroke-miterlimit="10" stroke-dasharray="2.12 2.12"/>
<path d="M165.076 81.9609V82.8509H165.21V82.9221L166.1 82.9132" stroke="#D1D3D4" stroke-width="0.5" stroke-miterlimit="10"/>
<path d="M167.854 82.9128H168.619H174.546C175.436 83.2065 175.347 84.1766 174.813 85.031C173.523 87.1225 173.754 89.7925 176.175 91.2076C177.147 91.7484 178.294 91.8826 179.364 91.5808C180.435 91.2789 181.342 90.5656 181.889 89.5967C182.282 88.9111 182.469 88.1268 182.428 87.3376C182.387 86.5484 182.12 85.7877 181.657 85.1467C181.168 84.3012 181.141 83.162 181.978 82.8594H189.561" stroke="#D1D3D4" stroke-width="0.5" stroke-miterlimit="10" stroke-dasharray="1.97 1.97"/>
<path d="M190.441 82.8236H191.331V81.9336" stroke="#D1D3D4" stroke-width="0.5" stroke-miterlimit="10"/>
<path d="M191.321 79.8698L191.312 78.9798V78.0898" stroke="#D1D3D4" stroke-width="0.5" stroke-miterlimit="10"/>
<path d="M191.305 76.3261V73.5493C191.261 73.3167 191.159 73.0989 191.009 72.916C190.858 72.733 190.664 72.5907 190.445 72.5022C190.225 72.4136 189.987 72.3816 189.751 72.409C189.516 72.4365 189.292 72.5225 189.098 72.6593C187.621 73.4692 186.304 74.199 184.648 73.309C183.671 72.7826 182.942 71.8909 182.62 70.8287C182.298 69.7664 182.41 68.6199 182.93 67.6397C184.346 65.2189 186.927 65.5037 189.018 66.8031C189.218 66.928 189.444 67.0043 189.679 67.0258C189.913 67.0473 190.15 67.0134 190.369 66.9268C190.588 66.8402 190.783 66.7033 190.94 66.5273C191.097 66.3512 191.209 66.1408 191.27 65.9131V60.3595V58.3125" stroke="#D1D3D4" stroke-width="0.5" stroke-miterlimit="10" stroke-dasharray="1.97 1.97"/>
<path d="M226.975 184.223C235.733 185.54 208.908 186.43 186.347 186.413C169.437 186.413 149.803 185.523 154.467 184.081C155.143 183.867 160.919 182.684 177.99 182.684C217.71 182.684 226.272 184.152 226.975 184.223Z" fill="#E0E0E0"/>
<path d="M183.393 136.234C183.393 135.397 183.331 134.561 183.393 133.724C183.456 132.888 183.393 132.078 183.393 131.25C183.393 130.841 183.393 130.431 183.393 130.013C183.393 129.808 183.393 129.595 183.349 129.399C183.354 129.249 183.31 129.103 183.224 128.98H183.171C183.091 129.105 183.054 129.251 183.064 129.399C183.064 129.603 183.064 129.808 183.064 130.013C183.064 130.44 183.064 130.903 183.064 131.303C183.064 132.131 183.127 132.95 183.189 133.778C183.251 134.605 183.287 135.415 183.331 136.234C183.376 137.053 183.385 137.898 183.491 138.717C183.491 138.806 183.66 138.779 183.652 138.717C183.545 137.872 183.429 137.053 183.393 136.234Z" fill="white"/>
<path d="M199.368 128.588C199.304 128.504 199.226 128.431 199.136 128.374C199.061 128.328 198.98 128.292 198.896 128.268C198.813 128.255 198.729 128.255 198.647 128.268C198.599 128.262 198.551 128.267 198.505 128.28C198.459 128.294 198.417 128.317 198.38 128.348C198.365 128.357 198.353 128.371 198.345 128.386C198.336 128.402 198.332 128.419 198.332 128.437C198.332 128.454 198.336 128.472 198.345 128.487C198.353 128.503 198.365 128.516 198.38 128.526H198.442H198.513H198.558H198.611L198.745 128.597L198.843 128.677C198.896 128.677 198.949 128.784 199.012 128.828C199.061 128.845 199.114 128.845 199.163 128.828C199.213 128.824 199.261 128.802 199.296 128.766C199.32 128.743 199.338 128.715 199.351 128.684C199.363 128.654 199.369 128.621 199.368 128.588Z" fill="white"/>
<path d="M198.824 128.73C198.824 128.73 198.834 128.74 198.824 128.73V128.73Z" fill="white"/>
<path d="M216.688 139.961H165.976C165.008 139.961 164.223 140.746 164.223 141.714V179.78C164.223 180.748 165.008 181.533 165.976 181.533H216.688C217.657 181.533 218.441 180.748 218.441 179.78V141.714C218.441 140.746 217.657 139.961 216.688 139.961Z" fill="#929497"/>
<path d="M211.356 144.777H171.306C170.136 144.777 169.188 145.726 169.188 146.896V175.607C169.188 176.777 170.136 177.725 171.306 177.725H211.356C212.526 177.725 213.474 176.777 213.474 175.607V146.896C213.474 145.726 212.526 144.777 211.356 144.777Z" fill="#221F1F" fill-opacity="0.2"/>
<path d="M170.471 181.445H167.089C166.238 181.445 165.549 182.135 165.549 182.985V182.994C165.549 183.844 166.238 184.534 167.089 184.534H170.471C171.321 184.534 172.01 183.844 172.01 182.994V182.985C172.01 182.135 171.321 181.445 170.471 181.445Z" fill="#929497"/>
<path d="M170.968 181.988C170.456 181.764 169.897 181.667 169.339 181.704C168.746 181.667 168.152 181.667 167.559 181.704C167.044 181.705 166.546 181.888 166.153 182.22C165.965 182.379 165.841 182.601 165.803 182.845C165.765 183.088 165.817 183.337 165.948 183.546C165.993 183.588 166.047 183.618 166.106 183.633C166.166 183.648 166.228 183.647 166.287 183.631C166.346 183.615 166.4 183.584 166.444 183.541C166.487 183.498 166.519 183.445 166.536 183.386C166.539 183.235 166.56 183.086 166.598 182.941C166.674 182.791 166.804 182.676 166.963 182.62C167.34 182.501 167.734 182.444 168.129 182.451C168.583 182.451 169.019 182.407 169.482 182.398C169.953 182.443 170.429 182.407 170.888 182.291C170.917 182.281 170.944 182.264 170.965 182.242C170.986 182.219 171.002 182.191 171.01 182.161C171.018 182.131 171.018 182.1 171.011 182.07C171.003 182.039 170.989 182.012 170.968 181.988Z" fill="#221F1F" fill-opacity="0.2"/>
<path d="M215.166 181.445H211.784C210.933 181.445 210.244 182.135 210.244 182.985V182.994C210.244 183.844 210.933 184.534 211.784 184.534H215.166C216.016 184.534 216.706 183.844 216.706 182.994V182.985C216.706 182.135 216.016 181.445 215.166 181.445Z" fill="#929497"/>
<path d="M215.664 181.987C215.152 181.763 214.594 181.666 214.036 181.702C213.458 181.667 212.878 181.667 212.3 181.702C211.785 181.701 211.286 181.884 210.894 182.219C210.704 182.377 210.579 182.599 210.541 182.843C210.503 183.087 210.556 183.337 210.689 183.545C210.733 183.587 210.787 183.618 210.845 183.633C210.904 183.648 210.966 183.647 211.025 183.631C211.083 183.615 211.137 183.584 211.179 183.54C211.222 183.497 211.252 183.443 211.268 183.385C211.279 183.234 211.302 183.086 211.339 182.94C211.413 182.792 211.54 182.678 211.695 182.619C212.072 182.502 212.466 182.444 212.861 182.45C213.312 182.45 213.766 182.432 214.223 182.397C214.691 182.442 215.164 182.406 215.62 182.29C215.647 182.276 215.67 182.257 215.687 182.232C215.705 182.208 215.716 182.18 215.721 182.15C215.725 182.12 215.722 182.09 215.712 182.062C215.703 182.033 215.686 182.008 215.664 181.987Z" fill="#221F1F" fill-opacity="0.2"/>
<path d="M191.135 149.617H173.736C173.077 149.617 172.543 150.151 172.543 150.81V157.093C172.543 157.752 173.077 158.286 173.736 158.286H191.135C191.794 158.286 192.328 157.752 192.328 157.093V150.81C192.328 150.151 191.794 149.617 191.135 149.617Z" fill="#929497"/>
<path d="M196.867 151.674C196.867 151.207 196.488 150.828 196.021 150.828C195.554 150.828 195.176 151.207 195.176 151.674C195.176 152.141 195.554 152.519 196.021 152.519C196.488 152.519 196.867 152.141 196.867 151.674Z" fill="#929497"/>
<path d="M199.341 151.674C199.341 151.207 198.963 150.828 198.496 150.828C198.029 150.828 197.65 151.207 197.65 151.674C197.65 152.141 198.029 152.519 198.496 152.519C198.963 152.519 199.341 152.141 199.341 151.674Z" fill="#929497"/>
<path d="M201.816 151.674C201.816 151.207 201.437 150.828 200.97 150.828C200.504 150.828 200.125 151.207 200.125 151.674C200.125 152.141 200.504 152.519 200.97 152.519C201.437 152.519 201.816 152.141 201.816 151.674Z" fill="#929497"/>
<path d="M196.867 154.115C196.867 153.648 196.488 153.27 196.021 153.27C195.554 153.27 195.176 153.648 195.176 154.115C195.176 154.582 195.554 154.961 196.021 154.961C196.488 154.961 196.867 154.582 196.867 154.115Z" fill="#929497"/>
<path d="M199.341 154.095C199.341 153.629 198.963 153.25 198.496 153.25C198.029 153.25 197.65 153.629 197.65 154.095C197.65 154.562 198.029 154.941 198.496 154.941C198.963 154.941 199.341 154.562 199.341 154.095Z" fill="#929497"/>
<path d="M201.816 154.095C201.816 153.629 201.437 153.25 200.97 153.25C200.504 153.25 200.125 153.629 200.125 154.095C200.125 154.562 200.504 154.941 200.97 154.941C201.437 154.941 201.816 154.562 201.816 154.095Z" fill="#929497"/>
<path d="M196.867 156.775C196.867 156.308 196.488 155.93 196.021 155.93C195.554 155.93 195.176 156.308 195.176 156.775C195.176 157.242 195.554 157.621 196.021 157.621C196.488 157.621 196.867 157.242 196.867 156.775Z" fill="#929497"/>
<path d="M199.341 156.775C199.341 156.308 198.963 155.93 198.496 155.93C198.029 155.93 197.65 156.308 197.65 156.775C197.65 157.242 198.029 157.621 198.496 157.621C198.963 157.621 199.341 157.242 199.341 156.775Z" fill="#929497"/>
<path d="M201.816 156.775C201.816 156.308 201.437 155.93 200.97 155.93C200.504 155.93 200.125 156.308 200.125 156.775C200.125 157.242 200.504 157.621 200.97 157.621C201.437 157.621 201.816 157.242 201.816 156.775Z" fill="#929497"/>
<path d="M206.916 157.218C208.503 157.218 209.79 155.931 209.79 154.343C209.79 152.756 208.503 151.469 206.916 151.469C205.328 151.469 204.041 152.756 204.041 154.343C204.041 155.931 205.328 157.218 206.916 157.218Z" fill="#929497"/>
<path d="M206.916 156.597C208.159 156.597 209.167 155.589 209.167 154.345C209.167 153.102 208.159 152.094 206.916 152.094C205.672 152.094 204.664 153.102 204.664 154.345C204.664 155.589 205.672 156.597 206.916 156.597Z" fill="#221F1F"/>
<path d="M261.766 195.115C261.656 194.905 261.495 194.725 261.297 194.594C261.099 194.462 260.871 194.382 260.634 194.362C260.398 194.341 260.16 194.381 259.942 194.477C259.725 194.573 259.535 194.722 259.39 194.91C258.224 196.13 257.192 197.216 255.358 196.868C254.267 196.661 253.301 196.03 252.674 195.112C252.047 194.195 251.809 193.066 252.012 191.973C252.626 189.25 255.172 188.743 257.557 189.303C257.787 189.362 258.027 189.364 258.259 189.312C258.49 189.259 258.706 189.152 258.888 189.001C259.07 188.849 259.214 188.656 259.307 188.438C259.401 188.22 259.441 187.983 259.426 187.746L257.744 182.459L256.613 178.953V178.828L253.765 179.718L232.69 186.464L231.613 186.811V186.936L232.646 190.176L234.426 195.827C234.43 195.863 234.43 195.898 234.426 195.934L236.633 202.831L236.704 202.903L239.552 211.803H239.677V211.874L242.916 210.833L248.568 209.053C249.458 209.053 249.707 210.023 249.458 210.993C248.861 213.378 249.885 215.861 252.608 216.475C253.7 216.699 254.835 216.482 255.767 215.872C256.7 215.262 257.352 214.308 257.583 213.218C257.749 212.45 257.69 211.651 257.414 210.915C257.138 210.18 256.656 209.539 256.026 209.07C255.305 208.412 254.94 207.335 255.643 206.792L264.543 203.935L263.368 200.277L261.766 195.115Z" fill="#EBB043"/>
</svg>
