<svg width="422" height="400" viewBox="0 0 422 400" fill="none" xmlns="http://www.w3.org/2000/svg">
<path d="M9.20508 -33.5938L88.247 19.7959V107.355L256.405 223.897V253.496L385.04 341.055L384.653 394.099" stroke="#FEFEFE" stroke-opacity="0.1"/>
<path d="M255.89 394.098L255.733 368.372V338.817L87.7161 222.445V135.011L1.08594 76.5325V48.7964H403.6" stroke="#FEFEFE" stroke-opacity="0.1"/>
<path d="M135.645 -36.3711L213.213 18.1333V105.809L382.408 222.578L382.072 251.4L407.081 268.198" stroke="#FEFEFE" stroke-opacity="0.1"/>
<path d="M263.242 -34.52L341.898 18.9293V106.586L421 161.737" stroke="#FEFEFE" stroke-opacity="0.1"/>
<path d="M164.405 393.173L86.9406 339.751V252.119L2.24609 193.509V165.44H403.6" stroke="#FEFEFE" stroke-opacity="0.1"/>
<path d="M403.601 283.01H5.72656L46.7373 312.197L45.1469 370.018L78.3661 394.099" stroke="#FEFEFE" stroke-opacity="0.1"/>
<path d="M87.7657 222.798H3.14844V311.734L87.7657 370.938V393.774" stroke="#FEFEFE" stroke-opacity="0.1"/>
<path d="M3.14844 166.19L44.3827 195.792V253.762L87.7657 282.749" stroke="#FEFEFE" stroke-opacity="0.1"/>
<path d="M215.065 399L171.682 370.015V312.043L131.195 283.444" stroke="#FEFEFE" stroke-opacity="0.1"/>
<path d="M1 47.1631L44.3829 76.7651V134.737L87.7659 165.431" stroke="#FEFEFE" stroke-opacity="0.1"/>
<path d="M127.523 46.02L170.943 76.6074L170.48 134.782L214.522 163.589" stroke="#FEFEFE" stroke-opacity="0.1"/>
<path d="M88.084 -41L129.558 -11.2564L129.103 76.1312L171.603 107.119" stroke="#FEFEFE" stroke-opacity="0.1"/>
<path d="M171.604 106.388L214.97 135.962V193.879L256.188 222.836L340.961 222.188V135.895L256.703 76.2677V-10.9517L222.457 -34.52" stroke="#FEFEFE" stroke-opacity="0.1"/>
<path d="M1.08594 19.1733L130.408 106.215V164.306L171.604 195.064" stroke="#FEFEFE" stroke-opacity="0.1"/>
<path d="M171.604 194.138V252.199L215.207 282.941V340.963L289.922 394.099" stroke="#FEFEFE" stroke-opacity="0.1"/>
<path d="M255.121 46.9448L298.827 76.4863L299.113 135.499L342.12 165.44" stroke="#FEFEFE" stroke-opacity="0.1"/>
<path d="M258.602 166.367L299.8 195.263L299.3 254.002L342.12 283.01" stroke="#FEFEFE" stroke-opacity="0.1"/>
<path d="M215.683 282.084V253.411L131.004 194.237L131.088 163.589" stroke="#FEFEFE" stroke-opacity="0.1"/>
<path d="M256.283 134.891L256.511 193.969L342.631 253.432V340.375L403.601 382.064" stroke="#FEFEFE" stroke-opacity="0.1"/>
<path d="M342.12 107.118H255.121V135.816" stroke="#FEFEFE" stroke-opacity="0.1"/>
<path d="M255.121 222.837V311.965L342.12 370.878V394.099" stroke="#FEFEFE" stroke-opacity="0.1"/>
<path d="M212.202 107.119H127.523" stroke="#FEFEFE" stroke-opacity="0.1"/>
<path d="M213.362 340.406H128.684V392.248" stroke="#FEFEFE" stroke-opacity="0.1"/>
<path d="M88.0847 340.406H1.08594V392.248" stroke="#FEFEFE" stroke-opacity="0.1"/>
<path d="M342.12 340.406H255.121" stroke="#FEFEFE" stroke-opacity="0.1"/>
<path d="M1.08594 47.8715V-11.376H44.5318L44.1289 18.8166L85.7647 47.0162" stroke="#FEFEFE" stroke-opacity="0.1"/>
<path d="M127.523 47.0173V-10.4502H170.969L170.566 19.7076L212.202 47.8716" stroke="#FEFEFE" stroke-opacity="0.1"/>
<path d="M256.283 -10.4502H298.823L298.435 18.7098L340.962 47.8716" stroke="#FEFEFE" stroke-opacity="0.1"/>
<path d="M299.201 195.065H341.101L340.698 223.609L383.88 253.387" stroke="#FEFEFE" stroke-opacity="0.1"/>
<path d="M215.674 195.065L215.683 223.763L131.004 222.929" stroke="#FEFEFE" stroke-opacity="0.1"/>
<path d="M2.24609 252.46L129.844 339.48" stroke="#FEFEFE" stroke-opacity="0.1"/>
<path d="M86.9238 -10.4502L255.121 107.119" stroke="#FEFEFE" stroke-opacity="0.1"/>
<path d="M214.523 -11.376L382.807 106.348V194.095L403.601 209.876" stroke="#FEFEFE" stroke-opacity="0.1"/>
<path d="M339.801 -11.376L407.08 34.9111" stroke="#FEFEFE" stroke-opacity="0.1"/>
<path d="M214.523 223.762L280.643 270.975" stroke="#FEFEFE" stroke-opacity="0.1"/>
<path d="M347.92 -33.5938L381.908 -9.48803V78.4405L403.599 92.3073" stroke="#FEFEFE" stroke-opacity="0.1"/>
<path d="M403.601 340.406H385.041" stroke="#FEFEFE" stroke-opacity="0.1"/>
<path d="M403.6 106.193H382.721" stroke="#FEFEFE" stroke-opacity="0.1"/>
</svg>
