<svg width="280" height="299" viewBox="0 0 280 299" fill="none" xmlns="http://www.w3.org/2000/svg">
<path d="M242.506 282.43C242.506 288.749 194.922 287.83 119.246 296.103C48.8456 303.801 0 289.783 0 283.463C0 277.144 28.78 271.055 104.799 271.055C180.819 271.055 242.506 276.11 242.506 282.43Z" fill="#E0E0E0"/>
<path d="M264.292 46.8807C221.753 -8.04254 140.344 8.04386 95.6275 50.3279C74.3003 70.4351 60.4267 99.8503 58.4771 128.69C52.9731 140.755 51.2531 154.199 55.1523 167.872C64.2107 199.47 95.0539 219.233 126.241 222.565C156.741 225.782 187.47 214.981 214.759 202.228C241.819 189.589 264.178 167.872 273.695 139.146C283.211 109.961 283.555 71.6991 264.292 46.8807Z" fill="#F7F7F7"/>
<path d="M127.042 274.386H34.053C22.8162 274.386 13.7578 265.308 13.7578 254.048V20.3376C13.7586 9.0776 22.9306 0 34.053 0H127.042C138.279 0 147.337 9.0776 147.337 20.3376V254.048C147.337 265.308 138.164 274.386 127.042 274.386Z" fill="#263238"/>
<path d="M127.042 8.27344H108.926C106.518 8.27344 104.568 10.3414 104.568 12.8694V16.2014C104.568 18.7294 102.62 20.7974 100.212 20.7974H65.0116C62.6036 20.7974 60.654 18.7294 60.654 16.2014V12.8694C60.654 10.3414 58.7044 8.27344 56.2972 8.27344H34.166C26.37 8.27344 19.9492 14.5934 19.9492 22.5214V250.601C19.9492 258.415 26.2548 264.849 34.1668 264.849H127.041C134.838 264.849 141.259 258.529 141.259 250.601V22.5214C141.144 14.7078 134.838 8.27344 127.041 8.27344H127.042Z" fill="white"/>
<path d="M129.795 31.3683C129.795 31.4835 127.501 31.4835 124.52 31.4835C121.653 31.4835 119.246 31.4835 119.246 31.3683C119.246 31.2539 121.539 31.2539 124.52 31.2539C127.387 31.2539 129.795 31.2539 129.795 31.3683ZM129.795 34.0115C129.795 34.1259 127.501 34.1259 124.52 34.1259C121.653 34.1259 119.246 34.1259 119.246 34.0115C119.246 33.8963 121.539 33.8963 124.52 33.8963C127.387 33.8963 129.795 34.0115 129.795 34.0115ZM129.795 36.7683C129.795 36.8835 127.501 36.8835 124.52 36.8835C121.653 36.8835 119.246 36.8835 119.246 36.7691C119.246 36.6539 121.539 36.6539 124.52 36.6539C127.387 36.6539 129.795 36.6539 129.795 36.7691V36.7683Z" fill="#263238"/>
<path d="M56.0696 86.8672H34.3984V108.584H56.0696V86.8672ZM97.6904 89.1656C97.6904 89.28 90.4672 89.3952 81.5232 89.3952C72.5792 89.3952 65.356 89.28 65.356 89.1656C65.356 89.0504 72.58 88.9352 81.5232 88.9352C90.4672 89.0504 97.6904 89.0504 97.6904 89.1656Z" fill="#E7515B"/>
<path d="M123.489 95.8273C123.489 95.9425 110.418 96.0569 94.3654 96.0569C78.3134 96.0569 65.2422 95.9425 65.2422 95.8273C65.2422 95.7121 78.3134 95.5977 94.3654 95.5977C110.533 95.7121 123.489 95.7121 123.489 95.8273ZM122.801 100.654C122.801 100.768 109.96 100.883 94.0214 100.883C78.199 100.883 65.2422 100.768 65.2422 100.654C65.2422 100.538 78.0838 100.423 94.0214 100.423C109.96 100.423 122.801 100.538 122.801 100.654ZM99.2958 105.134C99.2958 105.249 91.7278 105.364 82.3254 105.364C72.9238 105.364 65.3558 105.249 65.3558 105.134C65.3558 105.019 72.9238 104.905 82.3254 104.905C91.7278 104.905 99.2958 105.019 99.2958 105.134Z" fill="#263238"/>
<path d="M56.0696 123.059H34.3984V144.775H56.0696V123.059ZM97.6904 125.356C97.6904 125.471 90.4672 125.587 81.5232 125.587C72.5792 125.587 65.356 125.471 65.356 125.356C65.356 125.242 72.58 125.127 81.5232 125.127C90.4672 125.127 97.6904 125.242 97.6904 125.356Z" fill="#E7515B"/>
<path d="M123.489 132.023C123.489 132.138 110.418 132.253 94.3654 132.253C78.3134 132.253 65.2422 132.138 65.2422 132.023C65.2422 131.908 78.3134 131.793 94.3654 131.793C110.533 131.793 123.489 131.908 123.489 132.023ZM122.801 136.734C122.801 136.849 109.96 136.964 94.0214 136.964C78.199 136.964 65.2422 136.849 65.2422 136.734C65.2422 136.619 78.0838 136.504 94.0214 136.504C109.96 136.619 122.801 136.619 122.801 136.734ZM99.2958 141.331C99.2958 141.445 91.7278 141.56 82.3254 141.56C72.9238 141.56 65.3558 141.445 65.3558 141.331C65.3558 141.215 72.9238 141.1 82.3254 141.1C91.7278 141.1 99.2958 141.215 99.2958 141.331Z" fill="#263238"/>
<path d="M56.0696 159.141H34.3984V180.857H56.0696V159.141ZM97.6904 161.553C97.6904 161.668 90.4672 161.783 81.5232 161.783C72.5792 161.783 65.356 161.668 65.356 161.553C65.356 161.438 72.58 161.324 81.5232 161.324C90.4672 161.324 97.6904 161.438 97.6904 161.553Z" fill="#E7515B"/>
<path d="M123.489 168.218C123.489 168.333 110.418 168.447 94.3654 168.447C78.3134 168.447 65.2422 168.333 65.2422 168.218C65.2422 168.103 78.3134 167.988 94.3654 167.988C110.533 167.988 123.489 168.103 123.489 168.218ZM122.801 172.929C122.801 173.043 109.96 173.159 94.0214 173.159C78.199 173.159 65.2422 173.043 65.2422 172.929C65.2422 172.814 78.0838 172.699 94.0214 172.699C109.96 172.699 122.801 172.814 122.801 172.929ZM99.2958 177.41C99.2958 177.525 91.7278 177.64 82.3254 177.64C72.9238 177.64 65.3558 177.525 65.3558 177.41C65.3558 177.295 72.9238 177.18 82.3254 177.18C91.7278 177.295 99.2958 177.41 99.2958 177.41Z" fill="#263238"/>
<path d="M56.0696 195.332H34.3984V217.049H56.0696V195.332Z" fill="#E7515B"/>
<path d="M97.6899 197.632C97.6899 197.747 90.4667 197.862 81.5227 197.862C72.5787 197.862 65.3555 197.747 65.3555 197.632C65.3555 197.517 72.5795 197.402 81.5227 197.402C90.4667 197.517 97.6899 197.632 97.6899 197.632Z" fill="#455B64"/>
<path d="M123.489 204.296C123.489 204.411 110.418 204.526 94.3654 204.526C78.3134 204.526 65.2422 204.411 65.2422 204.296C65.2422 204.182 78.3134 204.066 94.3654 204.066C110.533 204.182 123.489 204.182 123.489 204.296ZM122.801 209.122C122.801 209.237 109.96 209.352 94.0214 209.352C78.199 209.352 65.2422 209.237 65.2422 209.122C65.2422 209.007 78.0838 208.893 94.0214 208.893C109.96 208.893 122.801 209.007 122.801 209.122ZM99.2958 213.603C99.2958 213.718 91.7278 213.833 82.3254 213.833C72.9238 213.833 65.3558 213.718 65.3558 213.603C65.3558 213.488 72.9238 213.374 82.3254 213.374C91.7278 213.488 99.2958 213.488 99.2958 213.603Z" fill="#263238"/>
<path d="M56.0696 231.527H34.3984V253.243H56.0696V231.527ZM97.6904 233.825C97.6904 233.94 90.4672 234.055 81.5232 234.055C72.5792 234.055 65.356 233.94 65.356 233.825C65.356 233.711 72.58 233.595 81.5232 233.595C90.4672 233.711 97.6904 233.711 97.6904 233.825Z" fill="#E0E0E0"/>
<path d="M123.489 240.488C123.489 240.603 110.418 240.718 94.3654 240.718C78.3134 240.718 65.2422 240.603 65.2422 240.488C65.2422 240.373 78.3134 240.258 94.3654 240.258C110.533 240.258 123.489 240.373 123.489 240.488ZM122.801 245.199C122.801 245.314 109.96 245.429 94.0214 245.429C78.199 245.429 65.2422 245.314 65.2422 245.199C65.2422 245.084 78.0838 244.969 94.0214 244.969C109.96 245.084 122.801 245.199 122.801 245.199ZM99.2958 249.795C99.2958 249.91 91.7278 250.025 82.3254 250.025C72.9238 250.025 65.3558 249.91 65.3558 249.795C65.3558 249.68 72.9238 249.565 82.3254 249.565C91.7278 249.565 99.2958 249.68 99.2958 249.795Z" fill="#EBEBEB"/>
<path opacity="0.3" d="M56.0696 195.331H34.3984V217.048H56.0696V195.331ZM56.0696 123.059H34.3984V144.775H56.0696V123.059Z" fill="black"/>
<path d="M128.534 266.918C128.534 266.918 119.935 268.756 112.138 267.608C104.914 266.573 88.6323 267.608 88.7467 277.259C88.7467 287.945 110.418 285.302 118.788 283.579C127.273 281.856 135.643 280.361 135.643 280.361L128.534 266.918Z" fill="#CED0D0"/>
<path opacity="0.4" d="M125.898 267.377L131.402 281.166L135.645 280.361L127.504 266.918L125.898 267.377Z" fill="black"/>
<path d="M207.419 135.93C207.419 135.93 201.113 133.517 194.234 153.625C194.234 153.625 181.392 190.623 179.442 204.526C177.034 221.532 198.018 213.144 198.018 213.144L207.419 135.93Z" fill="#C2526D"/>
<path d="M186.211 233.365L198.25 206.478L191.256 183.383C189.192 176.374 189.65 168.79 192.632 162.126L204.327 136.963L212.468 132.711L231.845 129.379C232.533 129.609 245.605 134.435 249.847 135.929C258.332 139.031 263.033 146.614 263.033 146.614L243.082 204.755C243.082 204.755 256.612 234.399 254.892 247.957L186.211 233.365Z" fill="#D95D7B"/>
<path opacity="0.3" d="M240.788 175.684C239.298 181.544 237.807 187.404 236.316 193.148C236.087 194.183 235.743 195.447 234.711 196.021C234.023 196.481 233.22 196.481 232.532 196.481C225.195 196.825 217.856 197.17 210.632 197.515C209.371 197.63 208.11 197.63 206.963 198.089C205.817 198.549 204.785 199.353 204.326 200.502C203.753 202.34 205.014 204.294 206.275 205.903C217.283 219.001 235.284 227.275 252.254 229.113L243.311 203.604L246.291 188.668L240.788 175.684Z" fill="black"/>
<path d="M191.712 182.004C191.712 182.004 191.712 181.89 191.598 181.775C191.483 181.545 191.368 181.315 191.254 180.971C191.024 180.281 190.795 179.132 190.68 177.753C190.451 174.995 191.024 171.203 192.744 167.412C193.203 166.493 193.662 165.574 194.235 164.769L195.611 162.356C196.528 160.747 197.101 159.254 197.56 157.99C198.019 156.726 198.248 155.692 198.477 154.887C198.592 154.543 198.707 154.313 198.707 154.083C198.821 153.854 198.821 153.739 198.821 153.854V154.198C198.821 154.428 198.707 154.658 198.592 155.003C198.363 155.692 198.133 156.841 197.675 158.105C197.216 159.369 196.643 160.977 195.84 162.471L194.464 164.884C194.006 165.688 193.432 166.607 192.974 167.527C191.139 171.319 190.68 175.111 190.795 177.753C190.91 179.132 191.139 180.166 191.254 180.971C191.598 181.545 191.712 182.004 191.712 182.004ZM191.482 182.464L184.373 169.366H162.817L162.129 170.629L180.475 201.079L201.114 202.112L191.482 182.464Z" fill="#263238"/>
<path d="M190.794 183.728L183.685 170.629H162.129L179.786 202.457L200.426 203.376L190.794 183.728Z" fill="#455B64"/>
<path d="M173.137 176.143C173.596 176.488 174.284 176.488 174.628 176.029C174.972 175.569 174.972 174.88 174.513 174.535C174.054 174.19 173.366 174.19 173.022 174.649C172.564 175.109 172.678 175.799 173.137 176.143Z" fill="#EBEBEB"/>
<path d="M265.095 193.608V212.682C265.095 216.818 263.489 220.84 260.623 223.483C257.183 226.7 252.482 227.504 248.354 225.551L204.324 203.145L208.223 193.493L247.322 205.788L246.863 193.148L265.095 193.608Z" fill="#A96050"/>
<path d="M209.37 193.725L205.243 184.993C202.95 182.235 202.032 179.478 198.478 179.478H195.497L193.433 181.775C193.433 181.775 178.871 182.465 178.298 184.188V185.107L190.796 185.912H179.559C178.871 185.912 176.578 185.682 176.693 186.946C176.693 187.98 177.954 188.785 179.788 189.014C180.591 189.129 189.764 189.934 189.764 189.934C189.764 189.934 180.132 189.818 179.674 189.818C178.527 189.818 178.642 191.657 179.33 191.886C179.903 192.117 192.859 195.908 192.859 195.908C192.859 195.908 190.681 197.402 188.846 197.287C187.012 197.172 184.03 194.874 183.342 195.908C182.654 196.942 182.884 197.632 183.228 197.862C183.572 198.091 187.814 200.274 189.19 200.619C190.566 200.964 202.032 202.802 202.032 202.802L206.16 203.492L209.37 193.725ZM165.112 175.801C165.112 175.801 162.819 176.605 163.966 179.478C165.686 183.729 168.552 186.716 168.552 186.716C168.552 186.716 168.208 188.21 169.47 189.359C169.47 189.359 167.864 189.704 168.896 192.462C168.896 192.462 167.75 195.219 170.846 196.483C170.846 196.483 170.042 198.781 172.909 199.93C175.775 201.079 178.642 199.126 178.642 199.126L165.112 175.801Z" fill="#A96050"/>
<path d="M169.699 186.484C171.763 187.059 174.057 187.519 175.891 188.208C176.465 188.438 177.152 188.438 177.496 189.012C177.955 189.587 177.955 190.392 177.496 190.851C177.038 191.311 176.465 191.311 175.777 191.196C173.598 190.966 171.535 190.161 169.355 189.472" fill="#A96050"/>
<path d="M170.614 189.934C172.678 190.508 174.97 190.968 176.805 191.657C177.378 191.887 178.066 191.887 178.41 192.462C178.869 193.036 178.869 193.84 178.41 194.3C177.952 194.759 177.378 194.759 176.69 194.645C174.512 194.414 172.448 193.61 170.27 192.921" fill="#A96050"/>
<path d="M171.762 193.496C173.826 194.071 176.12 194.53 177.954 195.22C178.528 195.45 179.216 195.45 179.56 196.024C180.018 196.598 180.018 197.403 179.56 197.862C179.1 198.322 178.528 198.322 177.84 198.207C175.661 197.978 173.597 197.173 171.418 196.484" fill="#A96050"/>
<path d="M150.78 247.039C150.665 247.154 143.785 242.099 135.301 235.779C126.816 229.459 120.051 224.288 120.165 224.174C120.28 224.059 127.16 229.115 135.645 235.434C144.129 241.754 150.894 246.924 150.78 247.039Z" fill="#455B64"/>
<path d="M253.859 248.071L232.991 230.836C230.697 217.967 218.888 208.431 205.243 209.695C200.084 210.154 195.153 212.222 191.255 215.439L179.101 224.976C160.297 219.806 154.449 214.865 139.773 210.728C133.81 209.005 127.274 210.039 122.114 213.371L121.886 213.601C114.203 218.542 131.058 246.923 140.919 252.897L127.045 265.996L135.759 280.359L153.761 274.843C165.915 273.12 191.599 269.788 191.599 269.788L184.261 265.422L185.981 264.847C199.969 276.797 217.053 282.312 238.265 273.005C248.585 268.064 255.121 256.23 253.859 248.071Z" fill="#8B383F"/>
<path d="M218.083 246.118C218.083 246.118 218.083 246.233 217.968 246.233C217.854 246.349 217.624 246.463 217.395 246.694C216.936 247.038 216.248 247.613 215.331 248.301C214.872 248.646 214.414 249.106 213.84 249.451C213.267 249.91 212.694 250.255 212.006 250.715C211.318 251.174 210.63 251.634 209.827 252.209C209.483 252.438 209.025 252.783 208.681 253.013C208.222 253.242 207.878 253.473 207.419 253.817C205.699 254.851 203.751 256.115 201.687 257.149C200.655 257.724 199.508 258.298 198.361 258.873C197.215 259.447 196.068 260.022 194.807 260.597C189.876 262.779 184.373 265.078 178.525 267.031C166.83 271.053 155.937 274.04 148.14 276.337C146.191 276.913 144.471 277.487 142.866 277.946C141.375 278.406 139.999 278.866 138.967 279.21C137.935 279.555 137.133 279.785 136.445 280.015C136.215 280.129 135.986 280.13 135.757 280.245C135.642 280.245 135.527 280.359 135.527 280.245C135.527 280.245 135.642 280.245 135.757 280.129C135.871 280.015 136.101 280.015 136.445 279.9C137.018 279.67 137.821 279.44 138.967 278.981C139.999 278.636 141.375 278.176 142.866 277.601C144.356 277.142 146.191 276.568 148.14 275.994C155.937 273.58 166.715 270.593 178.525 266.571C184.373 264.617 189.876 262.32 194.807 260.137C196.068 259.562 197.215 258.988 198.361 258.414C199.508 257.838 200.539 257.264 201.687 256.69C203.865 255.656 205.699 254.392 207.419 253.473C207.878 253.242 208.337 253.013 208.681 252.668C209.139 252.438 209.483 252.093 209.827 251.864C210.63 251.404 211.318 250.829 212.006 250.37C212.694 249.91 213.267 249.565 213.84 249.106C214.414 248.646 214.872 248.301 215.331 247.957C216.248 247.268 216.936 246.808 217.395 246.349C217.624 246.234 217.854 246.004 217.968 246.004L218.083 246.118Z" fill="#BA7E7E"/>
<path d="M219.69 252.783L219.002 253.128C218.544 253.357 217.971 253.587 217.168 253.817C215.563 254.392 213.385 255.081 210.862 255.655C208.339 256.23 206.046 256.46 204.326 256.574C203.524 256.574 202.836 256.689 202.377 256.689H201.689C201.689 256.574 202.721 256.574 204.326 256.345C205.931 256.115 208.225 255.885 210.747 255.311C213.27 254.736 215.448 254.161 217.054 253.587C218.658 253.128 219.69 252.783 219.69 252.783ZM188.618 217.852C188.732 217.968 174.973 228.769 157.889 242.097C140.804 255.425 126.93 266.111 126.93 265.997C126.816 265.881 140.575 255.081 157.659 241.752C174.629 228.424 188.503 217.737 188.618 217.852ZM238.151 264.388V263.929V262.665C238.151 261.516 238.037 259.907 238.037 257.953C237.807 253.932 237.349 248.532 236.202 242.557C235.055 236.581 233.565 231.296 232.303 227.504C231.73 225.666 231.157 224.057 230.698 223.023C230.469 222.564 230.354 222.104 230.24 221.759C230.125 221.529 230.125 221.3 230.125 221.3C230.125 221.3 230.24 221.415 230.354 221.645C230.469 221.989 230.698 222.334 230.813 222.793C231.272 223.828 231.845 225.321 232.533 227.16C233.909 230.952 235.399 236.237 236.546 242.212C237.693 248.187 238.151 253.702 238.266 257.724V263.698C238.151 264.158 238.151 264.388 238.151 264.388Z" fill="#BA7E7E"/>
<path d="M185.062 264.158C185.062 264.158 185.176 264.158 185.29 264.273C185.406 264.387 185.634 264.503 185.75 264.732C186.208 265.077 186.782 265.651 187.584 266.341C189.304 267.719 191.712 269.558 195.151 271.396C198.477 273.235 202.834 274.959 207.764 276.107C208.338 276.223 209.026 276.337 209.598 276.452C210.286 276.567 210.86 276.682 211.548 276.797C212.924 276.912 214.185 277.142 215.561 277.142C218.313 277.371 221.179 277.256 224.046 276.912C224.734 276.797 225.536 276.682 226.224 276.567C226.912 276.452 227.6 276.223 228.288 276.107C229.664 275.878 231.04 275.418 232.302 274.959C234.938 274.039 237.346 273.005 239.525 271.741C243.997 269.214 247.322 265.881 249.386 262.664C251.564 259.447 252.596 256.459 253.054 254.391C253.284 253.357 253.398 252.553 253.514 251.978C253.514 251.748 253.514 251.519 253.628 251.289V251.059V251.978C253.628 252.553 253.514 253.357 253.284 254.506C252.826 256.575 251.908 259.676 249.73 262.894C247.666 266.111 244.226 269.558 239.754 272.086C237.576 273.35 235.053 274.499 232.416 275.303C231.04 275.763 229.664 276.107 228.288 276.452C227.6 276.567 226.912 276.797 226.11 276.912C225.422 277.027 224.619 277.142 223.931 277.256C220.95 277.601 218.083 277.716 215.332 277.487C213.956 277.487 212.58 277.256 211.204 277.027C210.516 276.912 209.942 276.797 209.254 276.682C208.566 276.567 207.994 276.452 207.306 276.337C202.26 275.188 198.018 273.35 194.693 271.511C191.253 269.558 188.845 267.719 187.126 266.226C186.322 265.536 185.75 264.962 185.29 264.503L184.832 264.043L185.062 264.158Z" fill="#BA7E7E"/>
<path d="M216.248 264.732C212.235 263.697 180.245 264.732 173.48 266.915C171.53 267.489 169.811 268.753 168.893 270.592C166.371 275.188 170.155 279.439 174.053 281.852C180.933 286.104 212.349 282.541 218.197 278.175C221.752 275.417 222.669 270.132 219.573 266.8C218.656 265.766 217.51 265.077 216.248 264.732Z" fill="#BFC0C1"/>
<path opacity="0.4" d="M216.938 267.723C198.248 268.067 180.935 267.723 174.17 269.906C172.22 270.48 170.5 271.744 169.584 273.583C169.01 274.617 168.781 275.651 168.781 276.571C169.812 278.754 171.876 280.477 174.056 281.741C180.935 285.992 212.352 282.431 218.2 278.064C220.378 276.455 221.524 273.813 221.41 271.399C221.066 270.825 220.722 270.251 220.264 269.791C219.46 268.757 218.314 268.067 216.938 267.723Z" fill="black"/>
<path d="M227.714 115.132C227.83 114.558 228.288 114.099 228.747 113.868C228.747 113.639 228.632 113.409 228.632 113.18C228.174 112.375 227.944 111.341 228.402 110.422C228.746 109.617 229.434 109.043 230.238 108.813C230.008 108.468 229.894 108.008 229.894 107.664C229.778 107.549 229.55 107.434 229.434 107.204C228.976 106.515 228.976 105.711 228.976 104.906C228.976 103.298 229.664 101.689 231.154 100.884C231.498 100.655 231.957 100.54 232.416 100.54H232.989C234.48 100.655 235.512 101.919 235.971 103.298C236.199 103.412 236.543 103.528 236.773 103.757C237.231 103.528 237.919 103.412 238.378 103.872C239.066 104.447 239.41 105.136 239.525 105.94C239.869 105.595 240.327 105.366 240.786 105.366C241.474 104.676 242.277 104.217 243.194 104.331C244.455 104.447 245.373 105.595 245.716 106.859C245.946 108.008 245.602 109.272 244.685 110.192C244.57 110.881 244.111 111.341 243.423 111.685C243.538 112.604 243.309 113.639 242.506 114.328C242.162 115.018 241.474 115.707 240.557 115.822H239.869C239.754 116.511 239.295 117.201 238.723 117.776C237.347 118.924 235.741 118.464 234.594 117.545C234.25 117.89 233.906 118.005 233.448 118.005C233.218 118.235 233.104 118.464 232.76 118.58C232.072 119.04 231.154 119.04 230.582 118.35C230.466 118.464 230.466 118.58 230.352 118.58C229.664 119.04 228.862 118.579 228.288 118.12H228.174C227.714 117.201 227.37 116.167 227.714 115.132ZM190.45 105.251C190.45 105.136 190.45 105.136 190.45 105.251V104.792C190.45 104.102 190.68 103.412 191.024 102.838C189.762 102.148 188.845 100.54 189.304 99.0459C189.189 98.8163 189.074 98.5867 189.074 98.3571C188.73 96.7483 189.762 95.4843 191.138 95.0251C190.221 93.8755 190.106 92.2667 191.024 90.8883C191.253 90.5435 191.597 90.4283 192.056 90.3139C192.285 89.8539 192.514 89.5091 192.858 89.1651C192.4 88.1307 193.317 87.0963 194.234 86.9819C194.922 85.0283 197.101 84.5683 198.821 85.3731C200.655 86.0627 202.604 87.9011 201.687 89.9691C201.458 90.4283 201.114 90.8883 200.655 91.2331C200.885 91.9227 200.77 92.7267 200.311 93.4163C200.311 93.5307 200.197 93.5307 200.082 93.6459C200.77 94.5651 200.885 95.9443 200.311 96.9779C200.426 97.8971 200.311 98.9315 199.853 99.7355L200.082 99.9659C200.655 100.655 200.655 101.574 200.426 102.264C200.541 102.379 200.655 102.608 200.77 102.838C201.229 103.643 201.229 104.447 201.114 105.136C201.229 105.366 201.343 105.595 201.343 105.94C201.573 105.94 201.802 106.055 202.031 106.285C203.407 106.17 204.898 107.089 204.554 108.698C204.554 108.813 204.439 108.927 204.439 109.043C205.127 109.847 205.127 111.226 204.783 112.26C204.898 112.49 204.898 112.835 204.898 113.064C204.898 115.592 201.573 115.707 200.541 113.754C200.082 113.754 199.623 113.754 199.279 113.639C199.165 113.639 199.165 113.524 199.165 113.524C197.674 113.868 196.183 112.949 195.61 111.571C195.266 111.685 195.037 111.8 194.578 111.8C193.546 111.915 192.744 111.341 192.285 110.536H192.17C191.482 110.422 190.909 109.962 190.794 109.272C190.68 108.468 190.68 107.664 190.794 106.859C190.565 106.285 190.45 105.711 190.45 105.251Z" fill="#0E3944"/>
<path d="M228.746 76.4096C228.746 76.4096 200.999 71.4688 198.362 90.8872C195.839 110.306 203.522 129.379 215.79 126.162C232.989 121.796 250.876 83.8784 228.746 76.4096Z" fill="#A96050"/>
<path d="M219.574 87.5571C219.574 87.5571 226.797 94.3364 227.945 104.448C227.945 104.448 231.613 98.3579 234.594 102.724C237.576 107.091 229.32 115.478 229.32 115.478C229.32 115.478 244.455 114.1 243.309 94.4515C242.85 86.1779 231.155 80.318 219.574 87.5571Z" fill="#0E3944"/>
<path d="M228.403 111.34C227.141 117.085 220.835 127.77 212.12 126.277C212.12 126.277 215.446 134.09 212.464 137.652C212.464 137.652 209.827 144.546 218.198 144.201C228.631 143.742 233.218 134.549 233.218 134.549C227.255 125.243 231.613 111.914 231.613 111.914C229.549 113.753 228.403 111.34 228.403 111.34Z" fill="#884638"/>
<path d="M194.694 84.3369C194.809 84.2225 194.809 84.1073 194.923 83.9921C194.923 83.7625 194.923 83.6481 195.037 83.4177C195.153 83.0729 195.381 82.8433 195.725 82.7289C195.841 82.2689 195.955 81.8097 196.299 81.5793C196.643 81.3497 196.873 81.3497 197.217 81.3497C197.445 81.2345 197.675 81.1201 197.905 81.1201H198.133C195.955 79.8561 196.873 76.7537 198.707 75.8345C199.624 75.3745 200.541 75.2601 201.573 75.2601C201.688 74.3401 201.917 73.4217 202.491 72.7321C203.752 71.1241 205.816 70.6641 207.765 70.7785C209.485 69.1705 211.893 68.2505 214.186 68.4809C214.301 68.4809 214.53 68.4809 214.645 68.5953C215.447 68.1361 216.25 67.9065 216.938 67.7913C219.461 67.3313 221.983 67.9065 223.932 69.3993C225.308 69.0553 226.799 68.9401 228.174 69.3993C229.092 69.7449 230.009 70.2041 230.697 70.8937C231.844 70.7785 233.105 71.0089 234.252 71.4681C236.086 71.3529 237.806 72.6169 238.609 74.3401L238.953 75.3745C240.558 75.6049 242.049 76.5241 242.277 78.3625C242.393 79.1665 242.277 79.9705 241.933 80.5457C242.277 80.8897 242.507 81.2345 242.737 81.5793C243.997 82.7289 245.029 84.2225 245.603 85.8305C245.833 86.5201 245.833 87.3249 245.717 88.0137V88.1289C246.979 89.7377 247.552 91.6905 247.323 93.6441C247.323 94.4489 247.093 95.2529 246.749 95.9425C247.208 96.4017 247.552 97.0913 247.437 97.7809C247.323 98.3553 246.979 98.8145 246.405 99.0449C246.405 99.6193 245.833 100.309 245.145 100.309C245.029 100.539 245.029 100.653 244.915 100.883C246.635 101.343 245.947 103.755 244.227 103.641H243.997C244.113 103.755 244.227 103.986 244.457 104.1C244.457 104.1 244.571 104.1 244.571 104.215C245.259 104.79 245.259 105.479 244.915 106.054C244.915 107.663 244.113 109.271 242.851 110.075C242.965 110.535 242.851 110.995 242.507 111.454C242.393 111.569 242.277 111.684 242.049 111.799C242.393 112.373 242.507 113.178 242.163 113.867C241.475 115.131 239.87 114.787 239.182 113.752C239.182 113.752 239.182 113.637 239.067 113.637C238.723 114.097 238.265 114.442 237.691 114.211C237.233 114.097 237.004 113.637 236.889 113.292C236.774 113.407 236.66 113.523 236.43 113.637C236.889 114.442 236.774 115.475 236.201 116.28C235.972 116.625 235.513 116.739 235.169 116.395C234.825 116.165 234.596 115.82 234.481 115.475L233.793 115.82C233.334 115.935 232.761 115.706 232.761 115.246V114.787C232.417 114.556 232.302 114.327 232.417 113.867C232.532 113.637 232.646 113.523 232.761 113.407C232.417 112.718 232.761 111.799 233.105 111.109C233.334 110.65 233.678 110.19 234.137 109.846C234.137 109.731 234.137 109.615 234.252 109.501C234.481 109.156 234.71 108.811 235.054 108.582C236.545 106.399 236.316 103.181 234.596 101.113C233.908 100.998 233.22 100.998 232.532 100.998C231.041 101.113 228.977 101.572 228.289 102.951C227.945 103.526 226.799 103.641 226.799 102.722C226.684 98.1257 224.849 93.7593 221.869 90.3121C221.639 90.0825 221.409 89.9673 221.181 89.6225C220.951 89.3929 220.837 89.1633 220.721 88.9329C220.493 88.7033 220.263 88.5889 220.033 88.3585C219.231 88.8185 218.199 89.0481 217.282 88.8185C216.135 89.5081 214.759 89.7377 213.498 89.1633C213.384 89.1633 213.154 89.2777 213.04 89.2777C212.237 89.3929 211.205 89.2777 210.402 89.0481C208.912 89.3929 207.306 88.9329 206.045 87.8993L205.586 87.4393C205.128 87.6689 204.554 87.8993 203.981 87.8993C202.72 88.2441 201.229 88.1289 199.853 86.9801C199.739 87.5545 199.395 88.0137 198.937 88.1289C198.707 88.2441 198.477 88.2441 198.249 88.1289C198.249 88.2441 198.249 88.2441 198.133 88.3585C197.905 88.8185 197.331 89.1633 196.873 89.0481C196.069 88.9329 195.725 88.2441 195.611 87.5545C195.381 87.3249 195.153 86.9801 194.923 86.7497C194.121 86.1753 194.121 85.2561 194.694 84.3369Z" fill="#0E3944"/>
<path d="M263.145 146.613C266.47 150.29 267.387 155.92 267.387 162.01C267.387 166.951 267.502 197.4 267.502 215.669C267.502 223.138 261.425 229.228 253.858 229.113L204.324 205.099L209.599 192.229L241.015 200.158L240.901 175.568C240.901 175.568 243.538 164.538 248.812 157.184C254.087 149.831 263.145 146.613 263.145 146.613Z" fill="#C2526D"/>
<path d="M235.513 128.689C234.595 128.113 233.449 127.884 232.302 127.884C231.499 127.884 230.467 127.539 230.467 127.539C230.467 127.539 232.875 136.042 220.836 142.477C220.836 142.477 216.364 144.315 216.938 144.315C220.492 144.429 224.046 145.349 234.137 139.604C234.022 139.604 242.506 134.318 235.513 128.689Z" fill="#C2526D"/>
<path d="M210.402 132.942C211.09 132.482 211.894 132.367 212.582 132.367C213.04 132.367 213.842 132.137 213.842 132.137C213.842 132.137 211.206 137.308 219.461 141.904C219.461 141.904 223.589 144.087 223.13 144.087C220.722 144.202 217.97 146.385 211.09 142.249C211.206 142.363 205.587 136.963 210.402 132.942Z" fill="#C2526D"/>
<path d="M157.201 134.666H156.054C155.94 134.666 155.94 134.895 156.054 134.895H157.201C157.316 134.895 157.316 134.666 157.201 134.666ZM130.027 50.9023H14.2198C10.4358 50.9023 7.33984 54.0047 7.33984 57.7967V104.102C7.33984 107.894 10.4358 110.996 14.2198 110.996H129.912C133.696 110.996 136.792 107.894 136.792 104.102V57.7967C136.906 54.0047 133.81 50.9023 130.027 50.9023Z" fill="#FAFBFB"/>
<path d="M130.026 50.9034L84.0464 51.0186L38.068 51.2482L15.136 51.3626C14.104 51.3626 13.3016 51.3626 12.384 51.593C11.4664 51.8226 10.664 52.2818 9.97603 52.857C8.60003 54.0058 7.79763 55.729 7.68323 57.5674V103.528C7.56803 105.367 8.14162 107.091 9.40322 108.469C10.5496 109.733 12.384 110.537 14.104 110.537L60.0824 110.652L106.062 110.882L128.994 110.997C129.91 110.997 130.942 110.997 131.745 110.767C132.662 110.537 133.465 110.078 134.153 109.503C135.644 108.355 136.446 106.516 136.561 104.563L136.675 93.0722V58.6018C136.79 56.6482 136.217 54.6954 134.841 53.3162C133.809 51.7082 131.974 50.9034 130.026 50.9034ZM130.026 50.9034C131.974 50.9034 133.809 51.7074 135.185 53.201C136.561 54.5802 137.134 56.5338 137.019 58.4866V104.447C136.905 106.401 135.987 108.355 134.497 109.618C133.809 110.307 132.892 110.767 131.974 110.997C131.057 111.342 130.026 111.342 129.108 111.342L106.176 111.456L60.1976 111.687L14.2184 111.801C12.1544 111.801 10.0904 110.882 8.71442 109.388C8.02642 108.584 7.45363 107.665 7.10963 106.746C6.88003 105.596 6.76562 104.563 6.76562 103.528V69.0578L6.88003 57.5674C6.99523 55.4994 7.91203 53.5458 9.51763 52.2826C10.32 51.593 11.2376 51.133 12.1544 50.9034C13.072 50.5586 14.2184 50.5586 15.136 50.5586L38.068 50.6738L84.0464 50.9034H130.026Z" fill="#A42A29"/>
<path d="M122.573 70.0889C122.573 70.3185 99.9847 70.5481 72.1223 70.5481C44.2599 70.5481 21.6719 70.3185 21.6719 70.0889C21.6719 69.8585 44.2599 69.6289 72.1223 69.6289C99.9847 69.7441 122.573 69.8585 122.573 70.0889ZM122.573 77.2129C122.573 77.4425 99.9847 77.6721 72.1223 77.6721C44.2599 77.6721 21.6719 77.4425 21.6719 77.2129C21.6719 76.9825 44.2599 76.7529 72.1223 76.7529C99.9847 76.8681 122.573 76.9825 122.573 77.2129ZM74.9879 84.4513C74.9879 84.4513 74.1855 84.5665 72.9239 84.5665C71.4335 84.5665 69.4839 84.6809 67.1911 84.6809C62.3751 84.7961 55.7255 84.7961 48.3871 84.7961C41.0487 84.7961 34.3983 84.7961 29.5823 84.6809C27.2895 84.6809 25.3399 84.5665 23.8495 84.5665C22.4735 84.5665 21.7855 84.4513 21.7855 84.4513C21.7855 84.4513 22.5887 84.3369 23.8495 84.3369C25.3399 84.3369 27.2895 84.2217 29.5823 84.2217C34.3983 84.1065 41.0487 84.1065 48.3871 84.1065C55.7255 84.1065 62.3751 84.1065 67.1911 84.2217C69.4847 84.2217 71.4335 84.3369 72.9239 84.3369C74.2999 84.3369 74.9879 84.3369 74.9879 84.4513ZM122.573 91.8049C122.573 92.0345 99.9847 92.2649 72.1223 92.2649C44.2599 92.2649 21.6719 92.0345 21.6719 91.8049C21.6719 91.5753 44.2599 91.3457 72.1223 91.3457C99.9847 91.4601 122.573 91.5753 122.573 91.8049ZM122.573 99.0441C122.573 99.2737 99.9847 99.5033 72.1223 99.5033C44.2599 99.5033 21.6719 99.2737 21.6719 99.0441C21.6719 98.8137 44.2599 98.5841 72.1223 98.5841C99.9847 98.5841 122.573 98.8137 122.573 99.0441Z" fill="#A42A29"/>
<path d="M59.9686 36.768C61.4598 34.24 63.2942 32.1728 65.8166 30.6784C65.931 30.6784 65.931 30.564 66.0462 30.564C67.307 29.9896 68.683 29.4152 69.9446 28.84L74.3014 28.2656C75.7918 28.3808 77.2822 28.6104 78.7734 28.84C79.1174 28.9552 79.4614 28.9552 79.8054 29.0704C79.9198 29.0704 80.1486 29.1848 80.2638 29.1848C80.4926 29.3 80.8366 29.3 81.0662 29.4152C81.2958 29.5296 81.5246 29.6448 81.7542 29.6448L82.4422 29.9888C82.6718 30.104 82.9006 30.2192 83.1302 30.4488C83.2446 30.564 83.4742 30.564 83.5886 30.6784C84.8502 31.368 85.8822 32.2872 86.799 33.3216C87.831 34.2408 88.6342 35.3896 89.3222 36.6536C89.4366 36.7688 89.4366 36.9976 89.551 37.1136C89.6654 37.3432 89.7806 37.5728 90.0094 37.9176C90.1246 38.1472 90.239 38.3776 90.3534 38.7216C90.4686 38.952 90.583 39.1816 90.583 39.4112C90.6974 39.6408 90.8126 39.9856 90.8126 40.3312C90.8126 40.4456 90.927 40.6752 90.927 40.7904V41.02C91.0414 41.7096 91.1566 42.284 91.1566 42.9736C91.271 43.6624 91.3854 44.352 91.3854 44.9264V45.3864C91.3854 46.7648 91.271 48.144 90.8126 49.408V49.6376C90.4686 51.0168 89.895 52.28 89.207 53.544C88.175 55.3824 86.799 56.992 85.1942 58.3704C84.8502 58.7144 84.3918 58.9448 84.0478 59.1744C83.8182 59.2896 83.7038 59.404 83.4742 59.5184C82.3278 60.2088 81.0662 60.7824 79.6902 61.2424C79.3462 61.3576 79.0022 61.3576 78.6582 61.4728L76.5942 61.8168H76.3654C74.8742 62.2768 73.499 62.2768 72.0078 61.8168C70.5174 61.8168 69.1414 61.4728 67.8798 60.668C67.0774 60.4384 66.3902 60.0936 65.7014 59.7488C63.2934 58.2552 61.3446 56.1872 59.8534 53.6592C58.3638 51.0168 57.6758 48.144 57.6758 45.1568C57.7902 42.1688 58.5926 39.4112 59.9686 36.7688V36.768Z" fill="#EBEBEB"/>
<path d="M59.9666 36.7691C60.6546 35.5051 61.5714 34.3571 62.489 33.3227C63.521 32.2883 64.6674 31.3691 65.929 30.5651L69.8266 28.8419L74.1842 28.1523C75.789 28.2667 77.3946 28.4963 79.0002 28.8411C79.3442 28.9563 79.8026 28.9563 80.1466 29.1859C80.4906 29.3011 80.949 29.4163 81.293 29.5307C82.0954 29.8755 82.7834 30.2203 83.4714 30.6803C84.733 31.3691 85.8794 32.2883 86.7962 33.3227C87.8282 34.3571 88.7458 35.5059 89.4338 36.7699L90.0074 37.6891C90.2362 38.0331 90.3514 38.3779 90.4658 38.7227C90.5802 39.0675 90.8098 39.4123 90.8098 39.7571L91.1538 40.7915V41.0211L91.3826 43.0891V42.9747L91.7266 45.2723V46.4219C91.7266 46.7659 91.7266 47.2259 91.6122 47.5707C91.4978 48.3747 91.3826 49.0643 91.1538 49.8683V49.9835C90.5802 52.0515 89.6634 54.1195 88.4018 55.8435C87.7138 56.7627 87.0258 57.5667 86.2234 58.2563C85.421 59.0603 84.5034 59.5203 83.5858 60.2099H83.701C82.4394 60.8995 81.1786 61.4739 79.8026 61.9331C79.229 62.0483 78.7706 62.1627 78.0826 62.2779L76.3626 62.5075H76.477C74.9866 62.9675 73.381 62.8523 71.8906 62.3931H72.0058C70.5146 62.3931 69.0242 61.9331 67.7634 61.1291H67.8778C66.6162 60.7843 65.5842 60.0947 64.6674 59.4051C63.7498 58.7163 62.833 57.9115 62.0298 56.9923C60.425 55.1539 59.2778 52.9707 58.5898 50.6723C57.0994 46.0771 57.673 40.9059 59.9658 36.7699L59.9666 36.7691ZM59.9666 36.7691C57.673 40.9059 57.2146 46.0771 58.705 50.5579C59.5074 52.8563 60.6538 54.9243 62.2594 56.6475C63.0618 57.5675 63.9794 58.2563 64.8962 58.9459C65.9282 59.6355 66.8458 60.2099 67.9922 60.5539C69.1386 61.2435 70.6298 61.5883 72.005 61.5883C73.381 61.9331 74.757 61.9331 76.133 61.4739H76.2474L77.853 61.2435C78.4266 61.1291 78.885 61.0139 79.4586 60.8995C80.7194 60.5547 81.981 59.9795 83.1274 59.2907H83.2418C84.045 58.7163 84.9618 58.1411 85.6498 57.4523C86.4522 56.7627 87.0258 55.9587 87.7138 55.1539C88.8602 53.5459 89.7778 51.5923 90.3514 49.6387V49.5235C90.5802 48.8347 90.6946 48.1451 90.8098 47.4555C90.8098 47.1115 90.9242 46.7659 90.9242 46.4219V45.2723V45.3875L90.6946 43.2035V43.0891L90.5802 41.1363V40.9059L90.3514 39.8723L90.0074 38.8379C89.8922 38.4939 89.7778 38.1483 89.5482 37.9187L89.0898 36.9995C88.5162 35.7355 87.7138 34.7019 86.6818 33.6675C85.765 32.6331 84.733 31.7139 83.5858 31.0243C82.8978 30.5651 82.2098 30.2203 81.5218 29.8755C81.1786 29.7603 80.7194 29.6459 80.3754 29.4163C80.0314 29.3011 79.573 29.1859 79.229 29.0715C77.6234 28.7267 76.0186 28.3819 74.413 28.2667L69.941 28.9563L66.0434 30.6795C64.7818 31.4843 63.6354 32.2883 62.6034 33.3227C61.5714 34.3571 60.769 35.5059 59.9658 36.7699L59.9666 36.7691Z" fill="#A42A29"/>
<path d="M84.1615 52.6255C83.5879 50.9023 82.4415 49.1791 81.1807 47.7999C80.0335 46.4215 78.8871 45.2719 77.5111 44.1231C79.5751 41.9399 81.5247 39.8719 82.3271 38.9527C83.1295 38.1479 82.0975 36.8847 81.1807 37.3439C79.9191 38.2631 77.7407 40.3311 75.4471 42.3999C74.5303 41.7103 73.6127 40.9055 72.6951 40.3311C71.2047 39.1823 69.4847 37.9183 67.7655 37.3439C67.3063 37.2287 66.7335 37.4591 66.6183 37.8039C66.5039 37.9183 66.5039 38.1479 66.5039 38.2631C66.5039 39.0671 67.5359 39.7567 68.1087 40.2167L70.5167 41.9399C71.5487 42.7439 72.5807 43.4335 73.6127 44.2383C71.5487 46.1911 70.5167 46.9959 68.5679 48.9487C66.6183 50.9023 67.0767 52.0511 67.5359 52.5111C67.9943 52.9703 69.2559 53.2007 69.7143 52.5111C70.6319 51.3615 73.1543 48.7191 75.6767 45.9615C76.8231 46.9959 77.9695 48.0295 79.1167 49.1791C80.3775 50.5575 81.7535 52.1663 83.2439 53.2007C83.7031 53.5447 84.3911 53.0855 84.1615 52.6255Z" fill="#A42A29"/>
</svg>
