<svg width="235" height="237" viewBox="0 0 235 237" fill="none" xmlns="http://www.w3.org/2000/svg">
<path d="M215.614 163.193C254.561 104.553 212.758 37.818 157.712 13.7144C131.401 2.20227 98.6846 0.763254 70.3828 9.937C56.9675 9.57725 43.5522 13.0849 31.6949 21.629C4.34508 41.5954 -4.74268 76.5816 2.26788 105.722C9.10533 134.142 29.4446 157.616 50.4762 177.223C71.3348 196.65 99.4636 208.522 130.189 206.183C161.174 203.755 197.958 189.724 215.614 163.193Z" fill="#F7F7F7"/>
<path d="M114.348 41.9594C91.585 29.458 63.1966 29.5479 39.8281 44.7475C4.77531 67.502 -5.7838 115.439 16.1134 151.865C38.0105 188.2 84.1417 199.262 119.108 176.508C154.074 153.753 164.72 105.816 142.823 69.4807C138.149 61.746 132.35 55.0905 125.772 49.7841L114.348 41.9594Z" fill="#EBEBEB"/>
<path d="M114.349 41.9573C110.108 39.7088 105.694 37.8201 101.194 36.3811C96.6064 35.032 91.9327 34.0427 87.259 33.5031C82.4987 33.0534 77.7385 32.9634 73.0648 33.4131C71.8531 33.503 70.7279 33.6829 69.5162 33.8628L67.7852 34.1326L66.0542 34.4924C64.9291 34.7622 63.7174 34.9421 62.5922 35.2119L59.1302 36.1113C58.0051 36.3811 56.8799 36.8308 55.7548 37.1905C54.6296 37.5503 53.5045 37.91 52.3793 38.4497L49.0904 39.8887C48.0518 40.4283 46.9267 40.968 45.8881 41.5076L44.3302 42.317L42.7723 43.2164C41.7337 43.846 40.695 44.4756 39.743 45.1051L36.8003 47.1737L33.771 49.2423C26.2412 55.2682 19.923 62.8231 15.0762 71.3672C10.316 79.9114 7.11362 89.355 5.64227 99.0684C4.25747 108.782 4.60367 118.855 6.76742 128.388C8.93117 138.012 12.9125 147.096 18.3651 155.19C23.8178 163.285 30.7418 170.21 38.7044 175.516C46.7536 180.823 55.6682 184.6 64.9291 186.489C74.1899 188.378 83.8835 188.467 93.1444 186.669C111.753 183.071 128.976 171.829 139.968 155.82C145.507 147.815 149.575 138.731 151.825 129.108C154.076 119.574 154.595 109.501 153.297 99.7879C150.7 80.2712 140.66 61.8337 125.687 49.6021L114.349 41.9573ZM114.349 41.9573L125.86 49.692C140.833 61.8337 150.96 80.2712 153.643 99.8778C154.941 109.681 154.508 119.754 152.172 129.288C149.921 138.911 145.853 148.085 140.314 156.09C129.236 172.278 112.012 183.611 93.3175 187.208C83.9701 189.007 74.2765 189.007 64.9291 187.028C55.5817 185.14 46.5805 181.362 38.6178 175.966C30.6552 170.57 23.6447 163.554 18.192 155.46C12.7394 147.365 8.75807 138.192 6.59432 128.478C4.34402 118.855 3.99782 108.782 5.38262 98.9784C6.85397 89.1751 10.0563 79.7315 14.9031 71.1874C19.7499 62.6432 26.1546 55.0883 33.6845 49.0624L36.5406 46.9039L39.4833 44.8353C40.5219 44.2058 41.5606 43.5762 42.5992 42.9466L44.1571 42.0472L45.715 41.2378C46.7536 40.6981 47.8787 40.1585 48.9173 39.6189L52.2062 38.1799C53.3314 37.6402 54.4565 37.2805 55.5817 36.9207C56.7068 36.561 57.832 36.1113 58.9571 35.8415L62.4191 34.9421C63.5443 34.6723 64.756 34.4924 65.8811 34.2226L67.6121 33.8628L69.3431 33.593C70.5548 33.4131 71.68 33.2332 72.8917 33.1433C77.6519 32.6936 82.4122 32.8735 87.0859 33.3232C91.8461 33.8628 96.4333 34.8521 101.02 36.2911C105.694 37.7302 110.108 39.7088 114.349 41.9573Z" fill="#A42A29"/>
<path d="M140.312 76.043H149.746C151.217 76.043 152.429 77.7518 151.91 79.1908L142.389 98.4377C142.043 99.1572 141.264 99.6968 140.485 99.6968H128.974C127.676 99.517 127.156 97.988 127.676 97.1786L136.85 78.2914C137.629 76.9424 138.927 76.043 140.312 76.043Z" fill="#455B64"/>
<path d="M141.005 77.2109H150.439C151.651 77.2109 152.43 78.4701 151.824 79.6393L142.563 98.4364C142.217 99.156 141.438 99.6956 140.659 99.6956H129.235C128.542 99.6956 128.109 98.9761 128.369 98.2566L137.543 79.3695C138.236 78.1103 139.534 77.2109 141.005 77.2109Z" fill="#263238"/>
<path d="M144.034 82.159C144.703 82.159 145.246 81.5952 145.246 80.8998C145.246 80.2044 144.703 79.6406 144.034 79.6406C143.365 79.6406 142.822 80.2044 142.822 80.8998C142.822 81.5952 143.365 82.159 144.034 82.159Z" fill="#FAFBFB"/>
<path d="M150.787 89.2651C149.661 80.3612 148.45 88.2758 147.584 87.7362C145.68 86.7468 142.218 84.5883 138.67 80.4511C138.237 79.9115 137.717 79.3719 137.198 78.7423C137.112 78.7423 137.025 78.7423 136.939 78.6523C136.679 79.192 136.333 79.8216 135.986 80.3612C137.977 82.7895 139.968 85.4877 139.968 85.4877C138.064 84.3185 136.419 83.0593 135.034 81.8901C134.688 82.5197 134.255 83.0593 133.996 83.6889C133.996 83.7789 133.909 83.7789 133.909 83.8688C137.371 87.2865 137.458 88.1859 137.458 88.1859C136.852 88.5456 134.861 87.4664 132.871 86.2971C132.611 86.9267 132.438 87.4664 132.178 88.0959C134.342 89.3551 136.419 90.6142 136.592 91.9633C136.592 91.9633 134.169 91.9633 131.746 91.1538C131.399 91.0639 131.14 90.974 130.88 90.884C130.707 91.3337 130.62 91.8734 130.447 92.323C132.698 93.852 137.631 97.5395 137.371 99.788C136.939 103.475 139.708 105.904 142.478 104.105C143.084 103.745 144.815 105.544 148.623 97.8093C149.229 96.5502 151.219 93.2224 150.787 89.2651Z" fill="#B86658"/>
<path d="M79.6434 188.108C82.5862 188.288 85.5289 188.378 88.4716 188.018C95.8283 187.119 102.579 184.511 109.244 181.273C113.225 179.384 117.899 177.945 121.793 175.607C119.716 162.925 116.86 150.784 112.879 141.16L86.2213 141.79C86.9137 156.36 77.9124 171.829 79.6434 188.108Z" fill="#A55A51"/>
<path d="M54.9751 183.791C61.4663 185.59 64.9283 186.579 69.0827 187.029C75.6605 187.658 79.7284 188.108 88.5565 188.018C93.2302 187.928 97.7308 186.219 102.058 184.511C109.761 166.883 112.964 141.16 112.964 141.16L72.9775 143.049C72.9775 143.049 56.1868 157.529 54.9751 183.791C54.8885 183.791 54.8885 183.791 54.9751 183.791Z" fill="#B86658"/>
<path d="M88.4727 187.927C95.8294 187.027 104.484 185.049 111.149 181.901C115.822 179.653 119.544 177.404 123.872 174.166C122.833 168.23 121.708 162.744 120.496 157.797C115.217 135.403 109.591 123.98 109.591 123.98H108.206L89.944 124.43C89.944 124.43 86.3955 163.464 86.482 188.017C87.1744 188.107 87.8668 188.017 88.4727 187.927Z" fill="#8B383F"/>
<path d="M68.9982 187.028C75.4895 187.837 81.8942 188.737 88.472 188.017C93.5784 187.388 98.4253 185.949 103.099 184.06C114.61 150.333 99.5504 123.711 99.5504 123.711L74.1912 126.139L66.4883 126.859C61.0356 141.789 57.4005 156.089 55.1502 169.31C54.3712 173.987 53.7654 179.113 53.2461 183.52C53.9385 183.7 62.1608 186.218 68.9982 187.028Z" fill="#8B383F"/>
<path d="M79.0376 127.67C79.0376 127.67 71.6808 161.397 55.2363 169.221C57.4866 156 61.0352 141.7 66.5744 126.77L74.2773 126.051C75.8352 126.411 77.3931 126.95 79.0376 127.67Z" fill="#662D34"/>
<path d="M120.583 157.798C119.198 156.269 118.073 154.47 117.467 152.402C115.563 145.386 110.284 130.007 108.293 124.071H109.678C109.678 123.981 115.304 135.403 120.583 157.798Z" fill="#662D34"/>
<path d="M106.215 182.62C106.042 180.642 105.956 179.562 105.956 179.562C105.61 180.822 105.09 182.171 104.484 183.43C105.004 183.16 105.61 182.89 106.215 182.62Z" fill="#662D34"/>
<path d="M96.9531 184.328C96.9531 184.958 96.8665 185.588 96.8665 186.217C97.732 185.947 98.5975 185.678 99.463 185.408C105.002 158.066 96.001 124.789 96.001 124.789L93.9238 125.329C94.0104 125.239 98.2513 156.088 96.9531 184.328Z" fill="#662D34"/>
<path d="M140.053 103.562C138.236 102.483 138.063 100.594 137.111 98.6154C133.129 102.932 130.014 105.451 126.811 107.789C120.06 112.646 115.819 119.121 115.819 119.121C115.819 119.121 106.299 66.7771 93.4895 63.2695L93.3164 93.8487C93.3164 93.8487 107.164 130.544 113.05 133.602C116.945 135.67 133.908 115.974 143.169 103.742C143.169 103.472 141.871 104.641 140.053 103.562Z" fill="#3A201C"/>
<path d="M66.5718 126.769C97.5567 134.054 109.674 123.981 109.674 123.981C115.213 91.6931 94.7005 63.4524 94.7005 63.4524C94.7005 63.4524 94.4409 63.3624 94.0081 63.1825C89.7672 61.7435 66.3987 54.2786 51.0793 64.4417C50.0407 65.0713 49.0887 65.8807 48.2232 66.6902C31.7786 81.4401 66.5718 126.769 66.5718 126.769Z" fill="#D95D7B"/>
<path d="M51.0801 64.5293C53.0707 65.6985 55.4076 66.8677 58.1772 68.1269C108.809 91.6908 96.9516 69.5659 96.9516 69.5659C96.9516 67.947 96.4324 66.508 95.5668 65.1589C95.1341 64.5293 94.6148 63.8098 94.0089 63.2702C89.8545 61.8312 67.3515 54.6361 52.0321 63.8998C51.7725 64.0796 51.4263 64.3494 51.0801 64.5293Z" fill="#B86658"/>
<path d="M51.0801 64.5319C53.0707 65.7011 55.4076 66.8703 58.1772 68.1295C108.809 91.6934 96.9516 69.5685 96.9516 69.5685C96.9516 67.9496 96.4324 66.5106 95.5668 65.1615C93.7493 66.0609 89.9411 67.8596 88.7294 68.1295L87.9504 71.3672L83.6229 68.4892C83.6229 68.4892 68.3901 68.9389 52.1187 63.9023C51.7725 64.0822 51.4263 64.352 51.0801 64.5319Z" fill="#3A201C"/>
<path d="M98.5085 106.98C98.5085 106.98 98.5085 106.98 90.8921 109.409C83.1892 111.837 84.0547 113.006 82.5833 117.144C81.1985 121.101 87.8629 124.519 90.9787 125.148C93.5752 125.688 98.3354 130.814 100.586 130.634C101.538 130.544 101.018 129.915 99.374 128.476C97.3834 126.857 96.1717 124.608 96.1717 124.608C98.7682 123.529 105.259 130.185 107.856 128.566C109.154 127.756 98.8547 123.709 98.7682 121.91C98.7682 121.91 99.6337 121.371 104.827 122.99C107.769 123.889 110.885 124.788 111.578 124.069C112.789 122.63 106.298 121.91 99.6337 118.313C99.6337 118.313 103.009 118.673 106.125 119.212C108.981 119.752 111.578 120.561 111.664 119.212C111.751 118.133 107.337 117.413 104.48 116.874C99.2875 115.884 95.6524 113.906 93.8348 112.737C92.9693 112.197 92.5366 111.837 92.5366 111.837C100.066 108.779 98.5085 106.98 98.5085 106.98Z" fill="#B86658"/>
<path d="M46.8401 68.1288C54.8027 62.7324 60.8612 79.7308 59.8226 90.9732C59.3033 96.0098 46.8401 132.705 46.8401 132.705L84.2297 112.738C84.2297 112.738 85.3549 119.664 83.5373 121.103C78.0847 125.24 66.2273 134.144 58.3513 141.069C47.7921 150.333 36.5406 150.423 32.6459 147.455C28.8377 144.397 35.0693 116.426 37.233 105.004C39.3968 93.4915 42.2529 71.2766 46.8401 68.1288Z" fill="#3A201C"/>
<path d="M94.2723 51.4879C94.2723 51.4879 72.5482 45.1922 54.8054 54.4559C54.8054 54.4559 34.7258 3.55057 69.519 4.0902C104.312 4.71977 97.3881 42.4041 94.2723 51.4879Z" fill="#0E3944"/>
<path d="M61.4721 8.04913C61.4721 8.04913 85.1003 -0.225231 89.8605 17.1329C94.6208 34.4012 90.2933 52.6587 79.2149 51.4895C63.5493 49.7807 43.0369 17.7625 61.4721 8.04913Z" fill="#B86658"/>
<path d="M70.9033 16.9527C70.9033 16.9527 65.4507 24.1478 65.7969 33.4115C65.7969 33.4115 61.8156 28.3749 59.7384 32.7819C57.6611 37.1889 65.97 43.5745 65.97 43.5745C65.97 43.5745 52.5547 44.384 50.9968 26.3963C50.3044 18.7515 59.7384 11.8262 70.9033 16.9527Z" fill="#0E3944"/>
<path d="M66.2293 39.707C68.0469 44.7436 74.9709 53.5576 82.4142 51.0393C82.4142 51.0393 80.5967 58.5941 83.6259 61.3822C83.6259 61.3822 86.8283 67.2283 79.4715 68.0377C70.2106 69.117 65.1042 61.3822 65.1042 61.3822C69.0855 52.1186 63.6328 40.6064 63.6328 40.6064C65.5369 41.9555 66.2293 39.707 66.2293 39.707Z" fill="#A55A51"/>
<path d="M76.8744 11.9164C76.8744 11.9164 80.4229 31.4331 65.7095 33.4118C65.7095 33.4118 60.4299 24.1481 53.5059 30.6237C53.5059 30.6237 46.0626 9.48809 63.5457 6.07042C63.5457 6.07042 66.9211 -2.02407 80.5095 0.584158C99.4639 4.18171 104.743 28.0155 94.1844 51.5794C94.2709 51.4895 103.532 9.12834 76.8744 11.9164Z" fill="#0E3944"/>
<path d="M195.792 128.656H130.534C126.379 128.656 123.004 125.149 123.004 120.832V117.954C123.004 113.637 126.379 110.129 130.534 110.129H195.792C199.947 110.129 203.322 113.637 203.322 117.954V120.832C203.322 125.149 199.947 128.656 195.792 128.656Z" fill="#EBEBEB"/>
<path d="M195.793 128.656L150.008 128.746H138.583H132.871C131.919 128.746 130.967 128.746 130.015 128.746C129.063 128.656 128.111 128.387 127.245 127.937C125.514 127.038 124.13 125.419 123.437 123.53C123.091 122.541 122.918 121.551 123.004 120.562C123.004 119.573 123.004 118.583 123.004 117.594C123.091 115.525 123.957 113.547 125.341 112.198C126.726 110.759 128.717 109.949 130.621 109.949L176.406 110.039H187.83H193.543C194.495 110.039 195.447 110.039 196.399 110.039C197.351 110.129 198.303 110.399 199.168 110.849C200.899 111.748 202.284 113.367 202.89 115.166C203.236 116.065 203.323 117.144 203.323 118.134C203.323 119.123 203.323 120.112 203.323 121.102C203.236 123.08 202.371 125.059 200.986 126.408C199.601 127.847 197.697 128.656 195.793 128.656ZM195.793 128.656C197.697 128.656 199.601 127.847 200.986 126.498C202.371 125.149 203.236 123.17 203.236 121.192C203.236 120.202 203.236 119.213 203.236 118.224C203.236 117.234 203.15 116.245 202.804 115.346C202.198 113.457 200.813 111.928 199.082 111.028C198.216 110.579 197.264 110.309 196.399 110.219C195.447 110.129 194.495 110.219 193.543 110.219H187.83H176.406L130.621 110.309C128.717 110.309 126.899 111.028 125.601 112.378C124.216 113.727 123.437 115.615 123.351 117.504C123.351 118.493 123.351 119.483 123.351 120.472C123.351 121.461 123.437 122.451 123.783 123.35C124.389 125.149 125.774 126.768 127.419 127.577C128.284 128.027 129.15 128.297 130.102 128.387C131.054 128.477 132.006 128.387 132.958 128.387H138.67H150.095L195.793 128.656Z" fill="#A42A29"/>
<path d="M138.152 116.876L136.508 119.124L139.104 118.764V120.023L136.508 119.664L138.152 121.822L137.027 122.452L135.988 119.933L134.863 122.452L133.911 121.822L135.555 119.664L132.959 120.023V118.764L135.469 119.124L133.824 116.966L134.863 116.336L135.902 118.854L136.94 116.336L138.152 116.876Z" fill="#A42A29"/>
<path d="M149.056 116.876L147.412 119.124L150.008 118.764V120.023L147.412 119.664L149.056 121.822L147.931 122.452L146.893 119.933L145.767 122.452L144.815 121.822L146.46 119.664L143.863 120.023V118.764L146.373 119.124L144.729 116.966L145.767 116.336L146.806 118.854L147.845 116.336L149.056 116.876Z" fill="#A42A29"/>
<path d="M159.875 116.876L158.23 119.124L160.827 118.764V120.023L158.23 119.664L159.875 121.822L158.75 122.452L157.711 119.933L156.586 122.452L155.634 121.822L157.278 119.664L154.682 120.023V118.764L157.192 119.124L155.547 116.966L156.586 116.336L157.624 118.854L158.663 116.336L159.875 116.876Z" fill="#A42A29"/>
<path d="M170.693 116.876L169.049 119.124L171.645 118.764V120.023L169.049 119.664L170.693 121.822L169.568 122.452L168.529 119.933L167.404 122.452L166.452 121.822L168.097 119.664L165.5 120.023V118.764L168.01 119.124L166.366 116.966L167.404 116.336L168.443 118.854L169.481 116.336L170.693 116.876Z" fill="#A42A29"/>
<path d="M181.513 116.876L179.869 119.124L182.465 118.764V120.023L179.869 119.664L181.513 121.822L180.388 122.452L179.35 119.933L178.224 122.452L177.272 121.822L178.917 119.664L176.32 120.023V118.764L178.83 119.124L177.186 116.966L178.224 116.336L179.263 118.854L180.302 116.336L181.513 116.876Z" fill="#A42A29"/>
<path d="M192.334 116.876L190.689 119.124L193.286 118.764V120.023L190.689 119.664L192.334 121.822L191.208 122.452L190.17 119.933L189.045 122.452L188.093 121.822L189.737 119.664L187.141 120.023V118.764L189.651 119.124L188.006 116.966L189.045 116.336L190.083 118.854L191.122 116.336L192.334 116.876Z" fill="#A42A29"/>
<path d="M197.09 122.454C197.09 113.73 197.09 102.038 197.09 102.038C199.254 100.778 206.524 96.0117 216.217 96.0117C225.911 96.0117 234.393 100.689 234.306 102.038C235.172 109.143 234.653 119.306 234.306 122.454C234.306 135.945 216.217 145.388 216.217 145.388C216.217 145.388 197.09 135.945 197.09 122.454Z" fill="#A42A29"/>
<path d="M197.09 122.452V102.036C199.946 100.327 202.975 98.7978 206.091 97.7186C209.207 96.6393 212.582 96.0097 215.871 96.0097C219.16 95.9198 222.536 96.4594 225.738 97.3588C227.296 97.8085 228.94 98.3481 230.412 99.0677C231.191 99.4274 231.883 99.7872 232.662 100.237C233.008 100.417 233.354 100.687 233.701 100.956C233.874 101.136 234.047 101.226 234.133 101.406C234.306 101.586 234.479 101.766 234.479 102.036C234.912 105.453 234.999 108.871 234.999 112.289C234.999 115.706 234.826 119.124 234.479 122.542C234.479 123.891 234.306 125.15 233.96 126.409C233.614 127.668 233.181 128.837 232.575 130.007C231.45 132.345 229.892 134.414 228.161 136.302C226.43 138.191 224.526 139.9 222.536 141.429C220.545 142.958 218.468 144.397 216.217 145.566C213.967 144.397 211.717 142.958 209.64 141.519C207.562 139.99 205.572 138.371 203.754 136.482C201.937 134.593 200.292 132.525 199.08 130.186C197.869 127.758 197.176 125.15 197.09 122.452ZM197.09 122.452C197.09 125.15 197.869 127.758 199.08 130.007C200.292 132.345 201.937 134.414 203.754 136.212C205.572 138.101 207.562 139.72 209.64 141.249C211.717 142.778 213.881 144.127 216.217 145.296H216.131C218.295 144.127 220.458 142.688 222.449 141.159C224.44 139.63 226.344 137.921 228.075 136.032C229.806 134.144 231.277 132.075 232.402 129.827C232.922 128.657 233.441 127.488 233.701 126.229C233.96 124.97 234.133 123.711 234.22 122.452C234.566 119.034 234.653 115.616 234.653 112.289C234.653 108.871 234.566 105.453 234.22 102.126C234.22 101.946 234.133 101.766 233.96 101.676C233.787 101.496 233.701 101.406 233.527 101.226C233.181 100.956 232.835 100.687 232.489 100.507C231.796 100.057 231.017 99.6972 230.325 99.3375C228.854 98.618 227.296 98.0783 225.651 97.6286C222.449 96.7292 219.16 96.1896 215.871 96.2796C212.582 96.2796 209.293 96.9091 206.091 97.9884C202.889 98.9777 199.946 100.597 197.09 102.216V122.452Z" fill="#EBEBEB"/>
<path d="M226.519 112.647C225.481 110.848 224.096 109.409 222.365 108.33L222.278 108.24C221.326 107.79 220.374 107.431 219.509 106.981L216.393 106.531C215.354 106.621 214.229 106.801 213.191 106.981C212.931 107.071 212.671 107.071 212.412 107.161C212.325 107.161 212.238 107.251 212.065 107.251C211.892 107.341 211.633 107.341 211.46 107.431C211.286 107.521 211.113 107.521 210.94 107.611C210.767 107.7 210.594 107.79 210.421 107.88C210.248 107.97 210.075 108.06 209.902 108.15C209.815 108.24 209.729 108.24 209.555 108.33C208.69 108.87 207.911 109.499 207.219 110.219C206.526 110.938 205.92 111.748 205.401 112.647C205.314 112.737 205.314 112.827 205.228 113.007C205.141 113.187 205.055 113.367 204.968 113.546C204.882 113.726 204.795 113.906 204.709 114.086C204.622 114.266 204.536 114.446 204.536 114.626C204.449 114.806 204.449 115.075 204.362 115.255C204.362 115.345 204.276 115.435 204.276 115.615C204.276 115.705 204.276 115.705 204.276 115.795C204.189 116.245 204.103 116.694 204.103 117.234C204.016 117.684 203.93 118.223 203.93 118.673C203.93 118.763 203.93 118.763 203.93 118.853C203.93 118.943 203.93 118.943 203.93 119.033C203.93 120.022 204.016 121.011 204.276 121.911C204.276 121.911 204.276 121.911 204.276 122.001C204.536 122.99 204.882 123.889 205.401 124.789C206.18 126.138 207.132 127.307 208.344 128.206C208.603 128.386 208.863 128.566 209.209 128.836C209.382 128.926 209.469 129.016 209.642 129.106C210.507 129.646 211.373 130.005 212.412 130.275C212.671 130.365 212.931 130.365 213.191 130.455C213.71 130.545 214.143 130.635 214.662 130.635C214.748 130.635 214.748 130.635 214.835 130.635C215.874 130.905 216.912 130.905 217.951 130.635C218.989 130.635 220.028 130.365 220.893 129.825C221.413 129.646 221.932 129.466 222.451 129.106C224.182 128.027 225.567 126.588 226.606 124.789C227.644 122.9 228.164 120.832 228.164 118.673C228.164 116.514 227.558 114.536 226.519 112.647Z" fill="#EBEBEB"/>
<path d="M226.517 112.647C225.998 111.748 225.392 110.848 224.613 110.129C223.921 109.409 223.055 108.78 222.19 108.24L219.42 106.981L216.304 106.531C215.179 106.621 213.967 106.801 212.842 107.071C212.236 107.161 211.717 107.341 211.198 107.611C210.679 107.79 210.159 108.15 209.64 108.42C208.774 108.87 207.995 109.589 207.39 110.309C206.697 111.028 206.091 111.838 205.659 112.737L205.312 113.367C205.226 113.547 205.139 113.816 204.966 114.086C204.88 114.356 204.793 114.536 204.707 114.806L204.533 115.525V115.705L204.36 117.144L204.187 118.583V118.763C204.187 119.033 204.187 119.303 204.187 119.572C204.187 119.842 204.187 120.112 204.274 120.382C204.36 120.922 204.447 121.371 204.62 121.911V122.001C205.053 123.44 205.659 124.789 206.524 126.048C206.957 126.678 207.476 127.217 207.995 127.667C208.515 128.207 209.121 128.566 209.726 129.016C210.592 129.556 211.457 129.915 212.41 130.185C212.842 130.275 213.188 130.365 213.621 130.455L214.833 130.635C215.785 130.905 216.824 130.905 217.862 130.635C218.901 130.635 219.853 130.365 220.718 129.825C221.497 129.646 222.19 129.196 222.882 128.746C223.574 128.297 224.18 127.757 224.786 127.127C225.911 125.868 226.863 124.429 227.383 122.81C227.902 121.191 228.162 119.393 227.989 117.684C227.902 115.795 227.383 114.086 226.517 112.647ZM226.517 112.647C227.383 114.176 227.902 115.795 228.075 117.504C228.248 119.213 228.075 121.011 227.556 122.63C227.036 124.249 226.171 125.778 225.046 127.127C224.44 127.757 223.834 128.386 223.142 128.836C222.449 129.286 221.757 129.825 220.891 130.005C219.939 130.545 218.901 130.905 217.862 130.905H217.949C216.91 131.175 215.785 131.265 214.746 130.905L213.535 130.725C213.102 130.635 212.756 130.545 212.323 130.545C211.371 130.275 210.419 129.825 209.467 129.286C208.861 128.836 208.169 128.476 207.649 127.937C207.043 127.397 206.524 126.858 206.091 126.228C205.139 124.969 204.447 123.53 204.101 122.001V121.911C203.928 121.371 203.841 120.832 203.755 120.292C203.755 120.022 203.668 119.752 203.668 119.483C203.668 119.213 203.668 118.943 203.668 118.673V118.493L203.841 117.054L204.014 115.615V115.435L204.274 114.626C204.36 114.356 204.447 114.086 204.533 113.906C204.62 113.637 204.707 113.457 204.88 113.187L205.226 112.467C205.745 111.568 206.351 110.669 207.13 110.039C207.822 109.23 208.601 108.6 209.553 108.15C210.073 107.88 210.592 107.521 211.111 107.341C211.631 107.161 212.236 106.981 212.842 106.891C213.967 106.621 215.179 106.531 216.304 106.441L219.42 106.891L222.19 108.15C223.055 108.69 223.921 109.319 224.613 110.129C225.392 110.848 225.998 111.658 226.517 112.647Z" fill="#A42A29"/>
<path d="M222.105 112.738C220.028 114.267 214.748 119.484 212.93 121.102C212.498 120.653 212.151 120.203 211.719 119.843C211.026 119.124 210.42 118.404 209.468 118.134C208.949 118.045 208.689 118.404 208.689 118.944C208.863 119.933 209.555 120.653 210.161 121.462L212.151 123.801C212.498 124.25 213.363 124.25 213.709 123.801C215.094 122.092 221.326 115.706 222.884 113.997C223.49 113.278 222.797 112.378 222.105 112.738Z" fill="#A42A29"/>
<path d="M196.485 56.3472C193.369 56.3472 154.855 56.2572 152.864 56.7069C150.873 57.1566 150.96 78.652 152.777 79.9111C153.556 80.4508 156.239 81.3502 159.615 81.0803C160.048 81.0803 159.788 84.9477 159.961 86.2069C160.048 86.6566 160.653 86.7465 161 86.4767C162.904 84.8578 164.721 83.059 166.366 81.1703C174.934 81.3502 187.138 81.62 195.706 80.9904C198.476 80.8105 199.601 56.3472 196.485 56.3472Z" fill="#EBEBEB"/>
<path d="M196.485 56.3477C189.215 56.3477 181.945 56.3477 174.674 56.4376L163.769 56.6175L158.403 56.7074C156.586 56.7974 154.768 56.7974 153.037 56.9772C152.95 56.9772 152.864 57.1571 152.777 57.337C152.691 57.5169 152.604 57.6967 152.604 57.9666C152.518 58.4162 152.431 58.8659 152.345 59.3156C152.171 60.215 152.085 61.2043 152.085 62.1037C151.998 63.9924 151.912 65.8812 151.912 67.7699C151.912 69.6586 151.998 71.5473 152.085 73.436C152.171 75.3247 152.345 77.2134 152.777 78.9223C152.864 79.1021 152.95 79.372 153.037 79.4619C153.124 79.6418 153.124 79.6418 153.383 79.7317C153.729 79.9116 154.162 80.0915 154.595 80.1814C155.46 80.4512 156.326 80.5411 157.191 80.6311C157.624 80.6311 158.057 80.721 158.49 80.721H159.182H159.528H159.701H159.788C159.788 80.721 159.874 80.721 159.961 80.721C160.048 80.721 160.048 80.811 160.134 80.811C160.307 80.9908 160.307 81.0808 160.307 81.1707C160.307 81.2607 160.307 81.3506 160.394 81.3506C160.394 81.4405 160.394 81.6204 160.48 81.7104C160.48 81.9802 160.48 82.16 160.48 82.4299V83.8689C160.48 84.3186 160.48 84.7683 160.48 85.3079C160.48 85.5777 160.48 85.7576 160.567 85.9375V86.1173C160.567 86.1173 160.567 86.1173 160.653 86.2073C160.74 86.2073 160.913 86.2073 161 86.2073C161 86.2073 161.173 86.1173 161.173 86.0274L161.432 85.7576L162.471 84.8582C163.856 83.5991 165.154 82.3399 166.366 80.9009L166.452 80.811H166.625C175.627 80.9908 184.714 81.3506 193.715 80.9908L195.446 80.9009C195.706 80.9009 196.052 80.9009 196.225 80.811C196.399 80.6311 196.572 80.4512 196.745 80.1814C197.264 79.1921 197.524 78.0229 197.697 76.8537C198.13 74.5153 198.389 72.1769 198.476 69.8385C198.649 67.5 198.649 65.1616 198.562 62.8232C198.476 61.654 198.389 60.4848 198.216 59.3156C198.13 58.776 197.956 58.1464 197.783 57.6068C197.697 57.337 197.61 57.0672 197.437 56.7973C197.004 56.5275 196.745 56.3477 196.485 56.3477ZM196.485 56.3477C196.745 56.3477 197.004 56.5275 197.177 56.7973C197.351 57.0672 197.437 57.337 197.524 57.6068C197.697 58.1464 197.87 58.776 197.956 59.3156C198.13 60.4848 198.216 61.654 198.303 62.8232C198.389 65.1616 198.389 67.5 198.303 69.8385C198.216 72.1769 197.956 74.5153 197.524 76.8537C197.264 78.0229 197.091 79.1921 196.572 80.2713C196.399 80.5411 196.312 80.811 196.052 80.9908C195.966 81.0808 195.706 81.1707 195.62 81.1707H195.187L193.456 81.2607C188.955 81.5305 184.455 81.6204 179.867 81.6204C175.367 81.6204 170.866 81.6204 166.279 81.5305L166.539 81.4405C165.327 82.8796 164.029 84.2286 162.644 85.4878L161.605 86.3872L161.346 86.657C161.259 86.7469 161.173 86.8369 161 86.9268C160.653 87.1067 160.394 87.1067 160.048 87.0167C159.874 86.9268 159.701 86.8369 159.615 86.657C159.528 86.567 159.528 86.4771 159.528 86.3872V86.2073C159.528 85.9375 159.442 85.6677 159.442 85.4878C159.442 85.0381 159.442 84.4985 159.442 84.0488V82.6097C159.442 82.3399 159.442 82.16 159.442 81.8902C159.442 81.8003 159.442 81.7104 159.442 81.6204V81.5305C159.442 81.5305 159.442 81.4405 159.442 81.5305C159.442 81.5305 159.528 81.5305 159.528 81.6204C159.615 81.6204 159.701 81.6204 159.615 81.6204H159.528H159.355H159.009H158.317C157.884 81.6204 157.364 81.6204 156.932 81.5305C155.98 81.4405 155.114 81.2607 154.162 80.9908C153.729 80.811 153.297 80.721 152.864 80.4512C152.777 80.3613 152.691 80.3613 152.518 80.1814C152.345 80.0015 152.258 79.9116 152.258 79.8216C152.171 79.5518 152.085 79.372 151.998 79.1021C151.479 77.2134 151.393 75.3247 151.306 73.436C151.219 71.5473 151.133 69.6586 151.219 67.7699C151.219 65.8812 151.306 63.9924 151.479 62.1037C151.566 61.1144 151.652 60.215 151.825 59.3156C151.912 58.8659 151.998 58.4162 152.171 57.8766C152.258 57.6068 152.345 57.4269 152.431 57.1571C152.518 57.0672 152.518 56.8873 152.691 56.7973C152.777 56.7074 152.95 56.5275 153.124 56.5275C155.028 56.3477 156.759 56.4376 158.576 56.3477H164.029H174.934H196.485Z" fill="#A42A29"/>
<path d="M178.742 67.5879C178.655 67.4081 178.569 67.1382 178.482 66.9584C178.223 66.5986 177.963 66.2389 177.53 66.059C177.097 65.8791 176.665 65.6992 176.145 65.6992C175.886 65.6992 175.626 65.7892 175.453 65.7892C175.366 65.7892 175.193 65.8791 175.107 65.8791C175.02 65.8791 174.847 65.969 174.761 65.969C174.414 66.1489 174.241 66.3288 174.068 66.5986C173.808 66.8684 173.722 67.1382 173.635 67.498C173.549 67.8577 173.549 68.2175 173.549 68.4873C173.549 68.8471 173.635 69.1169 173.895 69.4766C174.068 69.6565 174.155 69.8364 174.328 70.0163C174.674 70.376 175.02 70.5559 175.453 70.6458C175.713 70.6458 175.886 70.7358 176.145 70.7358C176.232 70.7358 176.318 70.7358 176.318 70.7358C176.578 70.7358 176.751 70.7358 177.011 70.6458C177.357 70.5559 177.617 70.376 177.876 70.1961C178.136 70.0163 178.396 69.7465 178.569 69.4766C178.655 69.2968 178.742 69.0269 178.828 68.8471C178.915 68.4873 178.915 68.0376 178.742 67.5879Z" fill="#A42A29"/>
<path d="M166.367 67.5879C166.28 67.4081 166.194 67.1382 166.107 66.9584C165.848 66.5986 165.588 66.2389 165.155 66.059C164.722 65.8791 164.29 65.6992 163.77 65.6992C163.511 65.6992 163.251 65.7892 163.078 65.7892C162.991 65.7892 162.818 65.8791 162.732 65.8791C162.645 65.8791 162.472 65.969 162.386 65.969C162.039 66.1489 161.866 66.3288 161.693 66.5986C161.433 66.8684 161.347 67.1382 161.26 67.498C161.174 67.8577 161.174 68.2175 161.174 68.4873C161.174 68.8471 161.26 69.1169 161.52 69.4766C161.693 69.6565 161.78 69.8364 161.953 70.0163C162.299 70.376 162.645 70.5559 163.078 70.6458C163.338 70.6458 163.511 70.7358 163.77 70.7358C163.857 70.7358 163.943 70.7358 163.943 70.7358C164.203 70.7358 164.376 70.7358 164.636 70.6458C164.982 70.5559 165.242 70.376 165.501 70.1961C165.761 70.0163 166.021 69.7465 166.194 69.4766C166.28 69.2968 166.367 69.0269 166.453 68.8471C166.453 68.4873 166.453 68.0376 166.367 67.5879Z" fill="#A42A29"/>
<path d="M191.121 67.5879C191.034 67.4081 190.948 67.1382 190.861 66.9584C190.601 66.5986 190.342 66.2389 189.909 66.059C189.476 65.8791 189.044 65.6992 188.524 65.6992C188.265 65.6992 188.005 65.7892 187.832 65.7892C187.745 65.7892 187.572 65.8791 187.486 65.8791C187.399 65.8791 187.226 65.969 187.139 65.969C186.793 66.1489 186.62 66.3288 186.447 66.5986C186.187 66.8684 186.101 67.1382 186.014 67.498C185.928 67.8577 185.928 68.2175 185.928 68.4873C185.928 68.8471 186.014 69.1169 186.274 69.4766C186.447 69.6565 186.534 69.8364 186.707 70.0163C187.053 70.376 187.399 70.5559 187.832 70.6458C188.091 70.6458 188.265 70.7358 188.524 70.7358C188.611 70.7358 188.697 70.7358 188.697 70.7358C188.957 70.7358 189.13 70.7358 189.39 70.6458C189.736 70.5559 189.996 70.376 190.255 70.1961C190.515 70.0163 190.775 69.7465 190.948 69.4766C191.034 69.2968 191.121 69.0269 191.207 68.8471C191.294 68.4873 191.294 68.0376 191.121 67.5879Z" fill="#A42A29"/>
<path d="M227.123 226.69C227.123 231.277 137.717 228.939 84.9213 234.965C35.7609 240.541 1.66016 230.378 1.66016 225.791C1.66016 221.204 21.7398 216.797 74.795 216.797C127.85 216.797 227.123 222.193 227.123 226.69Z" fill="#E0E0E0"/>
</svg>
