<svg width="48" height="48" viewBox="0 0 48 48" fill="none" xmlns="http://www.w3.org/2000/svg">
<rect width="48" height="48" rx="24" fill="#929497" fill-opacity="0.2"/>
<path d="M13.25 17.2308C13.25 16.2151 14.0071 15.25 15.1053 15.25H33.8947C34.9929 15.25 35.75 16.2151 35.75 17.2308V23.3846C35.75 23.7988 35.4142 24.1346 35 24.1346C34.5858 24.1346 34.25 23.7988 34.25 23.3846V17.2308C34.25 16.8877 34.0168 16.75 33.8947 16.75H15.1053C14.9832 16.75 14.75 16.8877 14.75 17.2308V30.7692C14.75 31.1123 14.9832 31.25 15.1053 31.25H28.3684C28.7826 31.25 29.1184 31.5858 29.1184 32C29.1184 32.4142 28.7826 32.75 28.3684 32.75H15.1053C14.0071 32.75 13.25 31.7849 13.25 30.7692V17.2308Z" fill="#A32A29"/>
<path d="M16.5658 28.3077C16.5658 27.8935 16.9016 27.5577 17.3158 27.5577H22.8421C23.2563 27.5577 23.5921 27.8935 23.5921 28.3077C23.5921 28.7219 23.2563 29.0577 22.8421 29.0577H17.3158C16.9016 29.0577 16.5658 28.7219 16.5658 28.3077Z" fill="#A32A29"/>
<path d="M31.1831 24.0574C31.4913 23.7806 31.9655 23.8061 32.2422 24.1143L35.5559 27.8042C35.669 27.9291 35.7407 28.0922 35.7491 28.2719C35.7503 28.2972 35.7503 28.3226 35.7489 28.348C35.7426 28.4674 35.7083 28.5794 35.6526 28.6776C35.6263 28.7238 35.5948 28.7678 35.558 28.8088L32.2422 32.5011C31.9655 32.8093 31.4913 32.8348 31.1831 32.558C30.8749 32.2813 30.8494 31.8071 31.1262 31.4989L33.3185 29.0577H25.0526C24.6384 29.0577 24.3026 28.7219 24.3026 28.3077C24.3026 27.8935 24.6384 27.5577 25.0526 27.5577H33.3184L31.1262 25.1165C30.8494 24.8083 30.8749 24.3341 31.1831 24.0574Z" fill="#A32A29"/>
</svg>
