<svg width="48" height="48" viewBox="0 0 48 48" fill="none" xmlns="http://www.w3.org/2000/svg">
<rect width="48" height="48" rx="24" fill="#929497" fill-opacity="0.2"/>
<path d="M28.2708 13.4424C27.9629 13.1654 27.4887 13.1905 27.2117 13.4984C26.9346 13.8063 26.9597 14.2805 27.2676 14.5576L31.045 17.9559H16C15.5858 17.9559 15.25 18.2917 15.25 18.7059C15.25 19.1201 15.5858 19.4559 16 19.4559H31.0449L27.2676 22.8542C26.9597 23.1312 26.9346 23.6055 27.2117 23.9134C27.4887 24.2213 27.9629 24.2464 28.2708 23.9693L33.497 19.2676C33.6522 19.1302 33.75 18.9295 33.75 18.7059C33.75 18.5131 33.6772 18.3373 33.5577 18.2044C33.5401 18.1848 33.5214 18.1661 33.5016 18.1483L28.2708 13.4424Z" fill="#A32A29"/>
<path d="M21.7883 24.2484C21.5113 23.9405 21.0371 23.9154 20.7292 24.1924L15.4984 28.8983C15.4744 28.9199 15.452 28.9428 15.4312 28.967C15.3183 29.0983 15.25 29.2691 15.25 29.4559C15.25 29.6795 15.3479 29.8803 15.5031 30.0177L20.7292 34.7193C21.0371 34.9964 21.5113 34.9713 21.7883 34.6634C22.0654 34.3555 22.0403 33.8812 21.7324 33.6042L17.9551 30.2059H33C33.4142 30.2059 33.75 29.8701 33.75 29.4559C33.75 29.0417 33.4142 28.7059 33 28.7059H17.955L21.7324 25.3076C22.0403 25.0305 22.0654 24.5563 21.7883 24.2484Z" fill="#A32A29"/>
</svg>
