<svg width="333" height="297" viewBox="0 0 333 297" fill="none" xmlns="http://www.w3.org/2000/svg">
<path d="M21.3205 175.758C44.4201 254.726 136.186 264.925 199.828 231.638C230.16 215.782 256.318 186.508 269.632 153.716C280.6 141.404 287.22 125.831 288.478 109.391C291.398 69.4581 266.804 35.4699 235.276 20.5914C204.53 6.08087 167.967 7.7136 134.323 12.8072C100.979 17.8549 68.8765 35.1594 47.6511 65.2728C26.2417 95.6737 10.7998 140.022 21.3205 175.758Z" fill="#F7F7F7"/>
<path d="M257.39 274.527L164.118 274.47C161.451 274.47 158.809 273.944 156.345 272.923C153.88 271.902 151.641 270.405 149.756 268.518C147.87 266.632 146.375 264.392 145.355 261.927C144.335 259.462 143.811 256.82 143.813 254.153V20.3171C143.811 17.6476 144.336 15.004 145.357 12.5376C146.378 10.0712 147.876 7.83036 149.764 5.9433C151.652 4.05624 153.894 2.55998 156.361 1.54017C158.828 0.520353 161.472 -0.00301058 164.141 1.30266e-05H257.413C260.086 2.3256e-06 262.733 0.527417 265.201 1.55204C267.67 2.57666 269.913 4.07834 271.8 5.97105C273.687 7.86375 275.183 10.1103 276.2 12.5819C277.218 15.0535 277.738 17.7016 277.73 20.3746V254.268C277.718 259.651 275.569 264.809 271.754 268.608C267.94 272.408 262.774 274.537 257.39 274.527Z" fill="#263238"/>
<path d="M257.354 8.32334H239.279C238.688 8.33526 238.105 8.46388 237.564 8.70179C237.023 8.9397 236.535 9.28222 236.127 9.70963C235.718 10.1371 235.399 10.6409 235.186 11.1923C234.973 11.7437 234.872 12.3317 234.887 12.9226V16.1995C234.902 16.7903 234.8 17.3783 234.588 17.9297C234.375 18.4811 234.055 18.985 233.647 19.4124C233.239 19.8398 232.75 20.1824 232.209 20.4203C231.668 20.6582 231.085 20.7868 230.495 20.7987H195.242C194.651 20.7853 194.069 20.6556 193.529 20.4172C192.988 20.1788 192.5 19.8362 192.093 19.4091C191.685 18.982 191.365 18.4787 191.152 17.928C190.938 17.3773 190.836 16.7899 190.849 16.1995V12.8766C190.863 12.2861 190.76 11.6988 190.547 11.1481C190.334 10.5973 190.014 10.0941 189.606 9.66695C189.198 9.23984 188.71 8.89728 188.17 8.65885C187.629 8.42042 187.047 8.29078 186.457 8.27734H164.266C160.493 8.27734 156.874 9.77548 154.205 12.4425C151.535 15.1095 150.034 18.7272 150.031 22.5004V250.748C150.03 252.617 150.397 254.468 151.111 256.195C151.825 257.922 152.872 259.491 154.193 260.813C155.514 262.135 157.082 263.183 158.809 263.899C160.535 264.614 162.386 264.983 164.254 264.983L257.389 265.04C261.147 265.019 264.744 263.511 267.394 260.846C270.044 258.181 271.531 254.575 271.531 250.817V22.5694C271.537 18.8012 270.048 15.1845 267.39 12.5135C264.732 9.84255 261.122 8.33552 257.354 8.32334Z" fill="white"/>
<path d="M260.115 31.366C260.115 31.435 257.758 31.504 254.86 31.527C251.963 31.55 249.605 31.527 249.605 31.458C249.605 31.389 251.905 31.3315 254.86 31.297C257.815 31.2625 260.115 31.3085 260.115 31.366Z" fill="#263238"/>
<path d="M260.138 34.0556C260.138 34.0556 257.781 34.1821 254.884 34.2051C251.986 34.2281 249.629 34.2051 249.629 34.2051C249.629 34.2051 251.929 34.0671 254.884 34.0441C257.839 34.0211 260.138 33.9981 260.138 34.0556Z" fill="#263238"/>
<path d="M260.162 36.7481C260.162 36.8056 257.804 36.8745 254.907 36.8975C252.009 36.9205 249.652 36.8975 249.652 36.8285C249.652 36.7596 251.952 36.7021 254.907 36.6791C257.862 36.6561 260.162 36.6906 260.162 36.7481Z" fill="#263238"/>
<path d="M186.239 86.9258H164.52V108.646H186.239V86.9258Z" fill="#E7515B"/>
<path d="M228.022 89.2582C228.022 89.3617 220.755 89.4421 211.798 89.4421C202.841 89.4421 195.574 89.3617 195.574 89.2582C195.574 89.1547 202.841 89.0742 211.798 89.0742C220.755 89.0742 228.022 89.1547 228.022 89.2582Z" fill="#E7515B"/>
<path d="M253.881 95.9183C253.881 96.0218 240.831 96.1023 224.733 96.1023C208.636 96.1023 195.574 96.0218 195.574 95.9183C195.574 95.8149 208.625 95.7344 224.733 95.7344C240.842 95.7344 253.881 95.8149 253.881 95.9183Z" fill="#263238"/>
<path d="M253.202 100.676C253.202 100.78 240.302 100.86 224.388 100.86C208.475 100.86 195.574 100.78 195.574 100.676C195.574 100.573 208.475 100.492 224.388 100.492C240.302 100.492 253.202 100.573 253.202 100.676Z" fill="#263238"/>
<path d="M229.597 105.207C229.597 105.311 221.985 105.391 212.591 105.391C203.197 105.391 195.574 105.311 195.574 105.207C195.574 105.104 203.197 105.023 212.591 105.023C221.985 105.023 229.597 105.104 229.597 105.207Z" fill="#263238"/>
<path d="M186.239 123.109H164.52V144.829H186.239V123.109Z" fill="#E7515B"/>
<path d="M228.022 125.489C228.022 125.592 220.755 125.673 211.798 125.673C202.841 125.673 195.574 125.592 195.574 125.489C195.574 125.385 202.841 125.305 211.798 125.305C220.755 125.305 228.022 125.339 228.022 125.489Z" fill="#E7515B"/>
<path d="M253.881 132.102C253.881 132.205 240.831 132.286 224.733 132.286C208.636 132.286 195.574 132.205 195.574 132.102C195.574 131.998 208.625 131.918 224.733 131.918C240.842 131.918 253.881 131.998 253.881 132.102Z" fill="#263238"/>
<path d="M253.202 136.86C253.202 136.963 240.302 137.044 224.388 137.044C208.475 137.044 195.574 136.963 195.574 136.86C195.574 136.756 208.475 136.676 224.388 136.676C240.302 136.676 253.202 136.756 253.202 136.86Z" fill="#263238"/>
<path d="M229.597 141.391C229.597 141.494 221.985 141.575 212.591 141.575C203.197 141.575 195.574 141.494 195.574 141.391C195.574 141.288 203.197 141.207 212.591 141.207C221.985 141.207 229.597 141.288 229.597 141.391Z" fill="#263238"/>
<path d="M186.239 159.293H164.52V181.013H186.239V159.293Z" fill="#E7515B"/>
<path d="M228.022 161.629C228.022 161.733 220.755 161.813 211.798 161.813C202.841 161.813 195.574 161.733 195.574 161.629C195.574 161.526 202.841 161.445 211.798 161.445C220.755 161.445 228.022 161.526 228.022 161.629Z" fill="#E7515B"/>
<path d="M253.881 168.286C253.881 168.389 240.831 168.47 224.733 168.47C208.636 168.47 195.574 168.389 195.574 168.286C195.574 168.182 208.625 168.102 224.733 168.102C240.842 168.102 253.881 168.194 253.881 168.286Z" fill="#263238"/>
<path d="M253.202 173.043C253.202 173.147 240.302 173.227 224.388 173.227C208.475 173.227 195.574 173.147 195.574 173.043C195.574 172.94 208.475 172.859 224.388 172.859C240.302 172.859 253.202 172.94 253.202 173.043Z" fill="#263238"/>
<path d="M229.597 177.575C229.597 177.678 221.985 177.759 212.591 177.759C203.197 177.759 195.574 177.678 195.574 177.575C195.574 177.471 203.197 177.391 212.591 177.391C221.985 177.391 229.597 177.483 229.597 177.575Z" fill="#263238"/>
<path d="M186.239 195.477H164.52V217.196H186.239V195.477Z" fill="#E7515B"/>
<path d="M228.022 197.824C228.022 197.916 220.755 198.008 211.798 198.008C202.841 198.008 195.574 197.916 195.574 197.824C195.574 197.732 202.841 197.629 211.798 197.629C220.755 197.629 228.022 197.721 228.022 197.824Z" fill="#455B64"/>
<path d="M253.881 204.481C253.881 204.573 240.831 204.665 224.733 204.665C208.636 204.665 195.574 204.573 195.574 204.481C195.574 204.389 208.625 204.297 224.733 204.297C240.842 204.297 253.881 204.377 253.881 204.481Z" fill="#263238"/>
<path d="M253.202 209.231C253.202 209.334 240.302 209.415 224.388 209.415C208.475 209.415 195.574 209.334 195.574 209.231C195.574 209.127 208.475 209.047 224.388 209.047C240.302 209.047 253.202 209.127 253.202 209.231Z" fill="#263238"/>
<path d="M229.597 213.77C229.597 213.862 221.985 213.954 212.591 213.954C203.197 213.954 195.574 213.862 195.574 213.77C195.574 213.678 203.197 213.586 212.591 213.586C221.985 213.586 229.597 213.666 229.597 213.77Z" fill="#263238"/>
<path d="M186.239 231.664H164.52V253.384H186.239V231.664Z" fill="#E0E0E0"/>
<path d="M228.022 234.008C228.022 234.112 220.755 234.192 211.798 234.192C202.841 234.192 195.574 234.112 195.574 234.008C195.574 233.905 202.841 233.824 211.798 233.824C220.755 233.824 228.022 233.905 228.022 234.008Z" fill="#E0E0E0"/>
<path d="M253.881 240.664C253.881 240.768 240.831 240.848 224.733 240.848C208.636 240.848 195.574 240.768 195.574 240.664C195.574 240.561 208.625 240.48 224.733 240.48C240.842 240.48 253.881 240.561 253.881 240.664Z" fill="#EBEBEB"/>
<path d="M253.202 245.414C253.202 245.518 240.302 245.598 224.388 245.598C208.475 245.598 195.574 245.518 195.574 245.414C195.574 245.311 208.475 245.23 224.388 245.23C240.302 245.23 253.202 245.311 253.202 245.414Z" fill="#EBEBEB"/>
<path d="M229.597 249.957C229.597 250.061 221.985 250.141 212.591 250.141C203.197 250.141 195.574 250.061 195.574 249.957C195.574 249.854 203.197 249.773 212.591 249.773C221.985 249.773 229.597 249.854 229.597 249.957Z" fill="#EBEBEB"/>
<g opacity="0.3">
<path opacity="0.3" d="M186.239 195.477H164.52V217.196H186.239V195.477Z" fill="black"/>
</g>
<g opacity="0.3">
<path opacity="0.3" d="M186.239 123.109H164.52V144.829H186.239V123.109Z" fill="black"/>
</g>
<path d="M240.491 20.1611L183.531 27.6094L193.723 105.547L250.682 98.0982L240.491 20.1611Z" fill="#F5F6F6"/>
<path d="M228.694 15.8174L171.734 23.2656L181.926 101.203L238.885 93.7545L228.694 15.8174Z" fill="white"/>
<path d="M238.854 93.7793L238.785 93.3999C238.785 93.1469 238.705 92.779 238.636 92.2501C238.498 91.2268 238.303 89.847 238.05 88.0073C237.555 84.282 236.819 78.8089 235.899 72.002C234.071 58.2964 231.53 38.8417 228.437 15.8341L228.702 16.0411L171.763 23.5148L171.982 23.2159C175.776 52.3289 179.283 79.2803 182.123 101.161L181.882 100.966L223.275 95.6765L234.773 94.2278L237.854 93.8598L238.877 93.7449L237.854 93.8943L234.853 94.3083L223.355 95.8605L181.882 101.403H181.675V101.196C178.8 79.3493 175.27 52.3749 171.441 23.2733V23.0089H171.694L228.644 15.5352H228.874V15.7766C231.841 38.8762 234.347 58.3884 236.118 72.117C236.98 79.0159 237.67 84.3624 238.13 88.0878C238.372 89.916 238.532 91.3303 238.659 92.2961L238.785 93.3769C238.889 93.5609 238.866 93.6644 238.854 93.7793Z" fill="#A42A29"/>
<path d="M208.559 34.3928C208.559 34.5423 202.361 35.4736 194.761 36.4739C187.161 37.4743 180.906 38.1642 180.895 38.0147C180.883 37.8652 187.08 36.9569 194.692 35.945C202.304 34.9332 208.57 34.2548 208.559 34.3928Z" fill="#A42A29"/>
<path d="M224.412 39.2572C224.412 39.3951 214.903 40.7634 203.129 42.2926C191.355 43.8219 181.789 44.9717 181.766 44.8222C181.743 44.6727 191.286 43.316 203.06 41.7867C214.834 40.2575 224.423 39.0732 224.412 39.2572Z" fill="#A42A29"/>
<path d="M225.369 46.2793C225.369 46.4173 215.86 47.7855 204.086 49.3263C192.312 50.867 182.757 51.9593 182.711 51.8559C182.665 51.7524 192.22 50.3496 203.994 48.8089C215.768 47.2681 225.346 46.1528 225.369 46.2793Z" fill="#A42A29"/>
<path d="M226.299 53.3512C226.299 53.4892 216.778 54.8574 205.016 56.3982C193.253 57.9389 183.664 59.0657 183.652 58.9162C183.641 58.7668 193.15 57.41 204.947 55.8808C216.744 54.3515 226.31 53.2132 226.299 53.3512Z" fill="#A42A29"/>
<path d="M227.217 60.4116C227.217 60.5496 217.708 61.9179 205.923 63.4586C194.137 64.9994 184.594 66.1377 184.594 65.9882C184.594 65.8387 194.103 64.4819 205.877 62.9412C217.651 61.4005 227.194 60.2622 227.217 60.4116Z" fill="#A42A29"/>
<path d="M228.174 67.4821C228.174 67.62 218.653 68.9883 206.891 70.529C195.128 72.0698 185.539 73.1966 185.527 73.0586C185.516 72.9206 195.036 71.5409 206.822 70.0001C218.607 68.4594 228.128 67.3326 228.174 67.4821Z" fill="#A42A29"/>
<path d="M229.057 74.5444C229.057 74.6824 219.548 76.0507 207.774 77.5914C196 79.1322 186.446 80.2705 186.457 80.1325C186.469 79.9945 195.966 78.6147 207.751 77.074C219.537 75.5333 229.046 74.395 229.057 74.5444Z" fill="#A42A29"/>
<path d="M210.271 84.1902C210.271 84.3282 205.166 85.1216 198.842 85.9494C192.518 86.7773 187.344 87.3292 187.344 87.1797C187.344 87.0302 192.437 86.2484 198.773 85.432C205.108 84.6157 210.248 84.0983 210.271 84.1902Z" fill="#A42A29"/>
<path d="M333 273.526C333 281.827 195.127 296.706 135.889 296.522C75.5247 296.361 7.82422 285.346 7.82422 277.044C7.82422 268.743 60.6232 260.016 125.484 260.016C190.344 260.016 333 265.236 333 273.526Z" fill="#E0E0E0"/>
<path d="M217.342 110.704C217.261 110.704 215.548 98.7923 213.536 84.0978C211.524 69.4033 209.949 57.4568 210.087 57.4453C210.225 57.4338 211.88 69.3458 213.904 84.0518C215.928 98.7578 217.434 110.681 217.342 110.704Z" fill="#A42A29"/>
<path d="M267.529 45.543C267.529 45.543 267.529 45.612 267.529 45.7269L267.322 46.2558L266.54 48.2795L263.642 55.7187C261.205 61.9967 257.893 70.6662 254.329 80.359C250.765 90.0519 247.718 98.7559 245.521 105.183L242.934 112.726C242.624 113.6 242.394 114.29 242.221 114.784L242.026 115.313L241.957 115.486C241.957 115.486 241.957 115.428 241.957 115.302L242.118 114.761C242.271 114.271 242.49 113.581 242.773 112.692C243.348 110.898 244.199 108.299 245.268 105.103C247.407 98.7099 250.454 89.9139 253.995 80.2441C257.537 70.5742 260.894 61.8472 263.389 55.6383C264.631 52.5108 265.689 49.9812 266.379 48.2335C266.747 47.3827 267.023 46.7158 267.218 46.2328L267.448 45.7154C267.471 45.6561 267.498 45.5985 267.529 45.543Z" fill="#A42A29"/>
<path d="M303.496 92.399C303.496 92.468 294.837 99.2978 284.041 107.634C273.244 115.97 264.437 122.696 264.379 122.581C264.322 122.466 273.037 115.683 283.845 107.335C294.654 98.9874 303.45 92.33 303.496 92.399Z" fill="#A42A29"/>
<path d="M196.209 112.922C196.14 112.922 192.76 108.679 188.689 103.332C184.619 97.9857 181.342 93.6049 181.411 93.5474C181.48 93.49 184.861 97.7902 188.942 103.137C193.024 108.483 196.278 112.841 196.209 112.922Z" fill="#A42A29"/>
<path d="M299.392 146.472C299.392 146.564 294.022 145.081 287.468 143.16C280.914 141.24 275.602 139.631 275.625 139.55C275.648 139.47 280.995 140.941 287.549 142.861C294.102 144.782 299.415 146.391 299.392 146.472Z" fill="#A42A29"/>
<path d="M99.565 113.025C93.3445 111.875 78.4316 110.806 71.4062 114.669C71.4062 114.669 71.5212 121.039 74.3498 122.936C77.1783 124.834 100.795 109.196 111.017 133.503C111.017 133.503 111.143 115.106 99.519 113.025H99.565Z" fill="#B72F49"/>
<path d="M66.3257 215.449L61.2781 227.936C61.2781 227.936 26.5655 220.417 7.7087 226.672C0.53392 229.029 -5.03114 246.805 7.16829 256.038C19.0228 264.983 91.2305 278.217 90.3107 278.229C89.3908 278.24 110.904 278.666 110.904 278.666L113.203 259.326L153.228 260.05C183.548 257.176 184.756 226.534 168.98 223.004C151.216 219.037 124.069 217.255 124.069 217.255L119.757 207.527L66.3257 215.449Z" fill="#8B383F"/>
<path d="M108.211 198.697C108.068 199.015 107.895 199.319 107.694 199.605C107.192 200.406 106.639 201.174 106.038 201.904C105.15 203.013 104.19 204.062 103.163 205.043C100.647 207.441 97.758 209.414 94.6088 210.884C93.3298 211.494 92.0078 212.009 90.6535 212.425C89.7452 212.716 88.8197 212.95 87.8825 213.127C87.5448 213.218 87.1974 213.268 86.8477 213.276C86.8477 213.196 88.2964 212.92 90.5615 212.126C91.8831 211.669 93.177 211.136 94.4364 210.528C95.9776 209.774 97.4644 208.913 98.8861 207.952C100.306 206.994 101.665 205.95 102.956 204.825C103.984 203.874 104.951 202.86 105.854 201.789C107.349 199.915 108.142 198.651 108.211 198.697Z" fill="#263238"/>
<path d="M124.232 205.63C124.232 205.757 122.795 205.964 121.139 206.631C119.483 207.298 118.276 208.137 118.195 208.033C118.955 207.208 119.913 206.591 120.978 206.24C121.992 205.759 123.113 205.549 124.232 205.63Z" fill="#263238"/>
<g opacity="0.3">
<path opacity="0.3" d="M90.5426 212.357C97.4001 210.096 103.263 205.529 107.134 199.434C107.732 200.659 107.981 202.024 107.853 203.381C107.725 204.738 107.226 206.034 106.41 207.126C108.595 207.816 110.917 206.838 113.125 206.217C115.332 205.597 118.138 205.516 119.483 207.367C109.542 209.702 99.46 211.391 89.3008 212.426" fill="black"/>
</g>
<path d="M201.587 105.171C201.468 104.95 201.304 104.757 201.106 104.603C200.908 104.448 200.681 104.336 200.438 104.274L201.093 102.526C200.977 101.948 200.75 101.398 200.426 100.905C199.955 100.25 198.54 100.457 198.54 100.457L198.701 99.9736C198.839 99.6304 198.883 99.2567 198.829 98.8909C198.774 98.5251 198.623 98.1805 198.391 97.8925L198.149 97.6395C197.604 97.2132 196.943 96.9608 196.252 96.9151C196.252 96.9151 196.942 95.2479 196.471 94.6155C194.758 92.4769 188.94 97.0646 187.709 97.5935C184.812 98.8468 187.261 99.0653 184.904 100.158C184.724 100.267 184.524 100.34 184.315 100.372C184.107 100.404 183.894 100.394 183.69 100.342C183.485 100.291 183.293 100.199 183.125 100.073C182.956 99.9464 182.814 99.7876 182.708 99.6057C181.771 97.6029 180.526 95.7599 179.017 94.1441C177.292 92.4654 175.878 92.7643 175.073 93.1783C174.983 93.2246 174.904 93.2902 174.843 93.3703C174.781 93.4504 174.737 93.5431 174.716 93.6418C174.694 93.7406 174.694 93.8429 174.716 93.9416C174.738 94.0404 174.781 94.133 174.843 94.2131C175.799 95.4217 176.678 96.689 177.476 98.0075C177.993 99.0308 179.281 106.987 179.281 106.987L177.533 111.403L159.079 148.76C159.079 148.76 123.24 129.765 123.309 129.213L124.458 155.233L151.444 169.295C153.756 170.504 156.305 171.191 158.911 171.308C161.516 171.426 164.116 170.971 166.528 169.976C168.939 168.98 171.103 167.469 172.867 165.548C174.631 163.627 175.953 161.342 176.74 158.855L186.398 121.555L188.135 118.325L201.242 109.758C201.698 109.091 201.969 108.316 202.03 107.511C202.09 106.705 201.938 105.898 201.587 105.171Z" fill="#8F5045"/>
<path d="M194.482 98.204C194.068 98.5259 193.596 98.7904 193.171 99.0893L191.86 99.9977C191.331 100.366 190.779 100.711 190.239 101.056C189.919 101.085 189.613 101.2 189.354 101.389C189.047 101.598 188.762 101.837 188.503 102.102L188.411 102.205H188.296L188.077 102.067H187.997L187.928 102.01L187.744 101.826L187.629 101.688V101.607L187.456 101.446C187.456 101.446 187.456 101.446 187.399 101.446C187.361 101.417 187.318 101.393 187.273 101.377C187.251 101.366 187.228 101.361 187.204 101.361C187.18 101.361 187.156 101.366 187.135 101.377C187.135 101.377 187.066 101.435 187.043 101.481C186.994 101.577 186.969 101.684 186.969 101.791C186.969 101.899 186.994 102.006 187.043 102.102C187.065 102.161 187.091 102.219 187.123 102.274C187.158 102.337 187.2 102.395 187.25 102.447C187.297 102.506 187.351 102.56 187.41 102.608L187.675 102.803C187.765 102.858 187.861 102.901 187.962 102.93H188.066C187.769 103.328 187.536 103.77 187.376 104.24C187.243 104.587 187.214 104.965 187.291 105.329C187.369 105.692 187.55 106.025 187.813 106.287C188.035 106.513 188.326 106.659 188.641 106.701C188.75 106.73 188.865 106.73 188.974 106.701C189.039 106.68 189.098 106.645 189.147 106.598H189.078C189.233 106.539 189.36 106.424 189.434 106.276C189.451 106.247 189.462 106.215 189.464 106.181C189.466 106.148 189.46 106.115 189.446 106.084C189.433 106.054 189.412 106.027 189.386 106.006C189.36 105.986 189.329 105.971 189.296 105.965H189.032C188.863 105.924 188.698 105.87 188.537 105.804C188.373 105.715 188.244 105.573 188.169 105.402C188.097 105.138 188.085 104.861 188.134 104.593C188.184 104.324 188.294 104.07 188.457 103.85C188.735 103.377 189.075 102.944 189.469 102.562C189.676 102.366 189.871 102.182 190.09 101.998C190.213 101.9 190.328 101.792 190.434 101.676C191.064 101.327 191.675 100.943 192.263 100.527C192.688 100.239 193.091 99.9172 193.493 99.5838C193.895 99.2503 194.252 98.8019 194.643 98.4339C194.574 98.2385 194.528 98.181 194.482 98.204Z" fill="#703E38"/>
<path d="M196.69 101.653C196.141 101.863 195.635 102.171 195.195 102.562L193.7 103.711C193.218 104.068 192.723 104.401 192.252 104.758C191.78 105.114 191.355 105.528 190.918 105.908C190.918 105.908 190.918 105.999 190.918 105.988C191.483 105.805 192.032 105.578 192.562 105.31C193.103 105.015 193.629 104.692 194.137 104.344C194.643 104.01 195.138 103.677 195.621 103.332C196.157 103.01 196.619 102.579 196.977 102.067C197.005 102.022 197.019 101.969 197.017 101.916C197.015 101.862 196.998 101.811 196.968 101.767C196.938 101.723 196.895 101.689 196.846 101.669C196.796 101.649 196.742 101.643 196.69 101.653Z" fill="#703E38"/>
<path d="M198.831 105.587C198.576 105.638 198.339 105.752 198.141 105.92C197.876 106.092 197.612 106.276 197.359 106.472L195.795 107.622C194.737 108.369 193.611 109.013 192.599 109.818C192.233 110.008 191.847 110.158 191.449 110.266C190.94 110.382 190.405 110.3 189.954 110.036C189.748 109.924 189.576 109.758 189.456 109.555C189.337 109.353 189.274 109.122 189.276 108.886C189.301 108.606 189.379 108.333 189.506 108.082C189.644 107.817 189.759 107.541 189.92 107.288C189.92 107.288 189.92 107.219 189.862 107.288C189.626 107.518 189.411 107.768 189.218 108.036C189.04 108.314 188.926 108.628 188.885 108.955C188.87 109.239 188.929 109.521 189.056 109.775C189.183 110.029 189.374 110.246 189.609 110.404C190.062 110.721 190.611 110.871 191.162 110.83C191.034 110.932 190.925 111.057 190.84 111.198C190.655 111.538 190.585 111.929 190.641 112.313C190.697 112.696 190.876 113.051 191.15 113.325C191.469 113.643 191.865 113.873 192.3 113.992C192.567 114.053 192.842 114.08 193.116 114.072C193.392 114.072 193.795 114.072 193.91 113.762C193.942 113.716 193.96 113.662 193.96 113.606C193.96 113.551 193.942 113.496 193.91 113.451C193.726 113.267 193.507 113.325 193.277 113.348C193.09 113.365 192.901 113.365 192.714 113.348C192.368 113.34 192.029 113.25 191.725 113.083C191.48 112.914 191.296 112.671 191.201 112.389C191.106 112.107 191.104 111.802 191.196 111.52C191.295 111.215 191.488 110.949 191.748 110.761C192.286 110.656 192.798 110.444 193.254 110.14C194.327 109.627 195.341 108.998 196.278 108.266C196.796 107.886 197.29 107.484 197.773 107.116C198.037 106.903 198.284 106.668 198.509 106.414C198.726 106.236 198.889 106.001 198.98 105.736C198.98 105.736 198.865 105.575 198.831 105.587Z" fill="#703E38"/>
<path d="M77.7792 119.766L66.6836 123.388L74.6172 144.015L95.1643 146.2L107.904 134.955L108.559 123.043L96.2681 119.835L77.7792 119.766Z" fill="#D0D8DC"/>
<path d="M69.9467 122.156C69.9467 122.156 79.996 143.635 93.9661 140.07C107.936 136.506 105.257 122.179 105.257 122.179C105.257 122.179 120.55 125.111 125.632 129.434C130.714 133.758 129.15 144.474 129.15 144.474L127.31 163.756L122.803 200.803C122.803 200.803 128.552 214.853 120.653 218.165L105.706 222.488L69.6133 225.075C69.6133 225.075 58.1152 229.674 54.3554 225.811C50.5955 221.948 46.6172 214.21 46.6172 214.21L59.9779 125.905L69.9467 122.156Z" fill="#D0D8DC"/>
<path d="M121.426 126.997C121.84 127.181 158.875 148.522 158.875 148.522L176.996 110.785C177.456 116.166 183.331 122.962 188.781 120.639C188.781 120.639 173.638 184.005 164.233 181.349C161.554 180.601 123.771 162.147 123.771 162.147L115.516 148.487L121.426 126.997Z" fill="#D0D8DC"/>
<g opacity="0.3">
<path opacity="0.3" d="M69.9704 182.084C67.7935 176.542 65.628 171.004 63.474 165.469C63.1521 164.664 62.6692 163.722 61.8068 163.664C61.401 163.684 61.0182 163.859 60.7362 164.151C60.4543 164.444 60.2944 164.833 60.2891 165.239C60.2465 166.077 60.32 166.917 60.5075 167.734C61.2664 171.414 61.8298 173.909 63.865 176.599C67.8318 181.842 65.9001 184.797 65.9001 184.797C66.889 191.604 67.3029 200.975 65.9001 208.219L68.8091 216.463C70.0394 209.967 73.8338 204.264 73.8683 197.652C73.9258 192.271 71.9136 187.097 69.9704 182.084Z" fill="black"/>
</g>
<g opacity="0.3">
<path opacity="0.3" d="M127.289 163.871C133.165 166.171 138.534 169.62 144.295 172.173C141.674 167.757 137.778 164.237 133.119 162.078C131.924 161.469 130.566 161.259 129.244 161.48C127.944 161.802 127.082 162.63 127.416 163.929" fill="black"/>
</g>
<g opacity="0.3">
<path opacity="0.3" d="M157.886 148.234C155.989 148.395 154.736 150.27 153.977 152.029C151.847 157.025 151.348 162.565 152.551 167.862C152.769 168.816 153.241 169.931 154.218 170.012C154.569 170.013 154.911 169.902 155.195 169.696C155.478 169.489 155.688 169.197 155.793 168.862C155.985 168.181 156.016 167.465 155.885 166.769C155.529 163.504 154.609 160.836 155.092 156.984C155.639 153.959 156.578 151.017 157.886 148.234Z" fill="black"/>
</g>
<path d="M99.9808 107.574L97.3248 126.074C97.3248 126.074 87.2065 133.456 75.237 122.625C76.8823 114.003 76.0122 105.09 72.7305 96.9498C72.7305 96.9498 74.4207 96.8693 77.1112 96.9498C77.1112 96.9498 81.2505 110.472 99.9808 107.632V107.574Z" fill="#703E38"/>
<path d="M70.5914 85.0406C73.2359 112.532 100.072 113.682 105.833 102.817C107.684 99.3672 109.087 93.1812 109.627 86.5814C109.765 85.0866 109.846 83.5804 109.869 82.0626C110.064 71.7949 107.995 61.6536 102.039 59.5379C81.342 52.1677 67.9583 57.5488 70.5914 85.0406Z" fill="#8F5045"/>
<path d="M110.582 61.4473C111.513 59.5157 110.582 56.6871 108.075 56.4457L108.006 56.3077C108.234 55.4661 108.139 54.5699 107.742 53.794C107.344 53.018 106.672 52.418 105.856 52.1109V52.0419C105.922 52.057 105.984 52.0843 106.04 52.1224L105.845 51.9959C105.834 51.5458 105.728 51.103 105.536 50.696C105.343 50.2891 105.067 49.9271 104.726 49.6335C104.384 49.3398 103.985 49.121 103.554 48.9912C103.123 48.8614 102.669 48.8235 102.223 48.88C101.953 48.9106 101.687 48.9683 101.429 49.0524C101.111 48.5655 100.661 48.1792 100.132 47.9389C99.6025 47.6986 99.0155 47.6142 98.4398 47.6957C98.1922 47.7167 97.9486 47.7709 97.7154 47.8566C97.3761 47.5506 96.9735 47.3229 96.5364 47.1898C96.0993 47.0567 95.6382 47.0213 95.1859 47.0863C94.94 47.1116 94.6973 47.1617 94.4615 47.2357C93.8014 46.7528 92.9869 46.5294 92.1728 46.6078C91.3588 46.6862 90.6019 47.0611 90.0462 47.6612C89.7127 47.2311 89.2705 46.8978 88.7652 46.6957C88.2599 46.4936 87.7098 46.4299 87.1717 46.5114C86.5878 46.5631 86.0282 46.7695 85.5505 47.1093C85.2229 46.8457 84.8446 46.6525 84.439 46.5417C84.0335 46.4309 83.6094 46.4049 83.1934 46.4654C82.4983 46.516 81.8394 46.795 81.3192 47.2587C80.7745 47.017 80.174 46.9295 79.583 47.0058C79.2995 47.0402 79.0215 47.1097 78.7551 47.2127C78.175 46.9652 77.5381 46.8815 76.9137 46.9707C76.2893 47.0599 75.7014 47.3186 75.2137 47.7187C74.7034 47.4991 74.1447 47.4159 73.5925 47.4772C72.9055 47.5219 72.2536 47.797 71.7424 48.2582C71.2312 48.7193 70.8905 49.3395 70.7755 50.0183H70.6835C70.2652 50.0515 69.8576 50.1674 69.4844 50.3593C69.1111 50.5511 68.7797 50.8151 68.5091 51.1359C68.2386 51.4567 68.0343 51.8279 67.9083 52.2282C67.7822 52.6284 67.7367 53.0497 67.7745 53.4677C67.2887 53.2936 66.7683 53.2384 66.2568 53.3067C65.7413 53.3611 65.2459 53.5362 64.8107 53.8178C64.3754 54.0994 64.0127 54.4795 63.7518 54.9274C63.4909 55.3753 63.3392 55.8784 63.3089 56.3959C63.2787 56.9133 63.3708 57.4307 63.5777 57.9059H63.4052C62.9211 57.9508 62.4531 58.1033 62.0354 58.3521C61.6177 58.601 61.2609 58.94 60.9909 59.3444C60.721 59.7487 60.5447 60.2083 60.4751 60.6895C60.4054 61.1707 60.4441 61.6614 60.5882 62.1257C58.0242 63.057 57.9667 66.5984 59.8638 68.0472C59.1258 68.617 58.6386 69.4519 58.5055 70.3748C58.3724 71.2977 58.6039 72.2362 59.151 72.9914C59.0585 73.559 59.0976 74.1402 59.265 74.6904C59.4324 75.2405 59.7238 75.7449 60.1168 76.1648C59.7234 76.9293 59.6092 77.8071 59.7939 78.6468C59.9787 79.4864 60.4507 80.2353 61.1286 80.764C62.4624 89.4681 66.7282 98.1606 75.5702 102.944L73.811 96.7923C73.811 96.7923 70.1201 91.4457 70.9135 87.4214C71.7068 83.3971 74.1789 86.2716 74.1789 86.2716C74.1789 86.2716 79.3645 75.4864 78.6632 68.8291L77.9503 62.1717C77.9503 62.1717 97.2785 55.5373 106.868 64.1724L107.109 64.1034C107.14 64.4221 107.236 64.7313 107.389 65.0124C107.542 65.2935 107.751 65.5407 108.002 65.7393C108.253 65.9379 108.542 66.0838 108.851 66.1682C109.16 66.2526 109.483 66.2738 109.8 66.2305C112.559 66.0235 112.594 62.3787 110.582 61.4473Z" fill="#0E3944"/>
<path d="M73.4794 84.9261C73.4794 84.9261 68.8802 79.729 64.8098 83.0059C60.7395 86.2829 67.8223 95.8493 72.3066 95.4238C76.7908 94.9984 73.4564 84.9261 73.4564 84.9261H73.4794Z" fill="#8F5045"/>
<path d="M73.891 260.59C73.891 260.59 43.6051 269.673 41.9264 270.26C31.4517 273.951 38.7874 294.751 58.8515 289.025C62.5999 288.266 88.137 280.263 88.137 280.263L73.891 260.59Z" fill="#0E3944"/>
<path d="M60.4172 278.415C60.1412 277.564 59.8423 276.725 59.5088 275.897C59.1754 275.069 58.8305 274.311 58.451 273.529C58.1519 272.734 57.6385 272.037 56.9678 271.517C56.9302 271.491 56.887 271.475 56.8418 271.47C56.7967 271.465 56.751 271.472 56.7089 271.489C56.6669 271.506 56.6296 271.533 56.6006 271.568C56.5715 271.603 56.5515 271.645 56.5423 271.689C56.5132 272.506 56.6787 273.318 57.0253 274.058C57.3012 274.874 57.5772 275.702 57.8416 276.53C58.1061 277.358 58.359 278.174 58.612 279.013C58.715 279.893 59.0569 280.728 59.6008 281.428C59.6986 281.504 59.8132 281.556 59.935 281.58C60.0569 281.603 60.1825 281.597 60.3016 281.562C60.4207 281.527 60.5298 281.465 60.6199 281.379C60.7099 281.294 60.7784 281.188 60.8196 281.071C60.9601 280.166 60.8196 279.239 60.4172 278.415Z" fill="#D0D8DC"/>
<path d="M67.1421 278.161C66.4867 276.873 65.8773 275.562 65.2794 274.252C64.9804 273.608 64.6815 272.964 64.3595 272.331C64.0376 271.699 63.7846 270.963 63.1408 270.791L63.0028 270.641C62.9108 270.526 62.6693 270.561 62.6693 270.733C62.6693 270.906 62.5199 271.078 62.4854 271.297C62.4684 271.457 62.4684 271.619 62.4854 271.78C62.5485 272.17 62.6447 272.555 62.7728 272.929C62.9683 273.608 63.2097 274.275 63.4627 274.942C64.0146 276.31 64.6125 277.632 65.2909 278.954C65.3577 279.117 65.4667 279.259 65.6066 279.365C65.7465 279.472 65.9123 279.539 66.0868 279.56C66.2614 279.581 66.4384 279.555 66.5996 279.485C66.7608 279.415 66.9004 279.303 67.0041 279.161C67.1183 279.024 67.1918 278.858 67.2162 278.681C67.2406 278.504 67.2149 278.324 67.1421 278.161Z" fill="#D0D8DC"/>
<path d="M111.986 258.672C111.986 258.672 143.41 259.212 145.157 259.155C155.506 258.856 158.633 276.275 142.317 277.437C138.557 277.701 107.363 278.46 107.363 278.46L111.986 258.672Z" fill="#0E3944"/>
<path d="M120.135 264.247C120.12 264.167 120.083 264.092 120.027 264.031C119.971 263.971 119.9 263.928 119.821 263.906C119.741 263.884 119.658 263.886 119.579 263.909C119.501 263.933 119.43 263.979 119.376 264.04C119.148 264.393 118.981 264.782 118.882 265.19C118.756 265.639 118.629 266.087 118.526 266.536C118.296 267.421 118.123 268.318 117.974 269.215C117.793 270.098 117.674 270.993 117.617 271.894C117.617 272.836 118.675 273.825 119.56 273.124C119.69 273.024 119.791 272.892 119.851 272.74C119.912 272.588 119.931 272.423 119.905 272.262C119.877 272.111 119.814 271.969 119.721 271.848C119.914 270.731 120.022 269.601 120.043 268.467L120.147 266.386C120.147 266.145 120.147 265.903 120.147 265.662C120.229 265.194 120.226 264.714 120.135 264.247Z" fill="#D0D8DC"/>
<path d="M126.091 264.617C126.054 264.523 126.003 264.434 125.942 264.353C125.93 264.344 125.916 264.34 125.902 264.34C125.887 264.34 125.873 264.344 125.861 264.353C125.366 264.9 125.081 265.605 125.057 266.342C124.907 267.089 124.827 267.848 124.746 268.642C124.492 270.2 124.358 271.776 124.344 273.356C124.344 274.345 125.988 274.322 126.068 273.356C126.068 273.356 126.068 273.252 126.068 273.195C126.131 273.123 126.182 273.042 126.218 272.953C126.343 272.56 126.394 272.147 126.367 271.735C126.367 271.355 126.367 270.964 126.367 270.585C126.367 269.849 126.459 269.113 126.528 268.377C126.597 267.641 126.678 266.905 126.747 266.17C126.816 265.629 126.793 264.617 126.091 264.617Z" fill="#D0D8DC"/>
<path d="M135.718 177.001C138.777 182.888 139.167 198.272 137.431 202.538C135.431 207.367 123.726 206.643 123.726 206.643C123.726 206.643 119.632 168.205 115.596 148.888C111.561 129.571 101.695 118.418 101.695 118.418C101.695 118.418 122.288 116.866 126.669 127.939C128.82 133.198 129.722 138.886 129.302 144.553C129.23 145.501 129.092 146.442 128.888 147.37H129.061C129.739 147.37 132.108 148.175 134.614 156.166C137.581 165.606 134.315 175.184 134.315 175.184C134.908 175.687 135.386 176.31 135.718 177.012V177.001Z" fill="#EF4153"/>
<path d="M111.653 135.836C111.653 135.836 113.837 123.695 108.985 118.589C104.133 113.484 99.4531 113.07 99.4531 113.07C99.4531 113.07 105.743 117.842 106.904 121.303C108.065 124.764 111.653 135.836 111.653 135.836Z" fill="#CE374C"/>
<path d="M116.848 148.74C121.206 148.062 125.417 146.647 129.3 144.555C129.228 145.502 129.09 146.444 128.886 147.372C128.886 147.372 121.251 149.246 116.848 148.74Z" fill="#CE374C"/>
<path d="M135.717 177C131.52 177.728 127.256 178.002 123 177.816C123 177.816 131.21 176.977 134.314 175.172C134.906 175.675 135.385 176.298 135.717 177Z" fill="#CE374C"/>
<path d="M85.2863 136.505C85.2863 136.505 87.7009 123.857 86.0912 120.12C84.4815 116.384 71.9601 113.497 70.9712 114.797C69.9824 116.096 69.1316 119.683 70.7873 123.696C70.7873 123.696 78.399 124.007 85.2863 136.505Z" fill="#CE374C"/>
<path d="M99.5662 113.027L98.1289 120.524C103.062 121.984 107.741 125.675 111.018 133.505C111.018 133.505 111.145 115.108 99.5202 113.027H99.5662Z" fill="#B72F49"/>
<path d="M94.0711 171.035C97.463 203.333 89.5983 214.106 89.5983 214.106C89.5983 214.106 66.1768 219.855 61.3476 215.613C56.5185 211.37 59.048 195.836 59.048 195.836C58.0769 193.997 57.2019 192.109 56.4265 190.179C55.8286 188.742 55.1847 187.074 54.5868 185.269C53.9889 183.464 53.437 181.555 52.9886 179.578C52.0612 175.715 52.2244 171.671 53.46 167.896C53.742 166.963 54.1277 166.064 54.6098 165.217C54.6098 165.217 47.9294 147.004 48.9987 138.472C49.2147 136.684 49.8191 134.966 50.7694 133.436C55.9091 124.962 69.8562 122.168 69.8562 122.168C73.9265 122.789 85.597 128.262 90.1387 147.855L94.0711 171.035Z" fill="#EF4153"/>
<path d="M85.8166 153.27C82.7696 158.307 61.5672 160.951 61.5672 160.951C61.5672 160.951 49.9082 183.073 60.7048 188.27C71.306 193.364 88.5071 186.971 89.1395 186.741C85.5981 190.386 61.3947 195.342 56.4851 190.191C56.2582 189.963 56.0716 189.699 55.9332 189.409C55.3379 188.092 54.9129 186.705 54.6684 185.281C53.7525 179.537 53.3676 173.722 53.5186 167.907C53.8006 166.974 54.1862 166.076 54.6684 165.228C54.6684 165.228 47.988 147.015 49.0573 138.484C49.2733 136.696 49.8777 134.977 50.828 133.448C63.4759 132.298 67.1208 155.421 67.1208 155.421C70.7656 156.283 85.7821 153.293 85.7821 153.293L85.8166 153.27Z" fill="#CE374C"/>
<path d="M82.4224 261.305L76.9378 252.221L62.9332 200.331C62.9332 200.331 52.2975 194.961 44.5363 208.379C44.2259 208.92 58.1845 245.874 62.0709 256.154L63.0712 266.123C63.0712 266.123 63.0712 278 63.7611 279C64.3174 279.702 65.0638 280.229 65.9112 280.518C65.8756 280.938 65.9326 281.36 66.0783 281.755C66.2239 282.15 66.4546 282.509 66.7541 282.805C67.0535 283.101 67.4144 283.328 67.8112 283.469C68.208 283.61 68.6309 283.663 69.0502 283.623C69.0502 283.623 69.5216 286.865 72.0167 286.279C72.6976 286.153 73.3437 285.883 73.911 285.487C74.4784 285.09 74.9539 284.576 75.3051 283.979C75.3051 283.979 75.5236 288.118 77.7197 287.555C79.9158 286.991 80.1918 285.198 80.5712 284.588C80.9506 283.979 81.0886 277.874 81.0886 277.874L80.5137 267.847L86.5502 272.228C88.2634 272.975 90.7585 273.872 92.0923 272.55L82.4224 261.305Z" fill="#8F5045"/>
<path d="M50.8386 135.229C41.5712 139.219 41.1113 189.397 41.0078 200.768C41.0078 200.768 58.9333 251.084 60.0141 253.889C61.9343 258.902 77.6751 249.29 77.6751 249.29L63.2565 198.434L61.9458 162.284C61.9458 162.284 64.4063 150.924 60.3015 142.818C56.1967 134.712 50.8386 135.229 50.8386 135.229Z" fill="#D0D8DC"/>
<path d="M299.195 134.207H156.907C154.644 134.207 152.474 135.106 150.874 136.706C149.274 138.306 148.375 140.476 148.375 142.739V199.596C148.378 201.857 149.278 204.024 150.878 205.622C152.478 207.219 154.646 208.116 156.907 208.116H299.195C301.456 208.116 303.624 207.219 305.224 205.622C306.823 204.024 307.723 201.857 307.726 199.596V142.739C307.726 140.476 306.828 138.306 305.228 136.706C303.628 135.106 301.458 134.207 299.195 134.207Z" fill="#FAFBFB"/>
<path d="M299.196 134.206L186.239 134.355H158C156.839 134.29 155.675 134.406 154.55 134.7C153.44 135.022 152.413 135.579 151.538 136.333C150.657 137.077 149.941 137.995 149.434 139.03C148.927 140.066 148.641 141.195 148.594 142.347V156.535V184.774V198.894C148.512 200.037 148.663 201.186 149.039 202.269C149.414 203.352 150.006 204.348 150.779 205.195C151.551 206.035 152.49 206.706 153.535 207.165C154.58 207.624 155.708 207.862 156.85 207.862L269.807 208H298.046C299.206 208.063 300.37 207.947 301.495 207.655C302.614 207.33 303.652 206.774 304.542 206.023C305.435 205.269 306.161 204.338 306.676 203.289C307.19 202.24 307.482 201.096 307.532 199.929V185.821V157.581V143.473C307.617 142.297 307.462 141.115 307.077 140.001C306.691 138.886 306.083 137.861 305.29 136.988C304.516 136.135 303.576 135.449 302.529 134.97C301.481 134.492 300.347 134.232 299.196 134.206ZM299.196 134.206C300.379 134.207 301.549 134.454 302.631 134.931C303.714 135.408 304.686 136.105 305.485 136.977C306.286 137.849 306.903 138.874 307.298 139.99C307.694 141.107 307.859 142.291 307.785 143.473V157.593V185.832V199.952C307.735 201.145 307.439 202.315 306.914 203.387C306.39 204.46 305.649 205.412 304.738 206.184C303.829 206.957 302.767 207.529 301.622 207.862C300.472 208.17 299.28 208.29 298.092 208.219H269.853L156.896 208.368C155.675 208.364 154.468 208.107 153.352 207.612C152.235 207.117 151.234 206.396 150.411 205.494C149.6 204.593 148.979 203.539 148.584 202.393C148.188 201.247 148.028 200.034 148.111 198.825V184.74V156.501V142.37C148.16 141.164 148.46 139.981 148.993 138.898C149.526 137.815 150.279 136.855 151.204 136.08C152.121 135.295 153.195 134.715 154.355 134.378C155.513 134.076 156.712 133.959 157.908 134.033H186.147L299.196 134.206Z" fill="#A42A29"/>
<path d="M291.229 164.088C291.229 164.376 263.461 164.594 229.22 164.594C194.979 164.594 167.199 164.376 167.199 164.088C167.199 163.801 194.956 163.594 229.22 163.594C263.484 163.594 291.229 163.812 291.229 164.088Z" fill="#A42A29"/>
<path d="M291.229 172.873C291.229 173.161 263.461 173.379 229.22 173.379C194.979 173.379 167.199 173.161 167.199 172.873C167.199 172.586 194.956 172.379 229.22 172.379C263.484 172.379 291.229 172.632 291.229 172.873Z" fill="#A42A29"/>
<path d="M232.738 181.693C231.888 181.84 231.025 181.905 230.163 181.889L223.137 182.038C217.216 182.13 209.018 182.188 199.969 182.188C190.92 182.188 182.722 182.13 176.8 182.038L169.775 181.889C168.912 181.905 168.05 181.84 167.199 181.693C168.049 181.54 168.912 181.474 169.775 181.498L176.8 181.337C182.733 181.245 190.92 181.188 199.969 181.188C209.018 181.188 217.216 181.245 223.137 181.337L230.163 181.498C231.025 181.474 231.889 181.54 232.738 181.693Z" fill="#A42A29"/>
<path d="M289.225 188.593C289.443 188.777 286.764 192.203 283.269 196.239L281.418 198.332L281.061 198.734L280.705 198.355C277.991 195.423 276.106 193.203 276.29 193.054C276.474 192.904 278.589 194.848 281.395 197.653H280.693C281.28 196.963 281.843 196.25 282.51 195.526C285.96 191.548 288.972 188.42 289.225 188.593Z" fill="#A42A29"/>
<path d="M294.664 188.591C294.871 188.775 292.802 191.511 290.065 194.708C288.858 196.087 287.766 197.341 286.823 198.272L286.501 198.605L286.236 198.283C285.144 196.927 284.512 195.984 284.627 195.915C284.742 195.846 285.581 196.524 286.811 197.755H286.236C287.03 196.731 288.099 195.455 289.306 194.041C292.043 190.856 294.458 188.418 294.664 188.591Z" fill="#A42A29"/>
<path d="M243.799 125.133C242.182 122.374 239.887 120.074 237.13 118.452L236.923 118.326L232.451 116.44L227.461 115.773C225.741 115.888 224.032 116.118 222.344 116.463L221.194 116.705L220.677 116.866C220.357 116.944 220.043 117.04 219.734 117.153L218.964 117.452C218.676 117.567 218.4 117.682 218.124 117.82L217.273 118.292C217.112 118.395 216.94 118.464 216.779 118.567C214.067 120.206 211.794 122.479 210.156 125.19C210.053 125.363 209.972 125.524 209.88 125.696C209.788 125.869 209.558 126.248 209.409 126.536C209.259 126.823 209.156 127.099 209.041 127.375C208.926 127.651 208.822 127.881 208.73 128.145C208.638 128.41 208.535 128.778 208.443 129.088C208.351 129.399 208.339 129.433 208.293 129.606V129.859C208.135 130.585 208.035 131.324 207.994 132.066C207.838 132.793 207.739 133.531 207.695 134.274V134.515C207.695 134.619 207.695 134.722 207.695 134.826C207.659 136.34 207.865 137.849 208.305 139.298C208.305 139.298 208.305 139.298 208.305 139.367C208.298 139.386 208.298 139.406 208.305 139.425V139.505C208.736 141.021 209.354 142.477 210.145 143.84C211.345 145.891 212.93 147.691 214.813 149.141C215.238 149.474 215.687 149.75 216.135 150.038C216.353 150.176 216.549 150.337 216.767 150.463C218.15 151.266 219.63 151.888 221.171 152.314L222.321 152.556C223.08 152.713 223.848 152.821 224.621 152.878H224.874C228.168 153.319 231.521 152.879 234.589 151.601C235.46 151.38 236.288 151.015 237.038 150.521C239.794 148.903 242.09 146.607 243.707 143.852C245.371 141.003 246.248 137.763 246.248 134.463C246.248 131.164 245.371 127.924 243.707 125.075L243.799 125.133Z" fill="#EBEBEB"/>
<path d="M243.799 125.133C242.97 123.727 241.961 122.436 240.798 121.293C239.631 120.155 238.325 119.17 236.911 118.361L232.427 116.486L227.437 115.854C225.584 115.998 223.743 116.274 221.929 116.682C221.474 116.767 221.024 116.882 220.584 117.027C220.143 117.152 219.709 117.302 219.285 117.475C218.433 117.828 217.61 118.247 216.824 118.729C215.457 119.486 214.226 120.465 213.179 121.626C212.041 122.689 211.085 123.932 210.351 125.305L209.799 126.34C209.613 126.687 209.448 127.044 209.304 127.41C209.147 127.784 209.012 128.168 208.902 128.559L208.569 129.709V129.962L208.281 132.112V132.17L207.994 134.331V134.573C207.994 134.998 207.994 135.401 207.994 135.803C207.994 136.206 208.051 136.62 208.109 137.022C208.213 137.821 208.386 138.61 208.626 139.379V139.448C209.265 141.685 210.322 143.78 211.742 145.623C212.443 146.551 213.237 147.407 214.111 148.175C215.001 148.922 215.942 149.606 216.928 150.222C218.288 151.01 219.74 151.628 221.251 152.061L222.194 152.257C222.505 152.323 222.82 152.373 223.137 152.406L225.022 152.682H225.08C226.664 153.114 228.336 153.114 229.92 152.682H229.989C231.597 152.707 233.182 152.311 234.589 151.532C235.85 151.174 237.038 150.594 238.096 149.819C241.991 147.204 244.745 143.203 245.796 138.63C246.846 134.057 246.116 129.256 243.753 125.202L243.799 125.133ZM243.799 125.133C245.153 127.437 245.996 130.005 246.272 132.663C246.548 135.321 246.249 138.008 245.397 140.54C244.549 143.082 243.169 145.414 241.349 147.382C240.435 148.361 239.422 149.244 238.326 150.015C237.247 150.83 236.032 151.449 234.738 151.843C233.278 152.718 231.611 153.187 229.909 153.2H229.966C228.291 153.654 226.525 153.654 224.85 153.2L222.907 152.947C222.585 152.889 222.251 152.866 221.941 152.797L220.998 152.613C219.428 152.186 217.921 151.556 216.514 150.739C215.494 150.098 214.515 149.395 213.582 148.635C212.674 147.84 211.846 146.958 211.11 146.002C209.62 144.095 208.525 141.91 207.89 139.575V139.506C207.646 138.694 207.469 137.863 207.361 137.022C207.304 136.603 207.27 136.18 207.258 135.757C207.258 135.332 207.258 134.906 207.258 134.492V134.239L207.568 131.94V131.997L207.879 129.698V129.445L208.235 128.295C208.35 127.904 208.523 127.536 208.672 127.145C208.834 126.772 209.014 126.408 209.212 126.053L209.81 124.984C210.596 123.576 211.606 122.306 212.8 121.224C213.895 120.046 215.182 119.063 216.606 118.315C217.416 117.83 218.266 117.414 219.147 117.073C219.586 116.901 220.036 116.756 220.492 116.636C220.936 116.496 221.389 116.389 221.849 116.314C223.68 115.938 225.536 115.692 227.402 115.578L232.381 116.28L236.854 118.177C238.261 119.005 239.562 120.001 240.729 121.143C241.923 122.332 242.956 123.674 243.799 125.133Z" fill="#A42A29"/>
<path d="M236.702 125.328C233.437 127.719 225.009 135.745 222.111 138.171L220.237 136.182C219.32 134.975 218.063 134.069 216.627 133.583C216.469 133.555 216.308 133.565 216.155 133.612C216.002 133.66 215.864 133.744 215.751 133.857C215.638 133.97 215.554 134.109 215.506 134.261C215.458 134.414 215.448 134.576 215.477 134.733C215.885 136.209 216.711 137.535 217.857 138.55L221.019 142.069C221.355 142.403 221.81 142.591 222.284 142.591C222.758 142.591 223.212 142.403 223.549 142.069C225.848 139.39 235.759 129.605 238.128 127.018C238.267 126.811 238.336 126.563 238.322 126.314C238.308 126.064 238.214 125.826 238.053 125.635C237.892 125.444 237.673 125.311 237.429 125.255C237.185 125.2 236.93 125.225 236.702 125.328Z" fill="#A42A29"/>
</svg>
