<svg width="48" height="48" viewBox="0 0 48 48" fill="none" xmlns="http://www.w3.org/2000/svg">
<mask id="mask0_4230_3127" style="mask-type:alpha" maskUnits="userSpaceOnUse" x="0" y="0" width="48" height="48">
<path fill-rule="evenodd" clip-rule="evenodd" d="M23.8602 47.7204C37.0378 47.7204 47.7204 37.0378 47.7204 23.8602C47.7204 10.6826 37.0378 0 23.8602 0C10.6826 0 0 10.6826 0 23.8602C0 37.0378 10.6826 47.7204 23.8602 47.7204Z" fill="white"/>
</mask>
<g mask="url(#mask0_4230_3127)">
<path d="M0 31.0195H47.7204V33.4056H0V31.0195Z" fill="white"/>
</g>
<mask id="mask1_4230_3127" style="mask-type:alpha" maskUnits="userSpaceOnUse" x="0" y="0" width="48" height="48">
<path fill-rule="evenodd" clip-rule="evenodd" d="M23.8602 47.7204C37.0378 47.7204 47.7204 37.0378 47.7204 23.8602C47.7204 10.6826 37.0378 0 23.8602 0C10.6826 0 0 10.6826 0 23.8602C0 37.0378 10.6826 47.7204 23.8602 47.7204Z" fill="white"/>
</mask>
<g mask="url(#mask1_4230_3127)">
<path d="M0 14.3164H47.7204V16.7024H0V14.3164Z" fill="white"/>
</g>
<mask id="mask2_4230_3127" style="mask-type:alpha" maskUnits="userSpaceOnUse" x="0" y="0" width="48" height="48">
<path fill-rule="evenodd" clip-rule="evenodd" d="M23.8602 47.7204C37.0378 47.7204 47.7204 37.0378 47.7204 23.8602C47.7204 10.6826 37.0378 0 23.8602 0C10.6826 0 0 10.6826 0 23.8602C0 37.0378 10.6826 47.7204 23.8602 47.7204Z" fill="white"/>
</mask>
<g mask="url(#mask2_4230_3127)">
<path d="M0 0H47.7204V14.3161H0V0Z" fill="black"/>
</g>
<mask id="mask3_4230_3127" style="mask-type:alpha" maskUnits="userSpaceOnUse" x="0" y="0" width="48" height="48">
<path fill-rule="evenodd" clip-rule="evenodd" d="M23.8602 47.7204C37.0378 47.7204 47.7204 37.0378 47.7204 23.8602C47.7204 10.6826 37.0378 0 23.8602 0C10.6826 0 0 10.6826 0 23.8602C0 37.0378 10.6826 47.7204 23.8602 47.7204Z" fill="white"/>
</mask>
<g mask="url(#mask3_4230_3127)">
<path d="M0 16.7031H47.7204V31.0192H0V16.7031Z" fill="#BB0000"/>
</g>
<mask id="mask4_4230_3127" style="mask-type:alpha" maskUnits="userSpaceOnUse" x="0" y="0" width="48" height="48">
<path fill-rule="evenodd" clip-rule="evenodd" d="M23.8602 47.7204C37.0378 47.7204 47.7204 37.0378 47.7204 23.8602C47.7204 10.6826 37.0378 0 23.8602 0C10.6826 0 0 10.6826 0 23.8602C0 37.0378 10.6826 47.7204 23.8602 47.7204Z" fill="white"/>
</mask>
<g mask="url(#mask4_4230_3127)">
<path d="M0 33.4023H47.7204V47.7185H0V33.4023Z" fill="#006600"/>
</g>
<mask id="mask5_4230_3127" style="mask-type:alpha" maskUnits="userSpaceOnUse" x="0" y="0" width="48" height="48">
<path fill-rule="evenodd" clip-rule="evenodd" d="M23.8602 47.7204C37.0378 47.7204 47.7204 37.0378 47.7204 23.8602C47.7204 10.6826 37.0378 0 23.8602 0C10.6826 0 0 10.6826 0 23.8602C0 37.0378 10.6826 47.7204 23.8602 47.7204Z" fill="white"/>
</mask>
<g mask="url(#mask5_4230_3127)">
<path d="M15.3359 38.0287L15.8525 38.3269L29.7845 14.1959C30.5993 13.9776 31.0467 13.2028 31.4941 12.4279C31.7923 11.9113 32.9853 9.84502 33.5025 7.16016C31.4356 8.95027 30.2426 11.0166 29.9443 11.5331C29.497 12.308 29.0496 13.0829 29.2679 13.8977L15.3359 38.0287Z" fill="black"/>
</g>
<mask id="mask6_4230_3127" style="mask-type:alpha" maskUnits="userSpaceOnUse" x="0" y="0" width="48" height="48">
<path fill-rule="evenodd" clip-rule="evenodd" d="M23.8602 47.7204C37.0378 47.7204 47.7204 37.0378 47.7204 23.8602C47.7204 10.6826 37.0378 0 23.8602 0C10.6826 0 0 10.6826 0 23.8602C0 37.0378 10.6826 47.7204 23.8602 47.7204Z" fill="white"/>
</mask>
<g mask="url(#mask6_4230_3127)">
<path d="M15.3359 38.0287L15.8525 38.3269L29.7845 14.1959C30.5993 13.9776 31.0467 13.2028 31.4941 12.4279C31.7923 11.9113 32.9853 9.84502 33.5025 7.16016C31.4356 8.95027 30.2426 11.0166 29.9443 11.5331C29.497 12.308 29.0496 13.0829 29.2679 13.8977L15.3359 38.0287Z" fill="white"/>
</g>
<mask id="mask7_4230_3127" style="mask-type:alpha" maskUnits="userSpaceOnUse" x="0" y="0" width="48" height="48">
<path fill-rule="evenodd" clip-rule="evenodd" d="M23.8602 47.7204C37.0378 47.7204 47.7204 37.0378 47.7204 23.8602C47.7204 10.6826 37.0378 0 23.8602 0C10.6826 0 0 10.6826 0 23.8602C0 37.0378 10.6826 47.7204 23.8602 47.7204Z" fill="white"/>
</mask>
<g mask="url(#mask7_4230_3127)">
<path d="M32.3834 38.0287L31.8668 38.3269L17.9348 14.1959C17.12 13.9776 16.6726 13.2028 16.2252 12.4279C15.927 11.9113 14.734 9.84502 14.2168 7.16016C16.2837 8.95027 17.4767 11.0166 17.7749 11.5331C18.2223 12.308 18.6697 13.0829 18.4514 13.8977L32.3834 38.0287Z" fill="black"/>
</g>
<mask id="mask8_4230_3127" style="mask-type:alpha" maskUnits="userSpaceOnUse" x="0" y="0" width="48" height="48">
<path fill-rule="evenodd" clip-rule="evenodd" d="M23.8602 47.7204C37.0378 47.7204 47.7204 37.0378 47.7204 23.8602C47.7204 10.6826 37.0378 0 23.8602 0C10.6826 0 0 10.6826 0 23.8602C0 37.0378 10.6826 47.7204 23.8602 47.7204Z" fill="white"/>
</mask>
<g mask="url(#mask8_4230_3127)">
<path d="M32.3834 38.0287L31.8668 38.3269L17.9348 14.1959C17.12 13.9776 16.6726 13.2028 16.2252 12.4279C15.927 11.9113 14.734 9.84502 14.2168 7.16016C16.2837 8.95027 17.4767 11.0166 17.7749 11.5331C18.2223 12.308 18.6697 13.0829 18.4514 13.8977L32.3834 38.0287Z" fill="white"/>
</g>
<mask id="mask9_4230_3127" style="mask-type:alpha" maskUnits="userSpaceOnUse" x="0" y="0" width="48" height="48">
<path fill-rule="evenodd" clip-rule="evenodd" d="M23.8602 47.7204C37.0378 47.7204 47.7204 37.0378 47.7204 23.8602C47.7204 10.6826 37.0378 0 23.8602 0C10.6826 0 0 10.6826 0 23.8602C0 37.0378 10.6826 47.7204 23.8602 47.7204Z" fill="white"/>
</mask>
<g mask="url(#mask9_4230_3127)">
<path d="M18.1934 31.0171C19.0881 33.4032 22.0706 38.1752 23.8602 38.1752C25.6497 38.1752 28.6322 33.4032 29.527 31.0171V16.701C28.6322 14.315 25.6497 9.54297 23.8602 9.54297C22.0706 9.54297 19.0881 14.315 18.1934 16.701V31.0171Z" fill="#BB0000"/>
</g>
<mask id="mask10_4230_3127" style="mask-type:alpha" maskUnits="userSpaceOnUse" x="0" y="0" width="48" height="48">
<path fill-rule="evenodd" clip-rule="evenodd" d="M23.8602 47.7204C37.0378 47.7204 47.7204 37.0378 47.7204 23.8602C47.7204 10.6826 37.0378 0 23.8602 0C10.6826 0 0 10.6826 0 23.8602C0 37.0378 10.6826 47.7204 23.8602 47.7204Z" fill="white"/>
</mask>
<g mask="url(#mask10_4230_3127)">
<path d="M29.5264 31.0192C30.4212 28.6332 31.0177 26.2472 31.0177 23.8612C31.0177 21.4752 30.4212 19.0891 29.5264 16.7031C28.6317 19.0891 28.0352 21.4752 28.0352 23.8612C28.0352 26.2472 28.6317 28.6332 29.5264 31.0192Z" fill="black"/>
</g>
<mask id="mask11_4230_3127" style="mask-type:alpha" maskUnits="userSpaceOnUse" x="0" y="0" width="48" height="48">
<path fill-rule="evenodd" clip-rule="evenodd" d="M23.8602 47.7204C37.0378 47.7204 47.7204 37.0378 47.7204 23.8602C47.7204 10.6826 37.0378 0 23.8602 0C10.6826 0 0 10.6826 0 23.8602C0 37.0378 10.6826 47.7204 23.8602 47.7204Z" fill="white"/>
</mask>
<g mask="url(#mask11_4230_3127)">
<path d="M18.1924 31.0192C17.2977 28.6332 16.7012 26.2472 16.7012 23.8612C16.7012 21.4752 17.2977 19.0891 18.1924 16.7031C19.0872 19.0891 19.6837 21.4752 19.6837 23.8612C19.6837 26.2472 19.0872 28.6332 18.1924 31.0192Z" fill="black"/>
</g>
<mask id="mask12_4230_3127" style="mask-type:alpha" maskUnits="userSpaceOnUse" x="0" y="0" width="48" height="48">
<path fill-rule="evenodd" clip-rule="evenodd" d="M23.8602 47.7204C37.0378 47.7204 47.7204 37.0378 47.7204 23.8602C47.7204 10.6826 37.0378 0 23.8602 0C10.6826 0 0 10.6826 0 23.8602C0 37.0378 10.6826 47.7204 23.8602 47.7204Z" fill="white"/>
</mask>
<g mask="url(#mask12_4230_3127)">
<path d="M23.861 25.6493C24.5199 25.6493 25.054 24.8481 25.054 23.8598C25.054 22.8715 24.5199 22.0703 23.861 22.0703C23.2021 22.0703 22.668 22.8715 22.668 23.8598C22.668 24.8481 23.2021 25.6493 23.861 25.6493Z" fill="white"/>
</g>
<mask id="mask13_4230_3127" style="mask-type:alpha" maskUnits="userSpaceOnUse" x="0" y="0" width="48" height="48">
<path fill-rule="evenodd" clip-rule="evenodd" d="M23.8602 47.7204C37.0378 47.7204 47.7204 37.0378 47.7204 23.8602C47.7204 10.6826 37.0378 0 23.8602 0C10.6826 0 0 10.6826 0 23.8602C0 37.0378 10.6826 47.7204 23.8602 47.7204Z" fill="white"/>
</mask>
<g mask="url(#mask13_4230_3127)">
<path d="M24.1582 25.6055C24.1582 25.6055 25.3512 27.9915 25.3512 31.8688C25.3512 35.7461 24.1582 38.1321 24.1582 38.1321V25.6055Z" fill="white"/>
</g>
<mask id="mask14_4230_3127" style="mask-type:alpha" maskUnits="userSpaceOnUse" x="0" y="0" width="48" height="48">
<path fill-rule="evenodd" clip-rule="evenodd" d="M23.8602 47.7204C37.0378 47.7204 47.7204 37.0378 47.7204 23.8602C47.7204 10.6826 37.0378 0 23.8602 0C10.6826 0 0 10.6826 0 23.8602C0 37.0378 10.6826 47.7204 23.8602 47.7204Z" fill="white"/>
</mask>
<g mask="url(#mask14_4230_3127)">
<path d="M23.5622 22.1164C23.5622 22.1164 22.3691 19.7304 22.3691 15.8531C22.3691 11.9759 23.5622 9.58984 23.5622 9.58984V22.1164Z" fill="white"/>
</g>
<mask id="mask15_4230_3127" style="mask-type:alpha" maskUnits="userSpaceOnUse" x="0" y="0" width="48" height="48">
<path fill-rule="evenodd" clip-rule="evenodd" d="M23.8602 47.7204C37.0378 47.7204 47.7204 37.0378 47.7204 23.8602C47.7204 10.6826 37.0378 0 23.8602 0C10.6826 0 0 10.6826 0 23.8602C0 37.0378 10.6826 47.7204 23.8602 47.7204Z" fill="white"/>
</mask>
<g mask="url(#mask15_4230_3127)">
<path d="M23.5622 25.6055C23.5622 25.6055 22.3691 27.9915 22.3691 31.8688C22.3691 35.7461 23.5622 38.1321 23.5622 38.1321V25.6055Z" fill="white"/>
</g>
<mask id="mask16_4230_3127" style="mask-type:alpha" maskUnits="userSpaceOnUse" x="0" y="0" width="48" height="48">
<path fill-rule="evenodd" clip-rule="evenodd" d="M23.8602 47.7204C37.0378 47.7204 47.7204 37.0378 47.7204 23.8602C47.7204 10.6826 37.0378 0 23.8602 0C10.6826 0 0 10.6826 0 23.8602C0 37.0378 10.6826 47.7204 23.8602 47.7204Z" fill="white"/>
</mask>
<g mask="url(#mask16_4230_3127)">
<path d="M24.1582 22.1164C24.1582 22.1164 25.3512 19.7304 25.3512 15.8531C25.3512 11.9759 24.1582 9.58984 24.1582 9.58984V22.1164Z" fill="white"/>
</g>
</svg>
