<svg width="65" height="66" viewBox="0 0 65 66" fill="none" xmlns="http://www.w3.org/2000/svg">
<path opacity="0.45" d="M10.4678 50.4816C8.22427 52.7134 8.22427 56.3346 10.4678 58.5681C12.7133 60.8016 16.3516 60.8016 18.5951 58.5681C20.8387 56.3346 20.8387 52.713 18.5951 50.4816C16.3516 48.2457 12.7135 48.2457 10.4678 50.4816Z" fill="#A32A29"/>
<path opacity="0.65" d="M12.955 35.2047C12.955 31.6538 10.0606 28.7695 6.49116 28.7695C2.92174 28.7695 0.0273438 31.6538 0.0273438 35.2047C0.0273438 38.7596 2.92174 41.6399 6.49116 41.6399C10.0606 41.6399 12.955 38.7599 12.955 35.2047Z" fill="#A32A29"/>
<path opacity="0.8" d="M14.5291 8.73828C10.5634 8.73828 7.34766 11.9389 7.34766 15.8885C7.34766 19.8363 10.5634 23.0368 14.5291 23.0368C18.4967 23.0368 21.7105 19.8363 21.7105 15.8885C21.7103 11.9387 18.4967 8.73828 14.5291 8.73828Z" fill="#A32A29"/>
<path opacity="0.9" d="M33.9343 0C29.5725 0 26.0352 3.52273 26.0352 7.86533C26.0352 12.2078 29.5722 15.7305 33.9343 15.7305C38.3 15.7305 41.8349 12.2078 41.8349 7.86533C41.8373 3.52273 38.3 0 33.9343 0Z" fill="#A32A29"/>
<path opacity="0.35" d="M33.9349 55.9883C31.1598 55.9883 28.9102 58.2281 28.9102 60.9954C28.9102 63.7569 31.1599 65.999 33.9349 65.999C36.7121 65.999 38.9637 63.7568 38.9637 60.9954C38.9637 58.2281 36.7121 55.9883 33.9349 55.9883Z" fill="#A32A29"/>
<path opacity="0.15" d="M61.3788 31.6289C59.396 31.6289 57.7891 33.228 57.7891 35.204C57.7891 37.1799 59.396 38.7789 61.3788 38.7789C63.3636 38.7789 64.9724 37.1799 64.9724 35.204C64.9724 33.228 63.3636 31.6289 61.3788 31.6289Z" fill="#A32A29"/>
<path opacity="0.25" d="M50.2964 51.4913C48.6148 53.1648 48.6148 55.8821 50.2964 57.5579C51.9802 59.2337 54.7066 59.2337 56.3924 57.5579C58.074 55.8821 58.074 53.1652 56.3924 51.4913C54.7065 49.8154 51.98 49.8154 50.2964 51.4913Z" fill="#A32A29"/>
<path opacity="0.1" d="M53.6182 18.4721C55.2068 18.4721 56.4924 17.1931 56.4924 15.612C56.4924 14.0328 55.2068 12.7517 53.6182 12.7539C52.0337 12.7539 50.744 14.0328 50.7461 15.612C50.7461 17.1931 52.0337 18.4721 53.6182 18.4721Z" fill="#A32A29"/>
</svg>
