<svg width="120" height="78" viewBox="0 0 120 78" fill="none" xmlns="http://www.w3.org/2000/svg">
<path d="M15.0609 59.6831V54.7031H0.181641V77.1043H15.0609V72.1244H5.2434V68.4088H12.4077V63.3987H5.2434V59.6831H15.0609Z" fill="#F7F7F7"/>
<path d="M38.6282 72.681C39.3106 71.7373 39.8605 70.7074 40.263 69.6191C40.7047 68.4389 40.9311 67.1912 40.9318 65.9336C40.9455 64.3464 40.6124 62.775 39.9548 61.3256C38.7276 58.6078 36.4814 56.461 33.6845 55.3329C32.2606 54.7568 30.7335 54.4684 29.1941 54.4851C27.6546 54.5017 26.1343 54.8229 24.7237 55.4297C23.3468 56.0311 22.1002 56.8874 21.0519 57.9519C20.0221 59.0122 19.2016 60.2518 18.6325 61.6073C17.7171 63.7347 17.4902 66.0879 17.9825 68.3467C18.4749 70.6055 19.6626 72.6603 21.3841 74.2313C22.4673 75.214 23.7273 75.9892 25.0996 76.517C26.4557 77.042 27.8997 77.3125 29.3571 77.3148C30.3741 77.3177 31.3868 77.1831 32.3666 76.9148C33.2073 76.6906 34.0246 76.3889 34.8078 76.0139L35.8066 77.1126H42.6824L38.6282 72.681ZM27.1802 67.6753C27.86 68.43 28.5943 69.2256 29.3658 70.0405C30.0215 70.7393 30.6487 71.4253 31.2366 72.0811C30.6273 72.255 29.9959 72.3426 29.3614 72.3413C28.4903 72.3474 27.6273 72.1769 26.8262 71.8403C26.0478 71.5141 25.3383 71.0473 24.7346 70.4641C24.1343 69.8822 23.6555 69.1905 23.3249 68.4278C22.9832 67.6396 22.8098 66.7905 22.8157 65.9336C22.8125 65.0715 22.9872 64.2179 23.3293 63.4242C23.6581 62.6536 24.1319 61.9511 24.7259 61.3536C25.3318 60.7505 26.0538 60.2722 26.8497 59.9466C27.6456 59.6209 28.4995 59.4545 29.3614 59.4571C30.2216 59.4539 31.0734 59.6244 31.8639 59.9581C32.6391 60.2833 33.3421 60.7544 33.9336 61.345C34.531 61.9445 35.0111 62.6472 35.3499 63.4178C35.6991 64.2088 35.8777 65.0625 35.8744 65.925C35.8773 66.5134 35.7912 67.0989 35.6187 67.6624C35.496 68.062 35.3418 68.4517 35.1575 68.8278L30.7755 64.0607L26.9595 67.4194L27.1802 67.6753Z" fill="#F7F7F7"/>
<path d="M58.0126 54.7031V67.9529C58.0213 68.5845 57.9109 69.2123 57.6869 69.8043C57.4957 70.3166 57.203 70.7866 56.8258 71.1869C56.4785 71.552 56.0601 71.8445 55.5954 72.047C55.1401 72.2426 54.6486 72.3436 54.1518 72.3436C53.655 72.3436 53.1635 72.2426 52.7082 72.047C52.2428 71.8445 51.8236 71.552 51.4756 71.1869C51.0991 70.786 50.8066 70.3162 50.6145 69.8043C50.3919 69.2119 50.2822 68.5843 50.291 67.9529V54.7031H45.2642V68.512C45.2512 69.7221 45.4738 70.9235 45.9199 72.0513C46.333 73.0888 46.9536 74.0342 47.7448 74.8315C48.5454 75.6227 49.5019 76.2446 50.5554 76.6592C52.872 77.5423 55.4403 77.5423 57.7569 76.6592C58.8129 76.2429 59.7731 75.6221 60.5806 74.8337C61.3813 74.0396 62.0083 73.0927 62.423 72.0513C62.8687 70.9234 63.0913 69.722 63.0787 68.512V54.7031H58.0126Z" fill="#F7F7F7"/>
<path d="M74.3125 54.7031H69.2812V77.1043H74.3125V54.7031Z" fill="#F7F7F7"/>
<path d="M78.8457 54.7031V59.6831H84.9696V77.1043H90.0314V59.6831H96.0919V54.7031H78.8457Z" fill="#F7F7F7"/>
<path d="M113.733 54.7031L108.886 61.3689L104.01 54.7031H97.7832L98.1657 55.2278C98.7966 56.0965 99.4646 57.0082 100.17 57.9629C100.875 58.9176 101.58 59.8787 102.283 60.8464C102.99 61.8226 103.696 62.7866 104.401 63.7384C105.08 64.6587 105.726 65.5403 106.34 66.3832V77.1043H111.408V66.3832L120.002 54.7031H113.733Z" fill="#F7F7F7"/>
<path fill-rule="evenodd" clip-rule="evenodd" d="M19.8058 16.6158H0.181641V47.0009L19.8189 47.031L54.2152 23.3246L87.6871 47.0267H119.994L54.2043 0.417969L19.8058 24.1159V16.6158Z" fill="#F7F7F7"/>
</svg>
