<svg width="173" height="111" viewBox="0 0 173 111" fill="none" xmlns="http://www.w3.org/2000/svg">
<path d="M153.106 34.4336H114.393C113.513 34.4336 112.801 35.1463 112.801 36.0254V108.466C112.801 109.345 113.513 110.057 114.393 110.057H153.106C153.986 110.057 154.698 109.345 154.698 108.466V36.0254C154.698 35.1463 153.986 34.4336 153.106 34.4336Z" fill="url(#paint0_linear_2024_78203)"/>
<path d="M152.377 35.457H115.157C114.178 35.457 113.385 36.2506 113.385 37.2295V107.266C113.385 108.245 114.178 109.038 115.157 109.038H152.377C153.356 109.038 154.149 108.245 154.149 107.266V37.2295C154.149 36.2506 153.356 35.457 152.377 35.457Z" fill="white"/>
<path d="M144.007 37.3047C143.889 38.085 143.496 38.7974 142.898 39.3129C142.301 39.8285 141.538 40.1131 140.749 40.1154H126.671C125.882 40.1128 125.12 39.828 124.522 39.3125C123.925 38.797 123.532 38.0848 123.414 37.3047H115.955C115.752 37.3045 115.55 37.3444 115.363 37.4221C115.175 37.4998 115.004 37.6138 114.86 37.7575C114.716 37.9013 114.602 38.0719 114.524 38.2598C114.446 38.4476 114.406 38.649 114.406 38.8524V105.645C114.406 105.848 114.446 106.05 114.524 106.238C114.601 106.426 114.715 106.596 114.859 106.74C115.003 106.884 115.173 106.998 115.361 107.076C115.549 107.154 115.751 107.194 115.954 107.194H151.578C151.781 107.194 151.982 107.154 152.17 107.077C152.358 106.999 152.529 106.885 152.673 106.741C152.817 106.597 152.931 106.427 153.009 106.239C153.086 106.051 153.126 105.85 153.126 105.646V38.8537C153.127 38.6503 153.087 38.4489 153.009 38.261C152.931 38.0731 152.817 37.9023 152.674 37.7584C152.53 37.6146 152.359 37.5005 152.171 37.4226C151.984 37.3448 151.782 37.3047 151.579 37.3047H144.007Z" fill="#EF4153"/>
<path d="M143.237 82.0227H125.055C124.752 82.0227 124.504 81.7748 124.504 81.4718V78.9924C124.504 78.6893 124.752 78.4414 125.055 78.4414H143.237C143.54 78.4414 143.788 78.6893 143.788 78.9924V81.4718C143.788 81.7748 143.54 82.0227 143.237 82.0227ZM125.606 80.9208H142.686V79.5434H125.606V80.9208Z" fill="white"/>
<path d="M144.617 84.4993H123.68C123.377 84.4993 123.129 84.2514 123.129 83.9483V81.4689C123.129 81.1659 123.377 80.918 123.68 80.918H144.617C144.92 80.918 145.168 81.1659 145.168 81.4689V83.9483C145.168 84.2514 144.92 84.4993 144.617 84.4993ZM124.231 83.3974H144.066V82.0199H124.231V83.3974Z" fill="white"/>
<path d="M126.985 77.613C126.682 77.613 126.434 77.3651 126.434 77.0621V67.6955C126.434 67.3925 126.682 67.1445 126.985 67.1445C127.288 67.1445 127.536 67.3925 127.536 67.6955V77.0621C127.536 77.3651 127.288 77.613 126.985 77.613Z" fill="white"/>
<path d="M130.567 77.613C130.264 77.613 130.016 77.3651 130.016 77.0621V67.6955C130.016 67.3925 130.264 67.1445 130.567 67.1445C130.87 67.1445 131.118 67.3925 131.118 67.6955V77.0621C131.118 77.3651 130.87 77.613 130.567 77.613Z" fill="white"/>
<path d="M134.149 77.613C133.846 77.613 133.598 77.3651 133.598 77.0621V67.6955C133.598 67.3925 133.846 67.1445 134.149 67.1445C134.452 67.1445 134.7 67.3925 134.7 67.6955V77.0621C134.7 77.3651 134.452 77.613 134.149 77.613Z" fill="white"/>
<path d="M137.729 77.613C137.426 77.613 137.178 77.3651 137.178 77.0621V67.6955C137.178 67.3925 137.426 67.1445 137.729 67.1445C138.032 67.1445 138.28 67.3925 138.28 67.6955V77.0621C138.28 77.3651 138.032 77.613 137.729 77.613Z" fill="white"/>
<path d="M141.309 77.613C141.006 77.613 140.758 77.3651 140.758 77.0621V67.6955C140.758 67.3925 141.006 67.1445 141.309 67.1445C141.612 67.1445 141.86 67.3925 141.86 67.6955V77.0621C141.86 77.3651 141.612 77.613 141.309 77.613Z" fill="white"/>
<path d="M144.616 68.2467H123.679C123.431 68.2467 123.21 68.0814 123.155 67.8335C123.1 67.5856 123.183 67.3376 123.403 67.2274L133.872 60.8912C134.037 60.781 134.257 60.781 134.45 60.8912L144.919 67.2274C145.139 67.3652 145.222 67.6131 145.167 67.8335C145.084 68.0814 144.864 68.2467 144.616 68.2467ZM125.662 67.1448H142.66L134.147 61.9932L125.662 67.1448Z" fill="white"/>
<path d="M139.709 102.931H127.508C126.886 102.931 126.289 102.684 125.849 102.244C125.409 101.804 125.162 101.207 125.162 100.585C125.162 99.9623 125.409 99.3655 125.849 98.9255C126.289 98.4855 126.886 98.2383 127.508 98.2383H139.709C140.331 98.2383 140.928 98.4855 141.368 98.9255C141.808 99.3655 142.055 99.9623 142.055 100.585C142.055 101.207 141.808 101.804 141.368 102.244C140.928 102.684 140.331 102.931 139.709 102.931ZM127.508 98.6137C126.986 98.6137 126.484 98.8213 126.115 99.1909C125.745 99.5605 125.538 100.062 125.538 100.585C125.538 101.107 125.745 101.609 126.115 101.978C126.484 102.348 126.986 102.555 127.508 102.555H139.709C140.232 102.555 140.733 102.348 141.103 101.978C141.472 101.609 141.68 101.107 141.68 100.585C141.68 100.062 141.472 99.5605 141.103 99.1909C140.733 98.8213 140.232 98.6137 139.709 98.6137H127.508Z" fill="white"/>
<path d="M143.194 0H143.194C146.317 0 148.849 2.80951 148.849 6.27522V10.6784H147.495L146.711 9.04701L146.907 10.6784H138.202L137.489 9.19533L137.668 10.6784H136.688V7.22113C136.687 3.23301 139.601 0 143.194 0Z" fill="#2F2E41"/>
<path d="M149.672 28.7656L153.144 30.2411L165.208 40.049C165.652 40.5941 165.924 41.2587 165.989 41.9585C166.076 43.0868 169.721 48.9889 168.419 49.77C167.118 50.5512 162.431 52.8946 162.17 51.3323C161.91 49.77 160.521 43.0868 160.521 43.0868L148.891 32.6714L149.672 28.7656Z" fill="#2F2E41"/>
<path d="M163.299 50.0308L164.774 54.3705C164.774 54.3705 163.212 56.0196 163.993 57.4083V62.1821H165.208L165.556 59.665C165.556 59.665 166.94 62.1503 167.639 62.1821C169.104 62.2487 172.006 62.77 172.093 61.9888C172.18 61.2077 169.895 60.4462 169.895 60.4462L167.465 53.763L166.423 49.6836L163.299 50.0308Z" fill="#2F2E41"/>
<path d="M140.662 27.6427C140.662 27.6427 139.881 35.2807 142.137 36.6694C144.394 38.0581 154.376 42.4847 154.376 42.4847C154.376 42.4847 150.123 46.4772 150.991 47.432C151.859 48.3867 155.764 50.9906 156.285 50.4698C156.806 49.949 162.621 43.6998 161.927 41.7035C161.232 39.7072 151.598 33.1976 151.598 33.1976L150.47 29.1182L150.123 25.82L146.477 23.4766L140.662 27.6427Z" fill="#2F2E41"/>
<path d="M144.638 9.85777C146.636 9.85777 148.256 8.23778 148.256 6.23943C148.256 4.24108 146.636 2.62109 144.638 2.62109C142.64 2.62109 141.02 4.24108 141.02 6.23943C141.02 8.23778 142.64 9.85777 144.638 9.85777Z" fill="#C2826E"/>
<path d="M141.834 7.72266C141.834 7.72266 142.008 11.0209 139.317 12.0624C136.627 13.1039 146.001 19.874 146.001 19.874V12.3228C146.001 12.3228 144.785 11.0209 146.001 9.02459L141.834 7.72266Z" fill="#C2826E"/>
<path d="M136.031 23.2148L136.726 26.5998L138.809 38.2304C138.809 38.2304 137.073 43.1777 139.416 43.0909C141.76 43.0041 140.631 37.7096 140.631 37.7096L139.416 28.0754V24.3432L136.031 23.2148Z" fill="#C2826E"/>
<path d="M150.964 21.5625L151.745 24.6003L155.304 33.193C155.304 33.193 157.734 37.2724 155.738 37.1856C153.741 37.0988 153.741 33.193 153.741 33.193L149.662 26.2494V22.3437L150.964 21.5625Z" fill="#C2826E"/>
<path d="M151.604 46.9102L148.74 49.6008C148.74 49.6008 146.743 49.1668 145.962 51.5103C145.181 53.8538 144.66 55.3293 144.66 55.3293L145.702 55.9368L147.004 54.1141C147.004 54.1141 147.785 57.4123 148.566 57.6727C149.347 57.9331 153.253 59.669 152.906 57.6727L150.996 54.8953C150.996 54.8953 150.736 51.7707 151.517 51.5103C152.298 51.2499 154.381 48.6461 154.381 48.6461L151.604 46.9102Z" fill="#2F2E41"/>
<path d="M140.53 30.3307C140.53 30.3307 148.689 27.3797 149.209 27.6401C149.597 27.8113 150.01 27.9185 150.432 27.9574L150.425 26.7721C150.425 26.7721 147.734 25.8174 146.258 26.4249C144.783 27.0325 140.27 29.7231 140.27 29.7231L140.53 30.3307Z" fill="#3F3D56"/>
<path d="M145.452 18.1369C145.452 18.1369 143.108 15.4462 142.414 13.7971C141.974 12.7974 141.168 12.0045 140.161 11.582C140.161 11.582 134.949 12.7556 135.036 14.8387C135.123 16.9218 138.334 20.1332 138.334 20.1332C138.334 20.1332 137.9 31.6769 140.244 31.5033C140.749 30.9 141.106 30.1865 141.285 29.4202C141.546 28.2051 149.618 26.9032 149.618 26.9032C149.618 26.9032 150.312 28.1183 150.399 27.5975C150.486 27.0768 149.705 14.3179 149.705 14.3179L145.566 11.582L145.452 18.1369Z" fill="#A42A29"/>
<path d="M135.719 14.0008L135.661 14.0335C135.475 14.1376 135.321 14.2892 135.213 14.4727C135.106 14.6563 135.049 14.8652 135.049 15.0779L135.05 21.5192C135.05 21.6943 135.011 21.8671 134.937 22.0258C134.862 22.1844 134.755 22.325 134.621 22.4378C134.286 22.7222 133.976 23.132 134.616 23.3452C135.658 23.6924 139.737 25.4283 139.824 24.8207C139.911 24.2132 140.084 23.5188 139.824 23.5188C139.62 23.5188 138.406 17.2949 137.43 14.6338C137.37 14.4709 137.276 14.3229 137.153 14.2C137.031 14.0771 136.883 13.9823 136.72 13.9221C136.558 13.8619 136.384 13.8377 136.211 13.8513C136.038 13.8649 135.87 13.916 135.719 14.0008Z" fill="#A42A29"/>
<path d="M148.566 14.0156L149.782 14.3628L151.17 20.3517C151.17 20.3517 152.819 20.6988 152.299 21.3064C151.778 21.914 149.608 23.4763 149.608 23.4763L148.566 14.0156Z" fill="#A42A29"/>
<path d="M141.563 1.72921C141.835 1.36382 142.188 1.06604 142.593 0.858961C142.999 0.651885 143.447 0.541084 143.903 0.535156H144.014C146.154 0.535156 147.889 2.472 147.889 4.86122V4.86122H147.172L147.056 3.9796L146.887 4.86122H142.633L142.277 4.11535L142.366 4.86122H141.529C141.138 6.8005 141.699 8.73977 143.212 10.679H141.786L141.074 9.18729L141.252 10.679H138.535L138 7.24801C138 4.67849 139.493 2.49959 141.563 1.72921Z" fill="#2F2E41"/>
<path d="M138.096 38.1836H129.531C129.388 38.1836 129.271 38.3 129.271 38.4435V38.4916C129.271 38.6351 129.388 38.7515 129.531 38.7515H138.096C138.24 38.7515 138.356 38.6351 138.356 38.4916V38.4435C138.356 38.3 138.24 38.1836 138.096 38.1836Z" fill="#DBDBDB"/>
<path d="M147.017 76.4844H120.508V84.4111H147.017V76.4844Z" fill="url(#paint1_linear_2024_78203)"/>
<path d="M7.91541 30.8503C9.41983 30.8503 10.6394 29.6308 10.6394 28.1263C10.6394 26.6219 9.41983 25.4023 7.91541 25.4023C6.41098 25.4023 5.19141 26.6219 5.19141 28.1263C5.19141 29.6308 6.41098 30.8503 7.91541 30.8503Z" fill="white"/>
<path d="M16.1029 30.8503C17.6073 30.8503 18.8269 29.6308 18.8269 28.1263C18.8269 26.6219 17.6073 25.4023 16.1029 25.4023C14.5985 25.4023 13.3789 26.6219 13.3789 28.1263C13.3789 29.6308 14.5985 30.8503 16.1029 30.8503Z" fill="white"/>
<path d="M24.2904 30.8503C25.7948 30.8503 27.0144 29.6308 27.0144 28.1263C27.0144 26.6219 25.7948 25.4023 24.2904 25.4023C22.786 25.4023 21.5664 26.6219 21.5664 28.1263C21.5664 29.6308 22.786 30.8503 24.2904 30.8503Z" fill="white"/>
<path d="M32.4037 30.8503C33.9081 30.8503 35.1277 29.6308 35.1277 28.1263C35.1277 26.6219 33.9081 25.4023 32.4037 25.4023C30.8993 25.4023 29.6797 26.6219 29.6797 28.1263C29.6797 29.6308 30.8993 30.8503 32.4037 30.8503Z" fill="white"/>
<path d="M40.599 30.8503C42.1034 30.8503 43.323 29.6308 43.323 28.1263C43.323 26.6219 42.1034 25.4023 40.599 25.4023C39.0946 25.4023 37.875 26.6219 37.875 28.1263C37.875 29.6308 39.0946 30.8503 40.599 30.8503Z" fill="white"/>
<path d="M48.7865 30.8503C50.2909 30.8503 51.5105 29.6308 51.5105 28.1263C51.5105 26.6219 50.2909 25.4023 48.7865 25.4023C47.2821 25.4023 46.0625 26.6219 46.0625 28.1263C46.0625 29.6308 47.2821 30.8503 48.7865 30.8503Z" fill="white"/>
<path d="M56.9701 30.8503C58.4745 30.8503 59.6941 29.6308 59.6941 28.1263C59.6941 26.6219 58.4745 25.4023 56.9701 25.4023C55.4657 25.4023 54.2461 26.6219 54.2461 28.1263C54.2461 29.6308 55.4657 30.8503 56.9701 30.8503Z" fill="white"/>
<path d="M63.2728 31.443H1.65149C1.3576 31.4426 1.07584 31.3257 0.868028 31.1179C0.660214 30.9101 0.543314 30.6283 0.542969 30.3344V25.9171C0.543314 25.6232 0.660214 25.3415 0.868028 25.1337C1.07584 24.9258 1.3576 24.8089 1.65149 24.8086H63.2728C63.5667 24.8089 63.8484 24.9258 64.0563 25.1337C64.2641 25.3415 64.381 25.6232 64.3813 25.9171V30.3344C64.381 30.6283 64.2641 30.9101 64.0563 31.1179C63.8484 31.3257 63.5667 31.4426 63.2728 31.443ZM1.65149 25.252C1.47515 25.2522 1.30609 25.3223 1.1814 25.447C1.05671 25.5717 0.986571 25.7408 0.986378 25.9171V30.3344C0.986571 30.5108 1.05671 30.6799 1.1814 30.8045C1.30609 30.9292 1.47515 30.9994 1.65149 30.9996H63.2728C63.4491 30.9994 63.6182 30.9292 63.7429 30.8045C63.8676 30.6799 63.9377 30.5108 63.9379 30.3344V25.9171C63.9377 25.7408 63.8676 25.5717 63.7429 25.447C63.6182 25.3223 63.4491 25.2522 63.2728 25.252L1.65149 25.252Z" fill="#CCCCCC"/>
<path d="M14.7938 6.63691C14.9626 6.63711 15.1245 6.70427 15.2439 6.82367C15.3633 6.94308 15.4305 7.10496 15.4307 7.27382V21.0756C15.4305 21.2445 15.3633 21.4064 15.2439 21.5258C15.1245 21.6452 14.9626 21.7124 14.7938 21.7125H1.27384C1.10498 21.7124 0.943089 21.6452 0.823687 21.5258C0.704286 21.4064 0.63712 21.2445 0.636927 21.0756V7.27383C0.63712 7.10497 0.704286 6.94308 0.823687 6.82368C0.943089 6.70428 1.10498 6.63712 1.27384 6.63692H14.7938V6.63691ZM14.7938 6.00001H1.27384C0.935994 6.00001 0.61199 6.13422 0.3731 6.37311C0.13421 6.612 0 6.936 0 7.27384V21.0756C0 21.4135 0.13421 21.7375 0.3731 21.9764C0.61199 22.2153 0.935994 22.3495 1.27384 22.3495H14.7938C15.1316 22.3495 15.4556 22.2153 15.6945 21.9764C15.9334 21.7375 16.0676 21.4135 16.0676 21.0756V7.27383C16.0676 6.93599 15.9334 6.61199 15.6945 6.3731C15.4556 6.13421 15.1316 6 14.7938 6V6.00001Z" fill="#CCCCCC"/>
<path d="M12.6845 10.2619H3.66416C3.62218 10.2622 3.58056 10.2541 3.5417 10.2382C3.50283 10.2223 3.4675 10.1989 3.43772 10.1693C3.40794 10.1397 3.38431 10.1045 3.36818 10.0658C3.35205 10.027 3.34375 9.98545 3.34375 9.94346C3.34375 9.90148 3.35205 9.8599 3.36818 9.82114C3.38431 9.78238 3.40794 9.74718 3.43772 9.71759C3.4675 9.68799 3.50283 9.66457 3.5417 9.64868C3.58056 9.6328 3.62218 9.62475 3.66416 9.62501H12.6845C12.7265 9.62475 12.7682 9.6328 12.807 9.64868C12.8459 9.66457 12.8812 9.68799 12.911 9.71759C12.9408 9.74718 12.9644 9.78238 12.9805 9.82114C12.9967 9.8599 13.005 9.90148 13.005 9.94346C13.005 9.98545 12.9967 10.027 12.9805 10.0658C12.9644 10.1045 12.9408 10.1397 12.911 10.1693C12.8812 10.1989 12.8459 10.2223 12.807 10.2382C12.7682 10.2541 12.7265 10.2622 12.6845 10.2619Z" fill="#A32A29"/>
<path d="M12.6845 12.5197H3.66416C3.62218 12.52 3.58056 12.5119 3.5417 12.496C3.50283 12.4802 3.4675 12.4567 3.43772 12.4271C3.40794 12.3975 3.38431 12.3624 3.36818 12.3236C3.35205 12.2848 3.34375 12.2433 3.34375 12.2013C3.34375 12.1593 3.35205 12.1177 3.36818 12.0789C3.38431 12.0402 3.40794 12.005 3.43772 11.9754C3.4675 11.9458 3.50283 11.9224 3.5417 11.9065C3.58056 11.8906 3.62218 11.8826 3.66416 11.8828H12.6845C12.7265 11.8826 12.7682 11.8906 12.807 11.9065C12.8459 11.9224 12.8812 11.9458 12.911 11.9754C12.9408 12.005 12.9644 12.0402 12.9805 12.0789C12.9967 12.1177 13.005 12.1593 13.005 12.2013C13.005 12.2433 12.9967 12.2848 12.9805 12.3236C12.9644 12.3624 12.9408 12.3975 12.911 12.4271C12.8812 12.4567 12.8459 12.4802 12.807 12.496C12.7682 12.5119 12.7265 12.52 12.6845 12.5197Z" fill="#A32A29"/>
<path d="M12.6845 14.7736H3.66416C3.62218 14.7739 3.58056 14.7658 3.5417 14.75C3.50283 14.7341 3.4675 14.7106 3.43772 14.6811C3.40794 14.6515 3.38431 14.6163 3.36818 14.5775C3.35205 14.5387 3.34375 14.4972 3.34375 14.4552C3.34375 14.4132 3.35205 14.3716 3.36818 14.3329C3.38431 14.2941 3.40794 14.2589 3.43772 14.2293C3.4675 14.1997 3.50283 14.1763 3.5417 14.1604C3.58056 14.1445 3.62218 14.1365 3.66416 14.1367H12.6845C12.7265 14.1365 12.7682 14.1445 12.807 14.1604C12.8459 14.1763 12.8812 14.1997 12.911 14.2293C12.9408 14.2589 12.9644 14.2941 12.9805 14.3329C12.9967 14.3716 13.005 14.4132 13.005 14.4552C13.005 14.4972 12.9967 14.5387 12.9805 14.5775C12.9644 14.6163 12.9408 14.6515 12.911 14.6811C12.8812 14.7106 12.8459 14.7341 12.807 14.75C12.7682 14.7658 12.7265 14.7739 12.6845 14.7736Z" fill="#A32A29"/>
<path d="M12.6845 17.0275H3.66416C3.62218 17.0278 3.58056 17.0197 3.5417 17.0039C3.50283 16.988 3.4675 16.9646 3.43772 16.935C3.40794 16.9054 3.38431 16.8702 3.36818 16.8314C3.35205 16.7926 3.34375 16.7511 3.34375 16.7091C3.34375 16.6671 3.35205 16.6255 3.36818 16.5868C3.38431 16.548 3.40794 16.5128 3.43772 16.4832C3.4675 16.4536 3.50283 16.4302 3.5417 16.4143C3.58056 16.3984 3.62218 16.3904 3.66416 16.3906H12.6845C12.7265 16.3904 12.7682 16.3984 12.807 16.4143C12.8459 16.4302 12.8812 16.4536 12.911 16.4832C12.9408 16.5128 12.9644 16.548 12.9805 16.5868C12.9967 16.6255 13.005 16.6671 13.005 16.7091C13.005 16.7511 12.9967 16.7926 12.9805 16.8314C12.9644 16.8702 12.9408 16.9054 12.911 16.935C12.8812 16.9646 12.8459 16.988 12.807 17.0039C12.7682 17.0197 12.7265 17.0278 12.6845 17.0275Z" fill="#A32A29"/>
<path d="M12.6826 19.2854H3.66221C3.57775 19.2854 3.49674 19.2518 3.43702 19.1921C3.3773 19.1324 3.34375 19.0514 3.34375 18.9669C3.34375 18.8824 3.3773 18.8014 3.43702 18.7417C3.49674 18.682 3.57775 18.6484 3.66221 18.6484H12.6826C12.7671 18.6484 12.8481 18.682 12.9078 18.7417C12.9675 18.8014 13.0011 18.8824 13.0011 18.9669C13.0011 19.0514 12.9675 19.1324 12.9078 19.1921C12.8481 19.2518 12.7671 19.2854 12.6826 19.2854Z" fill="#A32A29"/>
<path d="M60.9637 6.63691C61.1325 6.63711 61.2944 6.70427 61.4138 6.82367C61.5332 6.94308 61.6004 7.10496 61.6006 7.27382V21.0756C61.6004 21.2445 61.5332 21.4064 61.4138 21.5258C61.2944 21.6452 61.1325 21.7124 60.9637 21.7125H47.4438C47.2749 21.7124 47.113 21.6452 46.9936 21.5258C46.8742 21.4064 46.807 21.2445 46.8068 21.0756V7.27383C46.807 7.10497 46.8742 6.94308 46.9936 6.82368C47.113 6.70428 47.2749 6.63712 47.4438 6.63692H60.9637V6.63691ZM60.9637 6.00001H47.4438C47.1059 6.00001 46.7819 6.13422 46.543 6.37311C46.3041 6.612 46.1699 6.936 46.1699 7.27384V21.0756C46.1699 21.4135 46.3041 21.7375 46.543 21.9764C46.7819 22.2153 47.1059 22.3495 47.4438 22.3495H60.9637C61.3015 22.3495 61.6255 22.2153 61.8644 21.9764C62.1033 21.7375 62.2375 21.4135 62.2375 21.0756V7.27383C62.2375 6.93599 62.1033 6.61199 61.8644 6.3731C61.6255 6.13421 61.3015 6 60.9637 6V6.00001Z" fill="#CCCCCC"/>
<path d="M58.8623 10.2619H49.8419C49.7999 10.2622 49.7583 10.2541 49.7194 10.2382C49.6806 10.2223 49.6452 10.1989 49.6154 10.1693C49.5857 10.1397 49.562 10.1045 49.5459 10.0658C49.5298 10.027 49.5215 9.98545 49.5215 9.94346C49.5215 9.90148 49.5298 9.8599 49.5459 9.82114C49.562 9.78238 49.5857 9.74718 49.6154 9.71759C49.6452 9.68799 49.6806 9.66457 49.7194 9.64868C49.7583 9.6328 49.7999 9.62475 49.8419 9.62501H58.8623C58.9464 9.62552 59.0269 9.6593 59.0862 9.71897C59.1455 9.77863 59.1788 9.85934 59.1788 9.94346C59.1788 10.0276 59.1455 10.1083 59.0862 10.168C59.0269 10.2276 58.9464 10.2614 58.8623 10.2619H58.8623Z" fill="#A32A29"/>
<path d="M58.8623 12.5197H49.8419C49.7999 12.52 49.7583 12.5119 49.7194 12.496C49.6806 12.4802 49.6452 12.4567 49.6154 12.4271C49.5857 12.3975 49.562 12.3624 49.5459 12.3236C49.5298 12.2848 49.5215 12.2433 49.5215 12.2013C49.5215 12.1593 49.5298 12.1177 49.5459 12.0789C49.562 12.0402 49.5857 12.005 49.6154 11.9754C49.6452 11.9458 49.6806 11.9224 49.7194 11.9065C49.7583 11.8906 49.7999 11.8826 49.8419 11.8828H58.8623C58.9464 11.8833 59.0269 11.9171 59.0862 11.9768C59.1455 12.0364 59.1788 12.1171 59.1788 12.2013C59.1788 12.2854 59.1455 12.3661 59.0862 12.4258C59.0269 12.4854 58.9464 12.5192 58.8623 12.5197H58.8623Z" fill="#A32A29"/>
<path d="M58.8623 14.7736H49.8419C49.7999 14.7739 49.7583 14.7658 49.7194 14.75C49.6806 14.7341 49.6452 14.7106 49.6154 14.6811C49.5857 14.6515 49.562 14.6163 49.5459 14.5775C49.5298 14.5387 49.5215 14.4972 49.5215 14.4552C49.5215 14.4132 49.5298 14.3716 49.5459 14.3329C49.562 14.2941 49.5857 14.2589 49.6154 14.2293C49.6452 14.1997 49.6806 14.1763 49.7194 14.1604C49.7583 14.1445 49.7999 14.1365 49.8419 14.1367H58.8623C58.9464 14.1372 59.0269 14.171 59.0862 14.2307C59.1455 14.2903 59.1788 14.3711 59.1788 14.4552C59.1788 14.5393 59.1455 14.62 59.0862 14.6797C59.0269 14.7393 58.9464 14.7731 58.8623 14.7736H58.8623Z" fill="#A32A29"/>
<path d="M58.8623 17.0275H49.8419C49.7999 17.0278 49.7583 17.0197 49.7194 17.0039C49.6806 16.988 49.6452 16.9646 49.6154 16.935C49.5857 16.9054 49.562 16.8702 49.5459 16.8314C49.5298 16.7926 49.5215 16.7511 49.5215 16.7091C49.5215 16.6671 49.5298 16.6255 49.5459 16.5868C49.562 16.548 49.5857 16.5128 49.6154 16.4832C49.6452 16.4536 49.6806 16.4302 49.7194 16.4143C49.7583 16.3984 49.7999 16.3904 49.8419 16.3906H58.8623C58.9464 16.3911 59.0269 16.4249 59.0862 16.4846C59.1455 16.5443 59.1788 16.625 59.1788 16.7091C59.1788 16.7932 59.1455 16.8739 59.0862 16.9336C59.0269 16.9932 58.9464 17.027 58.8623 17.0275H58.8623Z" fill="#A32A29"/>
<path d="M58.8603 19.2854H49.8399C49.7555 19.2854 49.6745 19.2518 49.6148 19.1921C49.555 19.1324 49.5215 19.0514 49.5215 18.9669C49.5215 18.8824 49.555 18.8014 49.6148 18.7417C49.6745 18.682 49.7555 18.6484 49.8399 18.6484H58.8603C58.9448 18.6484 59.0258 18.682 59.0855 18.7417C59.1452 18.8014 59.1788 18.8824 59.1788 18.9669C59.1788 19.0514 59.1452 19.1324 59.0855 19.1921C59.0258 19.2518 58.9448 19.2854 58.8603 19.2854H58.8603Z" fill="#A32A29"/>
<path d="M106.962 33.1721C107.131 33.1723 107.292 33.2394 107.412 33.3588C107.531 33.4782 107.598 33.6401 107.599 33.809V47.6108C107.598 47.7796 107.531 47.9415 107.412 48.0609C107.292 48.1803 107.131 48.2475 106.962 48.2477H93.4418C93.2729 48.2475 93.1111 48.1803 92.9917 48.0609C92.8723 47.9415 92.8051 47.7796 92.8049 47.6108V33.809C92.8051 33.6401 92.8723 33.4782 92.9917 33.3588C93.1111 33.2394 93.2729 33.1723 93.4418 33.1721H106.962V33.1721ZM106.962 32.5352H93.4418C93.104 32.5352 92.78 32.6694 92.5411 32.9083C92.3022 33.1472 92.168 33.4712 92.168 33.809V47.6108C92.168 47.9487 92.3022 48.2727 92.5411 48.5115C92.78 48.7504 93.104 48.8846 93.4418 48.8846H106.962C107.3 48.8846 107.624 48.7504 107.862 48.5115C108.101 48.2727 108.236 47.9487 108.236 47.6108V33.809C108.236 33.4712 108.101 33.1471 107.862 32.9083C107.624 32.6694 107.3 32.5352 106.962 32.5352V32.5352Z" fill="#CCCCCC"/>
<path d="M104.837 36.801H95.8165C95.7745 36.8012 95.7329 36.7932 95.694 36.7773C95.6552 36.7614 95.6198 36.738 95.5901 36.7084C95.5603 36.6788 95.5367 36.6436 95.5205 36.6048C95.5044 36.5661 95.4961 36.5245 95.4961 36.4825C95.4961 36.4405 95.5044 36.399 95.5205 36.3602C95.5367 36.3214 95.5603 36.2862 95.5901 36.2566C95.6198 36.2271 95.6552 36.2036 95.694 36.1878C95.7329 36.1719 95.7745 36.1638 95.8165 36.1641H104.837C104.921 36.1646 105.002 36.1984 105.061 36.258C105.12 36.3177 105.153 36.3984 105.153 36.4825C105.153 36.5666 105.12 36.6473 105.061 36.707C105.002 36.7667 104.921 36.8005 104.837 36.801Z" fill="#A32A29"/>
<path d="M104.837 39.0588H95.8165C95.7321 39.0588 95.651 39.0252 95.5913 38.9655C95.5316 38.9058 95.498 38.8248 95.498 38.7403C95.498 38.6559 95.5316 38.5749 95.5913 38.5151C95.651 38.4554 95.7321 38.4219 95.8165 38.4219H104.837C104.921 38.4219 105.002 38.4554 105.062 38.5151C105.122 38.5749 105.155 38.6559 105.155 38.7403C105.155 38.8248 105.122 38.9058 105.062 38.9655C105.002 39.0252 104.921 39.0588 104.837 39.0588Z" fill="#A32A29"/>
<path d="M104.839 41.3127H95.8181C95.7762 41.3129 95.7346 41.3048 95.6957 41.2889C95.6569 41.273 95.6216 41.2496 95.5919 41.22C95.5622 41.1904 95.5385 41.1552 95.5224 41.1165C95.5063 41.0777 95.498 41.0362 95.498 40.9942C95.498 40.9523 95.5063 40.9107 95.5224 40.872C95.5385 40.8333 95.5622 40.7981 95.5919 40.7685C95.6216 40.7389 95.6569 40.7155 95.6957 40.6996C95.7346 40.6837 95.7762 40.6756 95.8181 40.6758H104.839C104.923 40.6763 105.003 40.7101 105.062 40.7697C105.122 40.8294 105.155 40.9101 105.155 40.9942C105.155 41.0784 105.122 41.1591 105.062 41.2187C105.003 41.2784 104.923 41.3122 104.839 41.3127Z" fill="#A32A29"/>
<path d="M38.0801 22.3479H24.2062C23.831 22.3475 23.4713 22.1982 23.206 21.9329C22.9407 21.6676 22.7915 21.3079 22.791 20.9327V11.0052C22.7914 10.63 22.9407 10.2702 23.206 10.0049C23.4713 9.73956 23.831 9.59029 24.2062 9.58984H38.0801C38.4554 9.59026 38.8151 9.7395 39.0805 10.0048C39.3458 10.2702 39.495 10.6299 39.4955 11.0052V20.9327C39.495 21.308 39.3457 21.6677 39.0804 21.933C38.8151 22.1983 38.4553 22.3475 38.0801 22.3479ZM24.2062 10.2268C23.9998 10.227 23.802 10.3091 23.6561 10.455C23.5102 10.601 23.4282 10.7988 23.4279 11.0052V20.9327C23.4282 21.1391 23.5102 21.3369 23.6561 21.4828C23.802 21.6287 23.9999 21.7108 24.2062 21.711H38.0801C38.2865 21.7108 38.4843 21.6287 38.6303 21.4828C38.7762 21.3369 38.8583 21.1391 38.8585 20.9327V11.0052C38.8583 10.7988 38.7762 10.601 38.6303 10.455C38.4843 10.3091 38.2865 10.227 38.0801 10.2268H24.2062Z" fill="#CCCCCC"/>
<path d="M35.626 14.0314H26.6056C26.5215 14.0309 26.4409 13.9972 26.3816 13.9375C26.3223 13.8778 26.2891 13.7971 26.2891 13.713C26.2891 13.6289 26.3223 13.5482 26.3816 13.4885C26.4409 13.4288 26.5215 13.3951 26.6056 13.3945H35.626C35.668 13.3943 35.7096 13.4023 35.7484 13.4182C35.7873 13.4341 35.8226 13.4575 35.8524 13.4871C35.8822 13.5167 35.9058 13.5519 35.922 13.5907C35.9381 13.6294 35.9464 13.671 35.9464 13.713C35.9464 13.755 35.9381 13.7965 35.922 13.8353C35.9058 13.8741 35.8822 13.9093 35.8524 13.9389C35.8226 13.9685 35.7873 13.9919 35.7484 14.0078C35.7096 14.0237 35.668 14.0317 35.626 14.0314Z" fill="#A32A29"/>
<path d="M35.626 16.2893H26.6056C26.5215 16.2887 26.4409 16.255 26.3816 16.1953C26.3223 16.1356 26.2891 16.0549 26.2891 15.9708C26.2891 15.8867 26.3223 15.806 26.3816 15.7463C26.4409 15.6866 26.5215 15.6529 26.6056 15.6523H35.626C35.668 15.6521 35.7096 15.6601 35.7484 15.676C35.7873 15.6919 35.8226 15.7153 35.8524 15.7449C35.8822 15.7745 35.9058 15.8097 35.922 15.8485C35.9381 15.8872 35.9464 15.9288 35.9464 15.9708C35.9464 16.0128 35.9381 16.0544 35.922 16.0931C35.9058 16.1319 35.8822 16.1671 35.8524 16.1967C35.8226 16.2263 35.7873 16.2497 35.7484 16.2656C35.7096 16.2815 35.668 16.2895 35.626 16.2893Z" fill="#A32A29"/>
<path d="M35.626 18.5432H26.6056C26.5215 18.5426 26.4409 18.5089 26.3816 18.4492C26.3223 18.3895 26.2891 18.3088 26.2891 18.2247C26.2891 18.1406 26.3223 18.0599 26.3816 18.0002C26.4409 17.9406 26.5215 17.9068 26.6056 17.9063H35.626C35.668 17.906 35.7096 17.914 35.7484 17.9299C35.7873 17.9458 35.8226 17.9692 35.8524 17.9988C35.8822 18.0284 35.9058 18.0636 35.922 18.1024C35.9381 18.1412 35.9464 18.1827 35.9464 18.2247C35.9464 18.2667 35.9381 18.3083 35.922 18.347C35.9058 18.3858 35.8822 18.421 35.8524 18.4506C35.8226 18.4802 35.7873 18.5036 35.7484 18.5195C35.7096 18.5354 35.668 18.5434 35.626 18.5432Z" fill="#A32A29"/>
<path d="M84.1112 27.8488L70.7862 23.9846C70.426 23.8797 70.1221 23.6362 69.9412 23.3075C69.7603 22.9788 69.7172 22.5917 69.8212 22.2313L72.5863 12.6965C72.6912 12.3363 72.9347 12.0324 73.2634 11.8514C73.5921 11.6705 73.9792 11.6273 74.3397 11.7314L87.6646 15.5956C88.0249 15.7005 88.3288 15.9441 88.5098 16.2728C88.6907 16.6015 88.7339 16.9886 88.6297 17.3491L85.8647 26.8839C85.7597 27.2441 85.5162 27.548 85.1875 27.7289C84.8587 27.9098 84.4717 27.953 84.1112 27.8488ZM74.1623 12.3431C73.964 12.2859 73.7512 12.3096 73.5704 12.4091C73.3896 12.5087 73.2557 12.6758 73.198 12.8739L70.4329 22.4087C70.3757 22.6069 70.3994 22.8198 70.4989 23.0005C70.5984 23.1813 70.7655 23.3152 70.9636 23.3729L84.2886 27.2371C84.4868 27.2944 84.6997 27.2707 84.8805 27.1712C85.0613 27.0717 85.1952 26.9046 85.253 26.7065L88.018 17.1718C88.0753 16.9735 88.0515 16.7606 87.952 16.5798C87.8525 16.399 87.6854 16.265 87.4872 16.2073L74.1623 12.3431Z" fill="#CCCCCC"/>
<path d="M84.1035 19.1873L75.4401 16.6749C75.3591 16.6513 75.2909 16.5965 75.2503 16.5225C75.2097 16.4486 75.2 16.3616 75.2235 16.2805C75.247 16.1995 75.3017 16.1311 75.3756 16.0904C75.4494 16.0497 75.5364 16.0399 75.6175 16.0632L84.2809 18.5756C84.3621 18.5991 84.4305 18.6539 84.4712 18.7279C84.512 18.8019 84.5216 18.889 84.4981 18.9702C84.4746 19.0513 84.4198 19.1197 84.3458 19.1605C84.2718 19.2012 84.1847 19.2108 84.1035 19.1873H84.1035Z" fill="#A32A29"/>
<path d="M83.4791 21.3516L74.8157 18.8392C74.7755 18.8275 74.7381 18.8081 74.7054 18.7819C74.6728 18.7558 74.6456 18.7235 74.6254 18.6869C74.6052 18.6502 74.5925 18.61 74.5879 18.5684C74.5833 18.5268 74.5869 18.4848 74.5985 18.4446C74.6102 18.4044 74.6296 18.367 74.6558 18.3343C74.6819 18.3017 74.7142 18.2745 74.7508 18.2543C74.7875 18.2341 74.8277 18.2214 74.8693 18.2168C74.9109 18.2122 74.9529 18.2158 74.9931 18.2274L83.6565 20.7398C83.7375 20.7635 83.8058 20.8183 83.8464 20.8923C83.887 20.9662 83.8966 21.0532 83.8731 21.1342C83.8496 21.2152 83.7949 21.2836 83.7211 21.3244C83.6472 21.3651 83.5602 21.3749 83.4791 21.3516Z" fill="#A32A29"/>
<path d="M82.8301 23.5194L74.1667 21.007C74.0857 20.9833 74.0174 20.9285 73.9768 20.8546C73.9362 20.7806 73.9266 20.6936 73.9501 20.6126C73.9736 20.5316 74.0283 20.4632 74.1021 20.4224C74.176 20.3817 74.263 20.3719 74.3441 20.3952L83.0075 22.9076C83.0886 22.9312 83.1571 22.986 83.1978 23.0599C83.2385 23.1339 83.2482 23.2211 83.2247 23.3022C83.2011 23.3833 83.1464 23.4518 83.0724 23.4925C82.9984 23.5332 82.9112 23.5429 82.8301 23.5194Z" fill="#A32A29"/>
<path d="M66.207 93.6165C65.6146 92.787 64.8127 92.1801 63.8046 91.953C62.9255 91.7549 62.0215 91.7886 61.1279 91.7955L49.8287 91.8827C48.861 91.8901 47.9332 92.7285 47.9781 93.7332C48.0227 94.7295 48.7914 95.5918 49.8287 95.5838C53.1386 95.5583 56.4485 95.5328 59.7584 95.5073C60.5387 95.5012 61.3194 95.4872 62.0998 95.4897C62.2751 95.4903 62.4496 95.4995 62.6246 95.5015C62.6671 95.502 62.6977 95.5016 62.7193 95.5007C62.7247 95.5024 62.7293 95.5039 62.7363 95.5058C62.8277 95.5309 62.9214 95.5482 63.0132 95.572C62.981 95.5729 63.0728 95.6302 63.1189 95.6496C63.1252 95.6621 63.1387 95.6842 63.1613 95.7184C63.1927 95.7774 63.2858 95.9565 63.2897 95.9509C63.4296 96.3047 63.545 96.6677 63.6351 97.0373C63.8502 97.8524 63.8975 98.0228 63.9284 98.7875C63.9676 99.7535 64.7516 100.684 65.779 100.638C66.7481 100.595 67.6715 99.8235 67.6296 98.7875C67.5589 97.0417 67.2524 95.0806 66.207 93.6165Z" fill="#CCCCCC"/>
<path d="M50.5222 97.7991C50.3099 96.513 50.1018 95.2261 49.8854 93.9407C49.6659 92.6367 49.2175 91.4427 48.2028 90.5868C47.9316 90.3582 47.6505 90.1447 47.3682 89.9319C47.2689 89.8571 47.1698 89.7821 47.0717 89.7057C47.0658 89.7011 47.0621 89.6982 47.057 89.6943C47.0462 89.685 47.0333 89.674 47.0159 89.6593C46.593 89.3013 46.1843 88.9274 45.795 88.53C45.4493 88.1771 45.1187 87.8091 44.8033 87.4261C44.7244 87.3304 44.6466 87.2339 44.5698 87.1365C44.5566 87.1197 44.4854 87.0278 44.4385 86.9677C44.3949 86.9077 44.3152 86.7992 44.3019 86.7803C44.2121 86.6534 44.124 86.5253 44.0374 86.3961C43.448 85.513 42.9376 84.5796 42.5122 83.6068C42.47 83.5104 42.4288 83.4133 42.3887 83.3157C42.3779 83.2859 42.3639 83.2477 42.3454 83.1967C42.2597 82.961 42.1741 82.7255 42.0957 82.4869C41.9292 81.9803 41.786 81.4661 41.6662 80.9445C41.6069 80.6869 41.5536 80.428 41.5062 80.1678C41.4817 80.034 41.4588 79.8999 41.4376 79.7656C41.4341 79.7433 41.4133 79.5983 41.401 79.5164C41.392 79.4341 41.3752 79.2884 41.3729 79.2658C41.3593 79.1304 41.3473 78.9948 41.3368 78.8591C41.3131 78.5538 41.2971 78.2479 41.2888 77.9416C41.2746 77.3971 41.2843 76.8526 41.3181 76.3082C41.3373 76.0023 41.3646 75.6972 41.3983 75.3927C41.4003 75.374 41.4019 75.3591 41.4033 75.3457C41.4054 75.3321 41.4077 75.3167 41.4106 75.2974C41.4355 75.1292 41.4617 74.9611 41.491 74.7936C41.602 74.1575 41.7463 73.5277 41.9235 72.9067C42.0073 72.6131 42.0984 72.3218 42.1968 72.0329C42.2406 71.9046 42.2858 71.7769 42.3324 71.6496C42.3294 71.6578 42.4691 71.3008 42.471 71.2888C43.0256 69.9785 43.9327 68.7839 43.9339 67.2954C43.9348 66.2876 43.0822 65.3222 42.0834 65.3688C41.5854 65.3876 41.1141 65.5989 40.7689 65.9583C40.4237 66.3177 40.2315 66.7971 40.2328 67.2954C40.2328 67.3181 40.2327 67.3374 40.2326 67.3561C40.2233 67.3875 40.2155 67.4137 40.2085 67.4368C40.1003 67.6718 39.9678 67.8952 39.8491 68.1243C39.5241 68.7516 39.2466 69.3995 38.983 70.0569C38.5515 71.1274 38.2213 72.2359 37.9965 73.368C37.508 75.8485 37.4701 78.3967 37.8846 80.8907C38.6021 85.2642 40.9683 89.4507 44.2579 92.2647C44.5434 92.5089 44.8358 92.7449 45.131 92.9762C45.2531 93.0718 45.3763 93.1657 45.5001 93.259C45.5586 93.3031 45.801 93.4943 45.6944 93.4017C45.9237 93.5974 46.0202 93.6958 46.0791 93.84C46.0876 93.8732 46.0993 93.9183 46.115 93.98C46.1565 94.1426 46.1959 94.3047 46.2287 94.4696C46.515 95.9097 46.714 97.374 46.9532 98.8235C47.1176 99.8194 48.3437 100.468 49.2297 100.169C50.2609 99.8216 50.6983 98.8663 50.5222 97.7991Z" fill="#CCCCCC"/>
<path d="M66.3911 101.531C65.6139 101.533 64.8676 101.227 64.316 100.679C63.7644 100.132 63.4524 99.388 63.4486 98.6108V96.4998C61.2385 96.7472 53.6703 96.6899 51.5008 96.3414V98.5264C51.495 99.3029 51.1824 100.046 50.6313 100.593C50.0801 101.14 49.335 101.447 48.5584 101.447C47.7818 101.447 47.0367 101.14 46.4855 100.593C45.9343 100.046 45.6218 99.3029 45.6159 98.5264V94.2363C42.6777 92.604 40.2282 90.2171 38.5203 87.3221C36.8124 84.4271 35.908 81.1287 35.9004 77.7675C35.9004 72.0041 38.5124 66.6276 43.0666 63.0168C46.0278 60.661 49.6255 59.2443 53.3978 58.9486C53.9098 58.9084 54.425 58.8881 54.929 58.8881C56.7047 58.8881 64.7161 59.1624 66.7262 59.7407L71.3096 55.1927C71.377 55.1249 71.4631 55.0787 71.5568 55.0601C71.6505 55.0414 71.7477 55.051 71.8359 55.0878C71.9248 55.1232 72.0009 55.1846 72.0542 55.264C72.1076 55.3434 72.1357 55.4371 72.1348 55.5327V56.2558L73.0273 55.3719C73.0945 55.3041 73.1805 55.2579 73.2742 55.2391C73.3679 55.2204 73.465 55.2301 73.5531 55.2669C73.6421 55.3022 73.7183 55.3637 73.7717 55.4431C73.8251 55.5225 73.8532 55.6163 73.8524 55.712V63.7926C76.1523 65.866 77.9052 68.4747 78.9558 71.3876C80.0064 74.3004 80.3222 77.4274 79.8753 80.4915C79.4284 83.5556 78.2325 86.4622 76.3937 88.9536C74.5548 91.445 72.1298 93.4443 69.3335 94.7744V98.6108C69.3297 99.388 69.0177 100.132 68.4661 100.679C67.9145 101.227 67.1682 101.533 66.3911 101.531ZM63.68 96.2375V98.6108C63.6858 99.326 63.974 100.01 64.4818 100.514C64.9896 101.017 65.6758 101.3 66.391 101.3C67.1063 101.3 67.7925 101.017 68.3003 100.514C68.8081 100.01 69.0963 99.326 69.1021 98.6108V94.6283L69.1682 94.5969C72.3058 93.1081 74.9694 90.7787 76.8632 87.8676C79.2765 84.1527 80.2801 79.6966 79.6925 75.3059C79.1048 70.9151 76.9647 66.8798 73.6595 63.9303L73.6211 63.8958V55.712C73.6219 55.6622 73.6075 55.6135 73.5797 55.5722C73.552 55.5309 73.5122 55.4991 73.4659 55.4811C73.4198 55.4614 73.3688 55.4561 73.3197 55.4659C73.2705 55.4757 73.2255 55.5 73.1904 55.5359L71.9035 56.8105V55.5327C71.9043 55.483 71.8899 55.4342 71.8621 55.3929C71.8344 55.3517 71.7946 55.3199 71.7483 55.3019C71.7021 55.2822 71.651 55.277 71.6018 55.2868C71.5526 55.2966 71.5075 55.3211 71.4724 55.357L66.7909 60.0024L66.7243 59.9815C64.8557 59.3967 56.7182 59.1194 54.929 59.1194C54.431 59.1194 53.9219 59.1395 53.416 59.1792C49.6895 59.4713 46.1355 60.8709 43.2104 63.198C38.7118 66.7647 36.1317 72.0751 36.1317 77.7675C36.1394 81.099 37.039 84.3677 38.737 87.234C40.435 90.1003 42.8695 92.4597 45.7876 94.067L45.8473 94.1001V98.5264C45.8532 99.2415 46.1415 99.9253 46.6493 100.429C47.1571 100.932 47.8432 101.215 48.5584 101.215C49.2735 101.215 49.9597 100.932 50.4675 100.429C50.9753 99.9253 51.2636 99.2415 51.2695 98.5264V96.0644L51.4066 96.0902C53.3561 96.457 61.5653 96.5148 63.5492 96.2546L63.68 96.2375Z" fill="#3F3D56"/>
<path d="M58.1393 42C56.0353 42.0008 54.0141 42.8203 52.5037 44.285C50.9932 45.7497 50.1119 47.7446 50.0464 49.8476C50.0441 49.9298 50.043 50.013 50.043 50.0963C50.043 51.6976 50.5178 53.2629 51.4074 54.5944C52.2971 55.9258 53.5615 56.9635 55.0409 57.5763C56.5204 58.1891 58.1483 58.3494 59.7188 58.037C61.2893 57.7246 62.7319 56.9535 63.8642 55.8213C64.9965 54.689 65.7676 53.2463 66.08 51.6758C66.3924 50.1053 66.2321 48.4774 65.6193 46.998C65.0065 45.5186 63.9688 44.2541 62.6373 43.3645C61.3059 42.4748 59.7406 42 58.1393 42ZM58.1393 57.9613C56.054 57.9591 54.0548 57.1298 52.5803 55.6553C51.1058 54.1808 50.2765 52.1816 50.2743 50.0963C50.2743 49.9887 50.2766 49.8823 50.2812 49.7771C50.3439 48.2364 50.858 46.7482 51.7597 45.4974C52.6613 44.2466 53.9108 43.2885 55.3526 42.7421C56.7945 42.1957 58.3651 42.0852 59.8693 42.4244C61.3734 42.7635 62.7447 43.5373 63.8126 44.6495C64.8805 45.7617 65.5979 47.1633 65.8756 48.68C66.1533 50.1967 65.9791 51.7616 65.3746 53.1801C64.77 54.5985 63.7619 55.808 62.4755 56.6581C61.1891 57.5081 59.6812 57.9613 58.1393 57.9613Z" fill="#3F3D56"/>
<path d="M64.9684 50.0974C64.9684 51.9073 64.2494 53.643 62.9697 54.9227C61.6899 56.2025 59.9542 56.9215 58.1443 56.9215C56.3345 56.9215 54.5988 56.2025 53.319 54.9227C52.0393 53.643 51.3203 51.9073 51.3203 50.0974C51.3203 49.8811 51.3307 49.6683 51.3504 49.4578C51.5148 47.7111 52.3457 46.0949 53.6704 44.9447C54.9952 43.7945 56.712 43.1986 58.4645 43.281C60.217 43.3633 61.8704 44.1174 63.0815 45.3867C64.2926 46.656 64.9684 48.343 64.9684 50.0974Z" fill="#A32A29"/>
<path d="M36.7123 71.9843C35.0985 71.7459 33.5551 71.1623 32.1873 70.2734C31.5097 69.8334 30.8824 69.3203 30.3166 68.7434C29.7582 68.1739 29.224 67.5265 28.9474 66.768C28.6813 66.0663 28.6951 65.2891 28.9858 64.5971C29.2725 63.9094 29.8202 63.3635 30.5089 63.079C31.2016 62.8027 32.0386 62.7732 32.7129 63.0757C33.0341 63.2166 33.3122 63.4404 33.5184 63.7241C33.6142 63.855 33.6852 64.0023 33.7277 64.1588C33.7672 64.3006 33.7708 64.45 33.7382 64.5936C33.6987 64.7369 33.6289 64.8701 33.5337 64.9843C33.4385 65.0984 33.3199 65.1909 33.186 65.2555C32.8914 65.4067 32.5721 65.5041 32.2432 65.5431C31.9123 65.5882 31.4371 65.6292 31.1712 65.3637C31.1165 65.3112 31.0734 65.2477 31.0448 65.1774C31.0248 65.1236 31.018 65.0657 31.0249 65.0087C31.021 65.0339 31.0409 64.9541 31.0398 64.9573C31.0356 64.9691 31.0174 64.9978 31.0433 64.9537C31.0514 64.9391 31.0604 64.9251 31.0702 64.9117C31.0614 64.923 31.0421 64.942 31.0766 64.9095C31.1051 64.8783 31.1417 64.8557 31.1824 64.8442C31.1984 64.8395 31.2146 64.8358 31.2307 64.8314C31.2715 64.8203 31.19 64.832 31.2317 64.8307C31.2478 64.8302 31.2641 64.8306 31.2802 64.8299C31.3211 64.828 31.2398 64.8187 31.279 64.8286C31.2943 64.8324 31.3094 64.8361 31.3244 64.8409C31.357 64.8511 31.3013 64.8169 31.3234 64.8425C31.3493 64.8725 31.2962 64.8133 31.3256 64.8424C31.3403 64.8568 31.3541 64.872 31.367 64.888C31.4181 64.9384 31.4869 64.9667 31.5587 64.9667C31.6305 64.9667 31.6994 64.9384 31.7504 64.888C31.7998 64.8364 31.8273 64.7677 31.8273 64.6963C31.8273 64.6249 31.7998 64.5562 31.7504 64.5046C31.4831 64.1732 30.955 64.2551 30.6846 64.5352C30.3397 64.8924 30.4762 65.4585 30.8117 65.7702C31.1915 66.123 31.7294 66.1476 32.218 66.0884C32.6309 66.0488 33.0332 65.9351 33.4057 65.7527C33.7759 65.5709 34.0654 65.2581 34.2182 64.8751C34.2871 64.6707 34.3119 64.4539 34.2908 64.2392C34.2698 64.0245 34.2034 63.8167 34.096 63.6295C33.6646 62.8186 32.7715 62.4029 31.8886 62.3308C31.4341 62.2952 30.977 62.3501 30.5439 62.4923C30.1107 62.6345 29.71 62.8612 29.365 63.1593C28.7001 63.7579 28.2906 64.5892 28.2214 65.4812C28.1443 66.406 28.5031 67.3042 29.0263 68.0506C29.5739 68.8089 30.2275 69.4848 30.967 70.0577C32.4127 71.2119 34.1085 72.0116 35.9187 72.3929C36.134 72.4374 36.3505 72.4755 36.5681 72.5072C36.6374 72.524 36.7104 72.5137 36.7724 72.4785C36.8343 72.4434 36.8805 72.3859 36.9016 72.3178C36.9202 72.2485 36.9108 72.1746 36.8753 72.1122C36.8399 72.0498 36.7813 72.0039 36.7123 71.9843L36.7123 71.9843Z" fill="#A32A29"/>
<path d="M62.5413 60.2004C60.1769 60.167 57.82 60.227 55.4706 60.3804C54.6675 60.4328 53.9727 60.7166 53.9727 61.1937C53.9727 61.5926 54.662 62.0598 55.4706 62.007C57.8188 61.8537 60.1757 61.7937 62.5413 61.827C64.4698 61.8542 64.4687 60.2275 62.5413 60.2004Z" fill="#CCCCCC"/>
<path d="M59.0626 61.7476C58.8071 61.7476 52.8047 61.738 52.8047 60.9089C52.8047 60.0799 58.8071 60.0703 59.0626 60.0703C59.3182 60.0703 65.3206 60.0799 65.3206 60.9089C65.3206 61.738 59.3182 61.7476 59.0626 61.7476ZM53.0394 60.9089C53.2037 61.1603 55.41 61.5163 59.0626 61.5163C62.7152 61.5163 64.9216 61.1603 65.0859 60.9089C64.9216 60.6576 62.7152 60.3016 59.0626 60.3016C55.41 60.3016 53.2037 60.6576 53.0394 60.9089V60.9089Z" fill="#3F3D56"/>
<path d="M78.1025 83.5476C79.4312 83.5107 81.0849 83.4646 82.3589 82.534C82.7383 82.2455 83.05 81.8775 83.2721 81.4559C83.4943 81.0343 83.6216 80.5692 83.6451 80.0931C83.6711 79.3582 83.4056 78.7166 82.8974 78.2872C82.232 77.7249 81.2603 77.593 80.2132 77.9008L81.2981 69.9724L80.5017 69.8633L79.2263 79.1841L79.8913 78.8789C80.6624 78.5252 81.7208 78.3453 82.3785 78.9011C82.54 79.0464 82.6658 79.227 82.7462 79.4288C82.8265 79.6307 82.8593 79.8483 82.8418 80.0649C82.8223 80.4192 82.7267 80.7651 82.5616 81.0791C82.3964 81.3931 82.1656 81.6679 81.8847 81.8848C80.8933 82.6089 79.5751 82.7024 78.0801 82.7442L78.1025 83.5476Z" fill="#A32A29"/>
<path d="M75.89 70.6523H71.5605V71.4562H75.89V70.6523Z" fill="#A32A29"/>
<path d="M112.826 101.584H5.17312C5.12716 101.584 5.08313 101.569 5.05068 101.544C5.01822 101.518 5 101.483 5 101.446C5 101.41 5.01822 101.375 5.05068 101.349C5.08313 101.323 5.12716 101.309 5.17312 101.309H112.826C112.872 101.309 112.917 101.323 112.949 101.349C112.982 101.375 113 101.41 113 101.446C113 101.483 112.982 101.518 112.949 101.544C112.917 101.57 112.872 101.584 112.826 101.584Z" fill="#3F3D56"/>
<defs>
<linearGradient id="paint0_linear_2024_78203" x1="22942.9" y1="49512.5" x2="22942.9" y2="5502.45" gradientUnits="userSpaceOnUse">
<stop stop-color="#808080" stop-opacity="0.25"/>
<stop offset="0.54" stop-color="#808080" stop-opacity="0.12"/>
<stop offset="1" stop-color="#808080" stop-opacity="0.1"/>
</linearGradient>
<linearGradient id="paint1_linear_2024_78203" x1="9323.95" y1="3124.88" x2="9323.95" y2="2641.34" gradientUnits="userSpaceOnUse">
<stop stop-opacity="0.12"/>
<stop offset="0.55" stop-opacity="0.09"/>
<stop offset="1" stop-opacity="0.02"/>
</linearGradient>
</defs>
</svg>
