<svg width="48" height="48" viewBox="0 0 48 48" fill="none" xmlns="http://www.w3.org/2000/svg">
<mask id="mask0_4230_1138" style="mask-type:alpha" maskUnits="userSpaceOnUse" x="0" y="0" width="48" height="48">
<path fill-rule="evenodd" clip-rule="evenodd" d="M23.8602 47.7204C37.0378 47.7204 47.7204 37.0378 47.7204 23.8602C47.7204 10.6826 37.0378 0 23.8602 0C10.6826 0 0 10.6826 0 23.8602C0 37.0378 10.6826 47.7204 23.8602 47.7204Z" fill="white"/>
</mask>
<g mask="url(#mask0_4230_1138)">
<path d="M0 35.7891H47.7204V47.7192H0V35.7891Z" fill="#215E3C"/>
</g>
<mask id="mask1_4230_1138" style="mask-type:alpha" maskUnits="userSpaceOnUse" x="0" y="0" width="48" height="48">
<path fill-rule="evenodd" clip-rule="evenodd" d="M23.8602 47.7204C37.0378 47.7204 47.7204 37.0378 47.7204 23.8602C47.7204 10.6826 37.0378 0 23.8602 0C10.6826 0 0 10.6826 0 23.8602C0 37.0378 10.6826 47.7204 23.8602 47.7204Z" fill="white"/>
</mask>
<g mask="url(#mask1_4230_1138)">
<path d="M0 23.8594H47.7204V35.7895H0V23.8594Z" fill="#F1CC28"/>
</g>
<mask id="mask2_4230_1138" style="mask-type:alpha" maskUnits="userSpaceOnUse" x="0" y="0" width="48" height="48">
<path fill-rule="evenodd" clip-rule="evenodd" d="M23.8602 47.7204C37.0378 47.7204 47.7204 37.0378 47.7204 23.8602C47.7204 10.6826 37.0378 0 23.8602 0C10.6826 0 0 10.6826 0 23.8602C0 37.0378 10.6826 47.7204 23.8602 47.7204Z" fill="white"/>
</mask>
<g mask="url(#mask2_4230_1138)">
<path d="M0 0H47.7204V23.8602H0V0Z" fill="#2099CF"/>
</g>
<mask id="mask3_4230_1138" style="mask-type:alpha" maskUnits="userSpaceOnUse" x="0" y="0" width="48" height="48">
<path fill-rule="evenodd" clip-rule="evenodd" d="M23.8602 47.7204C37.0378 47.7204 47.7204 37.0378 47.7204 23.8602C47.7204 10.6826 37.0378 0 23.8602 0C10.6826 0 0 10.6826 0 23.8602C0 37.0378 10.6826 47.7204 23.8602 47.7204Z" fill="white"/>
</mask>
<g mask="url(#mask3_4230_1138)">
<path fill-rule="evenodd" clip-rule="evenodd" d="M42.591 12.4683L37.2618 12.7797L42.3291 14.4601L37.1008 13.3816L41.5602 16.3158L36.7894 13.9208L40.3374 17.9097L36.3486 14.3617L38.7435 19.1325L35.8093 14.673L36.8878 19.9014L35.2075 14.8341L34.8961 20.1633L34.5847 14.8341L32.9044 19.9014L33.9828 14.673L31.0486 19.1325L33.4436 14.3617L29.4548 17.9097L33.0028 13.9208L28.2319 16.3158L32.6914 13.3816L27.463 14.4601L32.5303 12.7797L27.2012 12.4683L32.5303 12.157L27.463 10.4766L32.6914 11.5551L28.2319 8.62089L33.0028 11.0159L29.4548 7.02703L33.4436 10.575L31.0486 5.8042L33.9828 10.2637L32.9044 5.0353L34.5847 10.1026L34.8961 4.77344L35.2075 10.1026L36.8878 5.0353L35.8093 10.2637L38.7435 5.8042L36.3486 10.575L40.3374 7.02703L36.7894 11.0159L41.5602 8.62089L37.1008 11.5551L42.3291 10.4766L37.2618 12.157L42.591 12.4683ZM34.8961 14.8544L34.9414 14.8532C36.2227 14.8275 37.2552 13.795 37.2809 12.5137L37.2821 12.4684L37.2809 12.423C37.2552 11.1417 36.2227 10.1092 34.9414 10.0835L34.8961 10.0823L34.8507 10.0835C33.5695 10.1092 32.5369 11.1417 32.5113 12.423L32.5101 12.4684L32.5113 12.5137C32.5369 13.795 33.5695 14.8275 34.8507 14.8532L34.8961 14.8544Z" fill="#DDBA25"/>
<path d="M34.9433 10.3095C34.9119 10.3083 34.8804 10.3083 34.849 10.3095C33.6572 10.3372 32.7125 11.324 32.7368 12.516C32.7645 13.7078 33.7513 14.6525 34.9433 14.6282C36.117 14.6013 37.055 13.6429 37.0567 12.4688L37.0555 12.4217C37.0293 11.2662 36.0988 10.3357 34.9433 10.3095Z" fill="#DDBA25"/>
</g>
</svg>
