<svg width="32" height="33" viewBox="0 0 32 33" fill="none" xmlns="http://www.w3.org/2000/svg">
<path fill-rule="evenodd" clip-rule="evenodd" d="M16.0004 5.17969L29.0888 12.3188L26.0004 14.0033V22.6883C26.0004 23.5484 25.4103 24.1559 24.8617 24.535C24.2825 24.9352 23.5098 25.2555 22.6449 25.5082C20.902 26.0176 18.5531 26.3188 16.0004 26.3188C13.4478 26.3188 11.0989 26.0176 9.35595 25.5082C8.49108 25.2555 7.71838 24.9352 7.13921 24.535C6.59059 24.1559 6.00044 23.5484 6.00044 22.6883V14.0033L2.91211 12.3188L16.0004 5.17969ZM8.00044 15.0942V22.6418C8.02204 22.6756 8.08955 22.7606 8.27619 22.8896C8.60787 23.1188 9.15318 23.3653 9.917 23.5885C11.4314 24.0311 13.5825 24.3188 16.0004 24.3188C18.4184 24.3188 20.5695 24.0311 22.0839 23.5885C22.8477 23.3653 23.393 23.1188 23.7247 22.8896C23.9113 22.7606 23.9788 22.6756 24.0004 22.6418V15.0942L16.0004 19.4579L8.00044 15.0942ZM7.08876 12.3188L16.0004 17.1797L24.9121 12.3188L16.0004 7.45786L7.08876 12.3188Z" fill="#A32A29"/>
<path d="M30.0004 14.3188V21.8346H28.0004V14.3188H30.0004Z" fill="#A32A29"/>
</svg>
