<svg width="48" height="48" viewBox="0 0 48 48" fill="none" xmlns="http://www.w3.org/2000/svg">
<g clip-path="url(#clip0_4230_1307)">
<path d="M24 48C37.2548 48 48 37.2548 48 24C48 10.7452 37.2548 0 24 0C10.7452 0 0 10.7452 0 24C0 37.2548 10.7452 48 24 48Z" fill="#F0F0F0"/>
<path d="M46.1268 14.6956C42.4922 6.06206 33.9542 0 23.9991 0C17.3715 0 11.3722 2.68678 7.0293 7.03022L13.0396 14.6956H46.1268Z" fill="black"/>
<path d="M13.1078 33.2188L7.0293 40.971C11.3722 45.3145 17.3715 48.0013 23.9991 48.0013C33.9878 48.0013 42.5501 41.8987 46.1638 33.2188H13.1078Z" fill="#496E2D"/>
<path d="M5.2168 17.6523V30.261H47.1727C47.711 28.265 47.9994 26.1664 47.9994 24.0002C47.9994 21.8025 47.7033 19.6743 47.1499 17.6523H5.2168Z" fill="#A2001D"/>
<path d="M7.02942 7.02734C-2.34314 16.3999 -2.34314 31.5959 7.02942 40.9686C10.9025 37.0955 14.6275 33.3705 24 23.998L7.02942 7.02734Z" fill="#0052B4"/>
<path d="M7.81778 18.0352L10.747 22.1227L15.5403 20.5998L12.558 24.6491L15.4872 28.7369L10.7146 27.1519L7.73219 31.2011L7.765 26.1721L2.99219 24.5869L7.78506 23.064L7.81778 18.0352Z" fill="#FFDA44"/>
</g>
<defs>
<clipPath id="clip0_4230_1307">
<rect width="48" height="48" fill="white"/>
</clipPath>
</defs>
</svg>
