<svg width="48" height="48" viewBox="0 0 48 48" fill="none" xmlns="http://www.w3.org/2000/svg">
<g clip-path="url(#clip0_4724_13699)">
<path d="M24 48C37.2548 48 48 37.2548 48 24C48 10.7452 37.2548 0 24 0C10.7452 0 0 10.7452 0 24C0 37.2548 10.7452 48 24 48Z" fill="#FFDA44"/>
<path d="M7.02892 40.9721C8.0357 41.9789 9.10989 42.8768 10.2367 43.6673L43.6651 10.2387C42.8748 9.11194 41.9769 8.03775 40.9701 7.03097C39.9632 6.02419 38.8891 5.12644 37.7623 4.33594L4.33398 37.7645C5.1243 38.891 6.02223 39.9653 7.02892 40.9721Z" fill="black"/>
<path d="M7.02845 7.02833C-0.54299 14.6 -1.99658 25.971 2.66495 35.0031L35.0033 2.66493C25.9711 -1.9966 14.6 -0.542917 7.02845 7.02833Z" fill="#6DA544"/>
<path d="M40.9708 40.9709C48.5423 33.3995 49.9958 22.0282 45.3344 12.9961L12.9961 45.3344C22.0281 49.9959 33.3993 48.5423 40.9708 40.9709Z" fill="#338AF3"/>
</g>
<defs>
<clipPath id="clip0_4724_13699">
<rect width="48" height="48" fill="white"/>
</clipPath>
</defs>
</svg>
