<svg width="48" height="48" viewBox="0 0 48 48" fill="none" xmlns="http://www.w3.org/2000/svg">
<g clip-path="url(#clip0_4724_207)">
<path d="M41.8868 40.0007C45.6878 35.7546 48 30.1482 48 24.0008C48 17.8534 45.6877 12.2469 41.8867 8.00078L24 6.26172L6.11325 8.00078C2.31234 12.2469 0 17.8534 0 24.0008C0 30.1482 2.31225 35.7546 6.11316 40.0007L24 41.7399L41.8868 40.0007Z" fill="#FFDA44"/>
<path d="M6.11328 7.99997H41.8869C37.4923 3.09056 31.1075 0 24 0C16.8926 0 10.5077 3.09056 6.11328 7.99997Z" fill="black"/>
<path d="M0 24.0001L24 26.087L48 24.0001C48 21.1947 47.5171 18.5024 46.6324 16H1.36762C0.482906 18.5024 0 21.1947 0 24.0001Z" fill="#D80027"/>
<path d="M1.36762 32H46.6326C47.5171 29.4976 48 26.8054 48 24H0C0 26.8054 0.482906 29.4976 1.36762 32Z" fill="black"/>
<path d="M41.887 40H6.11328C10.5077 44.9095 16.8926 48.0001 24.0001 48.0001C31.1077 48.0001 37.4925 44.9095 41.887 40Z" fill="#D80027"/>
<path d="M32.0096 24.0009C32.0096 28.4243 28.4243 32.0096 24.0009 32.0096C19.5775 32.0096 15.9922 28.4243 15.9922 24.0009C15.9922 19.5775 19.5775 15.9922 24.0009 15.9922C28.4243 15.9922 32.0096 19.5775 32.0096 24.0009Z" fill="#F0F0F0"/>
<path d="M26.9337 24.4073L23.9998 23.1359C23.9998 23.1359 24.6862 20.8575 24.7228 20.7016C24.7495 20.5877 24.7638 20.4689 24.7638 20.3469C24.7638 19.9146 24.5886 19.5233 24.3052 19.2402L25.0431 18.5023C24.571 18.0303 23.9188 17.7383 23.1984 17.7383C22.4781 17.7383 21.8258 18.0302 21.3538 18.5023L22.0916 19.2402C21.8083 19.5234 21.6332 19.9147 21.6332 20.3469C21.6332 20.5049 21.6571 20.6573 21.7007 20.8012L20.5898 21.9119H22.6088C22.6088 21.9119 21.7741 23.1658 21.3184 24.1954C20.8627 25.225 21.3247 26.4819 22.3778 26.9501L22.9868 27.2207L23.9998 28.1728V29.2163L22.9564 30.2597H25.0433V28.1727L25.9956 27.2205H27.965C27.9745 27.2009 27.9845 27.1818 27.9935 27.1617C28.4614 26.1087 27.987 24.8753 26.9337 24.4073Z" fill="black"/>
</g>
<defs>
<clipPath id="clip0_4724_207">
<rect width="48" height="48" fill="white"/>
</clipPath>
</defs>
</svg>
