<svg width="26" height="26" viewBox="0 0 26 26" fill="none" xmlns="http://www.w3.org/2000/svg">
<path fill-rule="evenodd" clip-rule="evenodd" d="M13.0608 0.309394L12.5304 0L12 0.309394L0 7.30939L1.06078 9.12788L12.5304 2.43727L24 9.12788L25.0608 7.30939L13.0608 0.309394ZM2.53039 15.2186H4.11618L2.82328 16.5115L2.53039 16.8044V17.2186V25.2186H4.53039V23.2186H20.5304V25.2186H22.5304V17.2186V16.8044L22.2375 16.5115L20.9446 15.2186H22.5304V13.2186H19.969L19.1516 8.85075C18.9745 7.90448 18.1484 7.21864 17.1857 7.21864H7.87505C6.91235 7.21864 6.08626 7.90448 5.90918 8.85075L5.09179 13.2186H2.53039V15.2186ZM5.9446 16.2186L4.53039 17.6328V21.2186H6.53039L6.53039 19.2186H8.53039V21.2186H16.5304V19.2186H18.5304V21.2186H20.5304V17.6329L19.1162 16.2186H18.4957H6.56511H5.9446ZM6.93938 14.2186L7.87505 9.21864H17.1857L18.1214 14.2186H6.93938Z" fill="#A32A29"/>
</svg>
